{"glyphs":{"0":{"ha":853,"x_min":68,"x_max":785,"o":"m 785 407 q 758 238 785 315 q 683 105 731 161 q 569 17 635 49 q 426 -14 503 -14 q 283 17 349 -14 q 170 105 218 49 q 95 238 122 161 q 68 407 68 315 q 95 576 68 499 q 170 709 122 653 q 283 797 218 765 q 426 829 349 829 q 569 797 503 829 q 683 709 635 765 q 758 576 731 653 q 785 407 785 499 m 597 407 q 585 509 597 463 q 549 589 572 556 q 495 640 526 622 q 426 658 464 658 q 356 640 388 658 q 302 589 325 622 q 267 509 279 556 q 254 407 254 463 q 267 306 254 351 q 302 226 279 260 q 356 175 325 193 q 426 157 388 157 q 495 175 464 157 q 549 226 526 193 q 585 306 572 260 q 597 407 597 351 z "},"1":{"ha":686,"x_min":61,"x_max":653,"o":"m 653 168 l 653 0 l 89 0 l 89 168 l 286 168 l 286 589 q 247 555 274 572 q 188 522 219 538 q 122 497 156 507 q 61 488 88 488 l 61 661 q 122 677 86 661 q 193 715 158 693 q 253 759 228 738 q 286 793 279 781 l 476 793 l 476 168 l 653 168 z "},"2":{"ha":783,"x_min":53,"x_max":722,"o":"m 53 0 q 63 113 53 63 q 97 207 72 164 q 163 288 121 250 q 271 361 206 325 q 372 415 328 392 q 444 457 415 438 q 489 497 474 476 q 504 543 504 517 q 471 615 504 585 q 375 644 438 644 q 314 635 342 644 q 262 611 286 626 q 217 577 238 596 q 181 538 197 558 l 61 675 q 113 717 79 694 q 191 760 146 740 q 291 794 236 781 q 408 807 346 807 q 535 790 479 807 q 628 741 590 772 q 687 666 667 710 q 707 571 707 622 q 689 485 707 522 q 643 418 671 447 q 583 367 615 389 q 519 329 550 346 q 463 297 494 315 q 399 258 431 279 q 342 213 368 236 q 301 168 315 190 l 722 168 l 722 0 l 53 0 z "},"3":{"ha":775,"x_min":39,"x_max":722,"o":"m 529 328 q 669 245 615 313 q 722 81 722 178 q 697 -37 722 15 q 624 -127 671 -90 q 511 -184 578 -164 q 361 -204 444 -204 q 174 -170 256 -204 q 39 -71 93 -136 l 144 61 q 231 -10 181 15 q 356 -35 281 -35 q 485 -1 440 -35 q 529 101 529 32 q 478 213 529 174 q 322 251 426 251 l 283 251 l 283 390 l 326 390 q 460 428 413 390 q 507 526 507 467 q 468 611 507 583 q 367 639 429 639 q 252 610 303 639 q 169 528 201 581 l 53 658 q 108 716 74 690 q 187 760 143 742 q 282 790 231 779 q 388 800 333 800 q 517 782 458 800 q 617 732 575 764 q 683 655 660 700 q 706 554 706 610 q 693 475 706 513 q 657 407 681 438 q 601 356 633 376 q 529 328 568 335 z "},"4":{"ha":793,"x_min":28,"x_max":742,"o":"m 433 -176 l 433 31 l 28 31 l 28 196 l 493 793 l 619 793 l 619 197 l 742 197 l 742 31 l 619 31 l 619 -176 l 433 -176 m 214 197 l 454 197 l 454 511 l 214 197 z "},"5":{"ha":769,"x_min":40,"x_max":726,"o":"m 403 443 q 532 420 472 443 q 635 356 592 397 q 702 256 678 314 q 726 126 726 197 q 699 -10 726 51 q 624 -115 672 -71 q 508 -183 575 -158 q 364 -207 442 -207 q 170 -161 256 -207 q 40 -36 85 -115 l 147 75 q 244 -11 186 21 q 365 -43 303 -43 q 488 2 440 -43 q 536 122 536 47 q 491 239 536 194 q 376 283 446 283 q 291 263 331 283 q 228 206 251 242 l 65 206 q 71 237 65 210 q 85 306 76 264 q 103 401 93 349 q 124 507 113 453 q 179 793 149 635 l 665 793 l 665 624 l 314 624 l 274 403 q 323 432 290 421 q 403 443 356 443 z "},"6":{"ha":843,"x_min":64,"x_max":788,"o":"m 788 329 q 760 194 788 257 q 683 85 732 132 q 569 13 635 39 q 426 -14 503 -14 q 276 17 343 -14 q 161 106 208 47 q 89 248 114 164 q 64 439 64 332 q 90 677 64 574 q 167 851 117 781 q 288 957 217 921 q 446 993 358 993 q 617 953 539 993 q 750 838 696 913 l 643 721 q 557 803 610 774 q 443 832 504 832 q 294 758 350 832 q 236 550 239 685 q 319 629 265 600 q 443 658 372 658 q 578 633 515 658 q 688 564 642 608 q 761 459 735 519 q 788 329 788 399 m 428 143 q 497 158 464 143 q 556 198 531 172 q 595 258 581 224 q 610 329 610 292 q 595 399 610 367 q 556 457 581 432 q 498 496 531 482 q 428 510 465 510 q 357 496 390 510 q 299 457 324 482 q 260 399 274 432 q 246 329 246 367 q 260 258 246 292 q 300 199 275 224 q 358 158 325 174 q 428 143 390 143 z "},"7":{"ha":779,"x_min":39,"x_max":781,"o":"m 488 640 l 39 640 l 39 810 l 781 810 l 292 -176 l 81 -176 l 488 640 z "},"8":{"ha":839,"x_min":61,"x_max":778,"o":"m 778 292 q 749 167 778 222 q 672 71 721 111 q 557 9 622 31 q 418 -12 492 -12 q 279 10 344 -12 q 165 75 214 33 q 89 174 117 117 q 61 299 61 231 q 75 376 61 340 q 111 440 89 411 q 160 492 133 469 q 215 528 188 514 q 128 603 164 553 q 92 713 92 653 q 122 830 92 779 q 199 915 151 881 q 305 968 247 950 q 419 986 363 986 q 534 969 475 986 q 640 917 593 951 q 718 831 688 882 q 749 714 749 781 q 739 656 749 685 q 712 603 729 628 q 671 560 694 579 q 621 528 647 540 q 679 490 651 513 q 729 437 707 467 q 765 371 751 407 q 778 292 778 335 m 589 303 q 574 365 589 338 q 535 412 560 393 q 481 440 511 431 q 418 450 450 450 q 354 440 385 450 q 301 410 324 429 q 264 363 278 390 q 250 303 250 336 q 265 242 250 269 q 303 196 279 215 q 357 166 326 176 q 419 156 388 156 q 483 167 453 156 q 538 197 514 178 q 575 244 561 217 q 589 303 589 271 m 281 707 q 293 656 281 678 q 326 620 306 635 q 370 598 346 606 q 419 590 394 590 q 468 598 443 590 q 513 621 493 606 q 546 658 533 636 q 558 708 558 679 q 517 790 558 760 q 418 821 476 821 q 321 790 361 821 q 281 707 281 758 z "},"9":{"ha":818,"x_min":44,"x_max":768,"o":"m 44 450 q 72 585 44 522 q 148 694 100 647 q 262 767 196 740 q 404 793 328 793 q 555 763 488 793 q 669 674 622 732 q 742 531 717 615 q 768 340 768 447 q 741 102 768 206 q 665 -72 714 -1 q 544 -178 615 -142 q 386 -214 474 -214 q 214 -174 293 -214 q 81 -58 135 -133 l 188 58 q 274 -24 221 6 q 389 -53 326 -53 q 537 21 482 -53 q 594 229 592 94 q 513 150 567 179 q 388 121 458 121 q 251 146 314 121 q 143 215 189 171 q 71 320 97 260 q 44 450 44 381 m 404 636 q 334 622 367 636 q 276 581 301 607 q 237 522 251 556 q 222 450 222 488 q 237 380 222 413 q 276 322 251 347 q 333 283 300 297 q 404 269 367 269 q 475 283 442 269 q 533 322 508 297 q 572 380 557 347 q 586 450 586 413 q 572 522 586 488 q 532 581 557 556 q 474 621 507 606 q 404 636 442 636 z "}," ":{"ha":333,"x_min":0,"x_max":0,"o":""},"!":{"ha":426,"x_min":121,"x_max":307,"o":"m 121 371 l 121 996 l 307 996 l 307 371 l 121 371 m 121 0 l 121 210 l 307 210 l 307 0 l 121 0 z "},"\"":{"ha":546,"x_min":85,"x_max":461,"o":"m 85 693 l 85 1004 l 243 1004 l 243 693 l 85 693 m 303 693 l 303 1004 l 461 1004 l 461 693 l 303 693 z "},"#":{"ha":1001,"x_min":51,"x_max":951,"o":"m 951 589 l 749 589 l 704 399 l 886 399 l 886 260 l 671 260 l 607 0 l 457 0 l 522 260 l 356 260 l 293 0 l 143 0 l 207 260 l 51 260 l 51 399 l 240 399 l 286 589 l 117 589 l 117 719 l 318 719 l 383 986 l 533 986 l 467 719 l 633 719 l 697 986 l 847 986 l 782 719 l 951 719 l 951 589 m 556 399 l 600 589 l 435 589 l 389 399 l 556 399 z "},"$":{"ha":881,"x_min":47,"x_max":826,"o":"m 707 728 q 676 751 699 738 q 622 780 653 765 q 553 806 590 794 q 475 822 515 818 l 475 582 l 510 574 q 641 532 582 554 q 741 476 700 510 q 804 397 782 443 q 826 282 826 350 q 799 151 826 206 q 726 63 772 97 q 617 10 679 28 q 488 -10 556 -7 l 488 -162 l 404 -162 l 404 -8 q 215 31 307 -1 q 47 117 122 64 l 132 282 q 170 253 143 271 q 235 217 197 235 q 320 185 274 200 q 417 164 367 169 l 417 403 q 392 409 404 406 q 367 417 379 413 q 244 459 296 436 q 157 513 192 482 q 105 585 122 544 q 88 683 88 626 q 112 808 88 753 q 178 901 136 863 q 279 963 221 940 q 404 990 338 985 l 404 1132 l 488 1132 l 488 992 q 656 954 579 985 q 792 883 733 924 l 707 728 m 622 263 q 583 336 622 310 q 475 385 544 363 l 475 161 q 622 263 622 165 m 285 714 q 317 642 285 667 q 417 599 350 618 l 417 824 q 285 714 285 815 z "},"S":{"ha":851,"x_min":31,"x_max":810,"o":"m 690 728 q 655 754 681 738 q 592 787 629 771 q 513 814 556 803 q 425 825 469 825 q 307 796 346 825 q 268 714 268 767 q 283 663 268 683 q 325 628 297 643 q 395 600 353 613 q 493 574 438 588 q 624 532 565 554 q 724 476 683 510 q 788 397 765 443 q 810 282 810 350 q 780 147 810 203 q 699 56 750 90 q 583 5 649 21 q 444 -11 517 -11 q 225 22 333 -11 q 31 117 117 56 l 115 282 q 160 249 128 269 q 238 209 193 229 q 336 175 282 189 q 447 161 390 161 q 606 263 606 161 q 588 317 606 294 q 536 356 569 339 q 456 386 503 372 q 350 417 408 400 q 227 459 279 436 q 140 513 175 482 q 88 585 106 544 q 71 683 71 626 q 99 817 71 758 q 176 914 126 875 q 290 973 225 953 q 431 993 356 993 q 622 960 535 993 q 775 883 710 928 l 690 728 z "},"%":{"ha":1092,"x_min":49,"x_max":1043,"o":"m 278 579 q 188 596 229 579 q 115 641 146 613 q 67 708 85 669 q 49 790 49 746 q 67 872 49 833 q 115 939 85 911 q 188 983 146 967 q 278 1000 229 1000 q 367 983 325 1000 q 440 939 410 967 q 489 872 471 911 q 507 790 507 833 q 489 708 507 746 q 440 641 471 669 q 367 596 410 613 q 278 579 325 579 m 278 672 q 316 682 299 672 q 347 708 333 692 q 369 745 361 724 q 376 790 376 767 q 347 873 376 839 q 278 907 318 907 q 240 897 257 907 q 208 872 222 888 q 187 835 194 856 q 179 790 179 814 q 208 707 179 742 q 278 672 238 672 m 814 -14 q 724 3 765 -14 q 651 47 682 19 q 603 113 621 75 q 585 196 585 151 q 603 278 585 240 q 651 345 621 317 q 724 390 682 374 q 814 407 765 407 q 904 390 863 407 q 977 345 946 374 q 1026 278 1008 317 q 1043 196 1043 240 q 1026 113 1043 151 q 977 47 1008 75 q 904 3 946 19 q 814 -14 863 -14 m 814 79 q 852 89 835 79 q 883 115 869 99 q 905 151 897 131 q 913 196 913 172 q 904 242 913 221 q 883 280 896 264 q 851 305 869 296 q 814 314 833 314 q 776 304 793 314 q 744 278 758 294 q 723 241 731 263 q 715 196 715 219 q 744 113 715 147 q 814 79 774 79 m 126 65 l 518 522 l 879 997 l 964 922 l 585 474 l 211 -10 l 126 65 z "},"⁄":{"ha":278,"x_min":-281,"x_max":557,"o":"m -281 65 l 111 522 l 472 997 l 557 922 l 178 474 l -196 -10 l -281 65 z "},"&":{"ha":989,"x_min":56,"x_max":989,"o":"m 744 0 l 667 82 q 535 10 606 35 q 389 -14 464 -14 q 251 10 313 -14 q 146 74 189 33 q 79 167 103 114 q 56 279 56 221 q 69 364 56 325 q 108 435 83 403 q 163 496 132 468 q 229 547 194 524 q 145 662 169 614 q 121 763 121 710 q 142 859 121 815 q 199 934 163 903 q 284 982 235 965 q 392 999 333 999 q 490 985 443 999 q 574 944 538 971 q 632 876 610 917 q 654 781 654 835 q 607 640 654 700 q 486 526 560 579 l 675 329 q 708 426 696 374 q 719 540 719 479 l 871 540 q 847 361 869 442 q 785 214 825 281 l 989 0 l 744 0 m 407 132 q 567 189 493 132 l 339 429 q 263 358 290 394 q 235 278 235 322 q 247 222 235 249 q 283 175 260 194 q 338 144 306 156 q 407 132 369 132 m 290 768 q 294 744 290 756 q 308 718 299 732 q 334 686 318 704 q 375 642 350 668 q 456 709 428 678 q 483 778 483 740 q 458 838 483 815 q 392 861 432 861 q 319 834 347 861 q 290 768 290 807 z "},"'":{"ha":326,"x_min":85,"x_max":243,"o":"m 85 693 l 85 1004 l 243 1004 l 243 693 l 85 693 z "},"(":{"ha":431,"x_min":47,"x_max":396,"o":"m 47 482 q 63 623 47 553 q 108 764 79 693 q 174 906 136 835 q 254 1051 211 978 l 396 992 q 344 901 374 958 q 287 773 314 843 q 240 626 260 703 q 221 478 221 549 q 269 244 221 365 q 392 -6 317 124 l 256 -74 q 174 59 213 -10 q 108 199 136 128 q 64 340 81 269 q 47 482 47 411 z "},")":{"ha":429,"x_min":33,"x_max":382,"o":"m 382 482 q 365 340 382 411 q 321 199 349 269 q 255 59 293 128 q 174 -74 217 -10 l 38 -6 q 161 244 114 124 q 208 478 208 365 q 189 626 208 549 q 142 773 169 703 q 85 901 115 843 q 33 992 56 958 l 176 1051 q 257 906 219 978 q 322 764 294 835 q 366 623 350 693 q 382 482 382 553 z "},"*":{"ha":479,"x_min":71,"x_max":407,"o":"m 104 722 l 169 821 l 71 851 l 96 932 l 197 889 l 190 996 l 289 996 l 282 889 l 382 932 l 407 851 l 310 821 l 375 722 l 303 675 l 240 779 l 176 675 l 104 722 z "},"+":{"ha":585,"x_min":65,"x_max":519,"o":"m 519 568 l 519 418 l 376 418 l 376 261 l 208 261 l 208 418 l 65 418 l 65 568 l 208 568 l 208 725 l 376 725 l 376 568 l 519 568 z "},",":{"ha":322,"x_min":81,"x_max":242,"o":"m 101 -160 l 139 6 l 81 6 l 81 200 l 242 200 l 242 6 l 185 -160 l 101 -160 z "},"-":{"ha":581,"x_min":81,"x_max":501,"o":"m 81 297 l 81 465 l 501 465 l 501 297 l 81 297 z "},".":{"ha":313,"x_min":81,"x_max":233,"o":"m 81 0 l 81 200 l 233 200 l 233 0 l 81 0 z "},"/":{"ha":969,"x_min":38,"x_max":932,"o":"m 932 986 l 243 0 l 38 0 l 725 986 l 932 986 z "},":":{"ha":343,"x_min":96,"x_max":247,"o":"m 96 519 l 96 719 l 247 719 l 247 519 l 96 519 m 96 0 l 96 200 l 247 200 l 247 0 l 96 0 z "},";":{"ha":360,"x_min":99,"x_max":261,"o":"m 100 519 l 100 719 l 253 719 l 253 519 l 100 519 m 119 -160 l 157 6 l 99 6 l 99 200 l 261 200 l 261 6 l 204 -160 l 119 -160 z "},"<":{"ha":715,"x_min":44,"x_max":631,"o":"m 44 400 l 631 754 l 631 557 l 315 360 l 631 171 l 631 -37 l 44 310 l 44 400 z "},"=":{"ha":606,"x_min":86,"x_max":521,"o":"m 86 200 l 86 321 l 521 321 l 521 200 l 86 200 m 86 446 l 86 567 l 521 567 l 521 446 l 86 446 z "},">":{"ha":715,"x_min":85,"x_max":671,"o":"m 671 310 l 85 -37 l 85 171 l 400 360 l 85 557 l 85 754 l 671 400 l 671 310 z "},"?":{"ha":675,"x_min":47,"x_max":626,"o":"m 169 324 q 192 446 169 392 q 283 540 214 500 q 335 569 304 553 q 394 607 365 585 q 444 659 424 629 q 464 728 464 689 q 453 779 464 757 q 424 817 442 801 q 381 840 406 832 q 332 847 357 847 q 276 837 301 847 q 231 810 251 826 q 195 774 211 794 q 168 736 179 754 l 47 819 q 95 896 65 863 q 163 952 125 929 q 246 987 201 975 q 338 999 290 999 q 442 983 390 999 q 534 935 493 968 q 601 849 575 901 q 626 725 626 797 q 616 647 626 681 q 586 585 606 613 q 540 535 567 557 q 481 492 514 513 q 425 460 453 475 q 374 426 397 444 q 337 383 351 407 q 322 324 322 358 l 169 324 m 172 0 l 172 192 l 326 192 l 326 0 l 172 0 z "},"@":{"ha":1174,"x_min":58,"x_max":1104,"o":"m 586 838 q 781 803 688 838 q 947 701 875 768 q 1062 536 1019 635 q 1104 308 1104 438 q 1102 256 1104 289 q 1093 188 1100 224 q 1072 114 1086 151 q 1035 46 1058 76 q 976 -3 1011 15 q 890 -22 940 -22 q 828 -12 853 -22 q 790 15 804 -1 q 768 52 775 32 q 758 92 761 72 q 654 23 715 49 q 522 -3 593 -3 q 364 51 418 -3 q 310 192 310 106 q 333 288 310 249 q 392 350 356 326 q 476 384 429 374 q 569 394 522 394 q 665 384 625 394 q 726 364 706 374 q 719 433 726 401 q 694 488 713 465 q 646 522 676 510 q 568 535 615 535 q 464 518 511 535 q 383 474 417 501 l 347 572 q 586 642 453 642 q 727 614 676 642 q 802 544 778 586 q 832 450 826 501 q 838 351 838 399 l 838 218 q 840 159 838 188 q 849 109 842 131 q 869 74 856 88 q 908 61 883 61 q 969 89 946 61 q 1005 156 992 117 q 1022 239 1018 196 q 1026 311 1026 282 q 994 491 1026 408 q 903 634 961 574 q 763 728 844 694 q 581 763 681 763 q 401 729 482 763 q 260 637 319 696 q 169 497 201 578 q 136 319 136 415 q 167 145 136 226 q 253 3 197 64 q 389 -92 310 -57 q 565 -128 468 -128 q 681 -113 632 -128 q 782 -75 729 -99 l 804 -147 q 685 -189 746 -175 q 563 -203 624 -203 q 367 -165 458 -203 q 206 -59 275 -128 q 98 106 138 10 q 58 319 58 203 q 101 540 58 443 q 217 702 144 636 q 386 803 290 768 q 586 838 482 838 m 654 121 q 708 165 692 139 q 725 224 725 192 l 725 276 q 664 294 706 283 q 569 306 622 306 q 463 281 504 306 q 421 196 421 256 q 451 121 421 149 q 533 93 481 93 q 594 100 561 93 q 654 121 628 107 z "},"A":{"ha":933,"x_min":7,"x_max":928,"o":"m 383 986 l 553 986 l 928 0 l 731 0 l 639 246 l 294 246 l 204 0 l 7 0 l 383 986 m 604 381 l 468 768 l 326 381 l 604 381 z "},"B":{"ha":944,"x_min":103,"x_max":897,"o":"m 897 254 q 872 144 897 192 q 803 65 847 97 q 702 17 760 33 q 579 0 644 0 l 103 0 l 103 986 l 631 986 q 724 964 682 986 q 794 906 765 942 q 840 826 824 871 q 856 735 856 781 q 819 599 856 663 q 714 506 783 536 q 848 416 799 481 q 897 254 897 351 m 704 290 q 695 341 704 317 q 671 383 686 365 q 635 412 656 401 q 589 422 614 422 l 294 422 l 294 163 l 579 163 q 628 172 606 163 q 668 199 651 182 q 694 240 685 217 q 704 290 704 264 m 294 822 l 294 574 l 550 574 q 633 607 599 574 q 667 699 667 640 q 635 789 667 756 q 558 822 604 822 l 294 822 z "},"C":{"ha":953,"x_min":43,"x_max":926,"o":"m 43 500 q 76 678 43 590 q 171 836 108 767 q 324 949 233 906 q 529 992 414 992 q 765 932 665 992 q 913 776 864 872 l 765 675 q 718 745 746 717 q 658 790 690 774 q 592 815 626 807 q 524 822 557 822 q 398 793 451 822 q 309 717 344 764 q 256 612 274 671 q 238 494 238 553 q 258 369 238 429 q 317 263 279 308 q 409 189 356 217 q 526 161 463 161 q 596 169 560 161 q 665 196 632 178 q 725 242 697 214 q 769 311 753 271 l 926 221 q 859 123 903 165 q 760 51 815 81 q 643 7 706 22 q 521 -8 581 -8 q 328 36 415 -8 q 177 152 240 81 q 78 315 114 224 q 43 500 43 406 z "},"D":{"ha":994,"x_min":103,"x_max":947,"o":"m 103 0 l 103 986 l 461 986 q 673 947 582 986 q 825 842 764 908 q 917 685 886 775 q 947 494 947 596 q 913 291 947 382 q 815 135 879 200 q 662 35 751 71 q 461 0 572 0 l 103 0 m 754 494 q 735 625 754 565 q 678 728 715 685 q 585 794 640 771 q 461 818 531 818 l 294 818 l 294 168 l 461 168 q 587 193 532 168 q 678 262 642 218 q 735 365 715 306 q 754 494 754 425 z "},"E":{"ha":835,"x_min":103,"x_max":788,"o":"m 788 168 l 788 0 l 103 0 l 103 986 l 775 986 l 775 818 l 294 818 l 294 581 l 710 581 l 710 425 l 294 425 l 294 168 l 788 168 z "},"F":{"ha":797,"x_min":103,"x_max":765,"o":"m 103 0 l 103 986 l 765 986 l 765 818 l 294 818 l 294 564 l 686 564 l 686 408 l 294 408 l 294 0 l 103 0 z "},"G":{"ha":1007,"x_min":44,"x_max":946,"o":"m 788 111 q 513 -7 669 -7 q 330 32 415 -7 q 181 139 244 71 q 81 299 118 207 q 44 499 44 392 q 81 690 44 600 q 183 847 118 779 q 335 953 247 914 q 525 993 422 993 q 763 935 664 993 q 913 778 863 876 l 769 672 q 665 785 732 746 q 518 824 597 824 q 403 797 456 824 q 315 725 351 771 q 258 619 278 679 q 238 493 238 560 q 260 363 238 424 q 321 258 282 303 q 413 188 360 214 q 529 163 467 163 q 788 297 672 163 l 788 367 l 589 367 l 589 507 l 946 507 l 946 0 l 788 0 l 788 111 z "},"H":{"ha":1035,"x_min":103,"x_max":932,"o":"m 932 986 l 932 0 l 742 0 l 742 421 l 294 421 l 294 0 l 103 0 l 103 986 l 294 986 l 294 588 l 742 588 l 742 986 l 932 986 z "},"I":{"ha":397,"x_min":103,"x_max":294,"o":"m 103 0 l 103 986 l 294 986 l 294 0 l 103 0 z "},"J":{"ha":682,"x_min":10,"x_max":590,"o":"m 53 201 q 118 171 72 188 q 224 154 164 154 q 317 174 282 154 q 369 236 351 194 q 393 340 388 278 q 399 485 399 401 l 399 986 l 590 986 l 590 485 q 578 280 590 372 q 528 122 567 188 q 418 21 490 57 q 224 -15 346 -15 q 10 46 99 -15 l 53 201 z "},"K":{"ha":929,"x_min":103,"x_max":943,"o":"m 103 0 l 103 985 l 294 985 l 294 517 l 708 986 l 919 986 l 542 549 l 943 0 l 728 0 l 421 426 l 294 294 l 294 0 l 103 0 z "},"L":{"ha":811,"x_min":103,"x_max":797,"o":"m 103 0 l 103 986 l 294 986 l 294 168 l 797 168 l 797 0 l 103 0 z "},"M":{"ha":1201,"x_min":103,"x_max":1099,"o":"m 907 0 l 907 653 l 653 167 l 549 167 l 294 653 l 294 0 l 103 0 l 103 986 l 308 986 l 600 425 l 894 986 l 1099 986 l 1099 0 l 907 0 z "},"N":{"ha":1060,"x_min":103,"x_max":957,"o":"m 294 632 l 294 0 l 103 0 l 103 986 l 251 986 l 765 339 l 765 985 l 957 985 l 957 0 l 801 0 l 294 632 z "},"O":{"ha":1050,"x_min":43,"x_max":1006,"o":"m 524 -7 q 327 35 415 -7 q 176 148 239 78 q 78 308 113 218 q 43 493 43 399 q 80 682 43 592 q 181 842 117 772 q 335 952 246 911 q 528 993 424 993 q 723 949 635 993 q 874 835 811 906 q 971 674 936 764 q 1006 490 1006 583 q 969 302 1006 392 q 869 144 933 213 q 717 34 806 75 q 524 -7 628 -7 m 238 493 q 257 369 238 429 q 313 264 276 310 q 403 190 350 218 q 525 163 457 163 q 648 191 594 163 q 738 267 701 219 q 794 373 775 314 q 813 493 813 432 q 792 617 813 557 q 735 722 772 676 q 645 795 699 768 q 525 822 592 822 q 401 794 456 822 q 311 719 347 765 q 256 613 275 672 q 238 493 238 554 z "},"P":{"ha":865,"x_min":103,"x_max":835,"o":"m 103 0 l 103 986 l 521 986 q 647 958 589 986 q 746 883 704 929 q 811 777 788 836 q 835 658 835 718 q 813 537 835 596 q 750 432 790 478 q 653 358 710 386 q 528 331 596 331 l 294 331 l 294 0 l 103 0 m 294 499 l 517 499 q 605 542 569 499 q 640 658 640 585 q 629 726 640 696 q 600 776 618 756 q 558 808 582 797 q 508 818 533 818 l 294 818 l 294 499 z "},"Q":{"ha":1049,"x_min":43,"x_max":1011,"o":"m 774 64 q 657 12 719 31 q 524 -7 594 -7 q 327 36 415 -7 q 176 149 239 79 q 78 308 113 218 q 43 493 43 399 q 80 682 43 592 q 181 842 117 772 q 335 952 246 911 q 528 993 424 993 q 723 949 635 993 q 874 835 811 906 q 971 674 936 764 q 1006 490 1006 583 q 972 307 1006 394 q 876 151 938 219 l 1011 0 l 831 0 l 774 64 m 525 163 q 595 172 563 163 q 656 196 628 181 l 506 365 l 686 365 l 754 289 q 797 386 782 333 q 813 493 813 439 q 792 617 813 557 q 735 722 772 676 q 645 796 699 768 q 525 824 592 824 q 401 795 456 824 q 311 719 347 767 q 256 613 275 672 q 238 493 238 554 q 257 369 238 429 q 313 264 276 310 q 403 190 350 218 q 525 163 457 163 z "},"R":{"ha":924,"x_min":103,"x_max":900,"o":"m 103 0 l 103 986 l 539 986 q 665 958 607 986 q 764 883 722 929 q 829 777 806 836 q 853 658 853 718 q 805 484 853 563 q 675 371 757 406 l 900 0 l 685 0 l 483 331 l 294 331 l 294 0 l 103 0 m 294 499 l 535 499 q 584 511 561 499 q 624 545 607 524 q 650 596 640 567 q 660 658 660 625 q 649 722 660 693 q 619 773 638 751 q 576 806 600 794 q 526 818 551 818 l 294 818 l 294 499 z "},"T":{"ha":860,"x_min":19,"x_max":840,"o":"m 840 818 l 525 818 l 525 0 l 335 0 l 335 818 l 19 818 l 19 986 l 840 986 l 840 818 z "},"U":{"ha":1042,"x_min":89,"x_max":951,"o":"m 519 163 q 634 190 588 163 q 709 263 681 218 q 749 365 738 307 q 761 483 761 422 l 761 986 l 951 986 l 951 483 q 927 293 951 382 q 851 138 903 204 q 717 32 799 71 q 521 -7 635 -7 q 320 34 403 -7 q 186 142 238 75 q 112 299 135 210 q 89 483 89 388 l 89 986 l 281 986 l 281 483 q 292 363 281 421 q 333 261 304 306 q 407 190 361 217 q 519 163 453 163 z "},"V":{"ha":939,"x_min":3,"x_max":936,"o":"m 204 986 l 471 240 l 735 986 l 936 986 l 551 0 l 390 0 l 3 986 l 204 986 z "},"W":{"ha":1463,"x_min":0,"x_max":1464,"o":"m 443 983 l 619 983 l 731 657 l 842 983 l 1019 983 l 851 535 l 976 219 l 1256 986 l 1464 986 l 1063 0 l 901 0 l 731 414 l 560 0 l 399 0 l 0 986 l 206 986 l 486 219 l 608 535 l 443 983 z "},"X":{"ha":897,"x_min":-4,"x_max":901,"o":"m 204 986 l 450 619 l 694 986 l 901 986 l 550 486 l 890 0 l 683 0 l 450 353 l 215 0 l 7 0 l 347 486 l -4 986 l 204 986 z "},"Y":{"ha":917,"x_min":6,"x_max":911,"o":"m 214 986 l 457 511 l 704 986 l 911 986 l 553 344 l 553 0 l 363 0 l 363 347 l 6 986 l 214 986 z "},"Z":{"ha":871,"x_min":42,"x_max":824,"o":"m 42 144 l 599 818 l 57 818 l 57 986 l 819 986 l 819 842 l 281 168 l 824 168 l 824 0 l 42 0 l 42 144 z "},"[":{"ha":439,"x_min":114,"x_max":374,"o":"m 114 -56 l 114 1028 l 374 1028 l 374 879 l 286 879 l 286 93 l 374 93 l 374 -56 l 114 -56 z "},"\\":{"ha":885,"x_min":38,"x_max":849,"o":"m 244 986 l 849 0 l 643 0 l 38 986 l 244 986 z "},"]":{"ha":439,"x_min":64,"x_max":325,"o":"m 64 -56 l 64 93 l 153 93 l 153 879 l 64 879 l 64 1028 l 325 1028 l 325 -56 l 64 -56 z "},"^":{"ha":813,"x_min":54,"x_max":758,"o":"m 54 421 l 329 986 l 485 986 l 758 421 l 606 421 l 407 829 l 204 421 l 54 421 z "},"_":{"ha":660,"x_min":75,"x_max":585,"o":"m 75 -168 l 75 0 l 585 0 l 585 -168 l 75 -168 z "},"`":{"ha":354,"x_min":65,"x_max":314,"o":"m 65 1014 l 238 1014 l 314 849 l 194 813 l 65 1014 z "},"a":{"ha":797,"x_min":35,"x_max":753,"o":"m 283 -14 q 185 3 231 -14 q 106 52 139 21 q 53 125 72 83 q 35 217 35 167 q 58 312 35 268 q 122 386 81 356 q 219 434 163 417 q 344 451 276 451 q 440 443 393 451 q 522 419 486 435 l 522 461 q 481 572 522 533 q 360 611 440 611 q 246 590 301 611 q 132 529 190 569 l 75 647 q 378 740 215 740 q 622 663 535 740 q 708 440 708 586 l 708 214 q 719 172 708 185 q 753 158 729 160 l 753 0 q 671 -10 706 -10 q 590 14 618 -10 q 554 76 561 38 l 550 117 q 432 19 501 53 q 283 -14 363 -14 m 336 122 q 426 139 383 122 q 492 183 468 156 q 522 236 522 207 l 522 319 q 450 340 489 332 q 375 347 411 347 q 257 315 303 347 q 211 232 211 282 q 247 153 211 185 q 336 122 283 122 z "},"b":{"ha":881,"x_min":85,"x_max":839,"o":"m 499 -14 q 350 24 415 -14 q 247 126 285 61 l 247 0 l 85 0 l 85 1014 l 271 1014 l 271 600 q 373 703 310 667 q 521 740 436 740 q 650 710 592 740 q 751 628 708 679 q 816 507 793 576 q 839 361 839 438 q 813 214 839 282 q 742 95 788 146 q 633 15 696 44 q 499 -14 571 -14 m 447 144 q 529 162 492 144 q 593 208 567 179 q 634 276 619 238 q 649 360 649 315 q 635 444 649 404 q 595 515 621 485 q 535 564 569 546 q 458 582 500 582 q 347 541 396 582 q 271 440 297 500 l 271 267 q 299 217 281 239 q 342 178 318 194 q 393 153 365 163 q 447 144 421 144 z "},"c":{"ha":783,"x_min":39,"x_max":754,"o":"m 39 364 q 65 508 39 440 q 142 628 92 576 q 263 710 192 679 q 422 740 333 740 q 626 689 542 740 q 751 554 710 638 l 569 499 q 507 560 546 539 q 421 582 468 582 q 346 566 381 582 q 285 522 311 550 q 245 453 260 493 q 231 364 231 413 q 246 275 231 315 q 287 206 261 235 q 347 160 313 176 q 421 144 382 144 q 513 169 471 144 q 572 231 556 194 l 754 175 q 631 39 717 92 q 424 -14 544 -14 q 264 17 335 -14 q 143 99 193 47 q 66 220 93 151 q 39 364 39 289 z "},"d":{"ha":896,"x_min":40,"x_max":840,"o":"m 386 -14 q 247 15 311 -14 q 138 96 183 44 q 66 216 92 147 q 40 364 40 285 q 65 511 40 443 q 132 631 89 579 q 235 711 175 682 q 365 740 294 740 q 510 701 446 740 q 611 600 575 663 l 611 1014 l 797 1014 l 797 214 q 807 172 797 185 q 840 158 817 160 l 840 0 q 761 -10 792 -10 q 679 15 711 -10 q 643 81 647 40 l 639 126 q 530 22 599 57 q 386 -14 461 -14 m 435 144 q 489 153 461 144 q 540 179 517 163 q 583 218 564 196 q 611 267 601 240 l 611 440 q 580 497 600 471 q 534 541 560 522 q 480 571 508 560 q 424 582 451 582 q 347 564 382 582 q 286 515 311 546 q 247 443 261 483 q 233 360 233 403 q 249 275 233 314 q 290 207 264 236 q 353 161 317 178 q 435 144 390 144 z "},"e":{"ha":832,"x_min":39,"x_max":803,"o":"m 422 -14 q 264 16 335 -14 q 143 97 193 46 q 66 217 93 149 q 39 360 39 285 q 65 506 39 438 q 142 627 92 575 q 263 710 192 679 q 424 740 335 740 q 583 710 513 740 q 702 628 653 679 q 777 508 751 576 q 803 367 803 440 q 802 332 803 349 q 799 304 801 315 l 236 304 q 257 228 240 261 q 300 171 274 194 q 360 135 326 147 q 429 122 393 122 q 534 149 485 122 q 601 221 583 176 l 761 176 q 633 40 721 93 q 422 -14 544 -14 m 611 425 q 551 556 604 507 q 421 606 497 606 q 351 592 383 606 q 293 556 318 579 q 252 499 268 532 q 233 425 236 465 l 611 425 z "},"f":{"ha":514,"x_min":33,"x_max":551,"o":"m 129 0 l 129 547 l 33 547 l 33 689 l 129 689 l 129 733 q 194 949 129 869 q 372 1028 260 1028 q 551 985 461 1028 l 514 844 q 465 863 493 856 q 413 871 436 871 q 315 740 315 871 l 315 689 l 493 689 l 493 547 l 315 547 l 315 0 l 129 0 z "},"g":{"ha":881,"x_min":42,"x_max":797,"o":"m 369 -4 q 236 25 296 -4 q 133 105 176 54 q 65 222 89 156 q 42 364 42 289 q 67 511 42 443 q 136 631 92 579 q 243 711 181 682 q 381 740 306 740 q 529 702 465 740 q 635 600 593 664 l 635 728 l 797 728 l 797 35 q 767 -110 797 -46 q 683 -218 736 -174 q 555 -286 629 -262 q 393 -310 481 -310 q 192 -270 274 -310 q 53 -158 111 -231 l 154 -60 q 259 -140 196 -111 q 393 -169 322 -169 q 476 -158 436 -169 q 546 -121 515 -146 q 594 -57 576 -96 q 611 35 611 -18 l 611 126 q 510 30 575 64 q 369 -4 444 -4 m 432 144 q 490 154 463 144 q 542 181 518 164 q 583 219 565 197 q 611 267 601 242 l 611 440 q 533 543 586 504 q 421 582 479 582 q 343 563 378 582 q 283 513 308 544 q 245 442 258 482 q 232 358 232 401 q 247 275 232 314 q 290 207 263 236 q 353 161 317 178 q 432 144 389 144 z "},"h":{"ha":839,"x_min":85,"x_max":761,"o":"m 761 0 l 575 0 l 575 408 q 543 535 575 494 q 453 576 511 576 q 400 565 428 576 q 347 534 372 554 q 301 486 322 514 q 271 425 281 458 l 271 0 l 85 0 l 85 1014 l 271 1014 l 271 593 q 380 702 311 664 q 532 740 449 740 q 647 716 603 740 q 717 651 692 692 q 751 560 742 611 q 761 454 761 508 l 761 0 z "},"i":{"ha":354,"x_min":85,"x_max":271,"o":"m 85 0 l 85 728 l 271 728 l 271 0 l 85 0 m 85 829 l 85 1014 l 271 1014 l 271 829 l 85 829 z "},"j":{"ha":363,"x_min":-160,"x_max":278,"o":"m 25 -272 q -75 -256 -28 -272 q -160 -207 -122 -240 l -79 -81 q -42 -103 -64 -96 q 3 -111 -19 -111 q 65 -85 39 -111 q 92 -19 92 -60 l 92 728 l 278 728 l 278 -6 q 258 -113 278 -64 q 205 -198 239 -162 q 124 -253 171 -233 q 25 -272 78 -272 m 92 829 l 92 1014 l 278 1014 l 278 829 l 92 829 z "},"k":{"ha":775,"x_min":85,"x_max":781,"o":"m 582 0 l 371 315 l 271 217 l 271 0 l 85 0 l 85 1014 l 271 1014 l 271 399 l 563 726 l 761 726 l 490 418 l 781 0 l 582 0 z "},"l":{"ha":440,"x_min":83,"x_max":444,"o":"m 83 1014 l 269 1014 l 269 233 q 289 171 269 193 q 344 149 308 149 q 381 154 361 149 q 419 168 401 160 l 444 26 q 357 -1 407 8 q 267 -11 307 -11 q 131 35 179 -11 q 83 168 83 82 l 83 1014 z "},"m":{"ha":1293,"x_min":85,"x_max":1215,"o":"m 1215 0 l 1029 0 l 1029 408 q 999 536 1029 496 q 917 576 969 576 q 813 534 861 576 q 743 424 764 492 l 743 0 l 557 0 l 557 408 q 527 536 557 496 q 444 576 497 576 q 341 535 390 576 q 271 425 292 493 l 271 0 l 85 0 l 85 728 l 253 728 l 253 593 q 363 702 293 664 q 524 740 433 740 q 665 696 615 740 q 729 586 715 651 q 842 701 774 661 q 997 740 910 740 q 1107 715 1064 740 q 1174 650 1150 690 q 1206 558 1197 610 q 1215 454 1215 507 l 1215 0 z "},"n":{"ha":839,"x_min":85,"x_max":761,"o":"m 761 0 l 575 0 l 575 408 q 544 536 575 496 q 460 576 514 576 q 403 565 432 576 q 348 534 374 554 q 301 486 322 514 q 271 425 281 458 l 271 0 l 85 0 l 85 728 l 253 728 l 253 593 q 369 701 293 663 q 542 740 446 740 q 653 715 610 740 q 719 650 696 690 q 752 558 743 610 q 761 454 761 507 l 761 0 z "},"o":{"ha":842,"x_min":39,"x_max":801,"o":"m 421 -14 q 261 17 332 -14 q 141 99 190 47 q 65 219 92 151 q 39 363 39 288 q 65 507 39 439 q 141 627 92 575 q 261 710 190 679 q 421 740 332 740 q 580 710 510 740 q 699 627 650 679 q 775 507 749 575 q 801 363 801 439 q 775 219 801 288 q 700 99 749 151 q 581 17 651 47 q 421 -14 510 -14 m 231 363 q 245 274 231 314 q 285 206 260 235 q 346 160 311 176 q 421 144 381 144 q 496 160 461 144 q 556 206 531 176 q 597 275 582 235 q 611 364 611 315 q 597 451 611 411 q 556 521 582 492 q 496 566 531 550 q 421 582 461 582 q 346 565 381 582 q 285 519 311 549 q 245 450 260 490 q 231 363 231 410 z "},"p":{"ha":881,"x_min":85,"x_max":839,"o":"m 521 -14 q 371 24 435 -14 q 271 128 307 63 l 271 -296 l 85 -296 l 85 728 l 247 728 l 247 603 q 351 703 288 667 q 499 740 415 740 q 635 710 572 740 q 742 630 697 681 q 813 510 788 579 q 839 365 839 442 q 815 217 839 286 q 749 96 792 147 q 649 15 707 44 q 521 -14 590 -14 m 458 144 q 535 163 500 144 q 596 211 571 181 q 635 282 621 242 q 649 365 649 322 q 633 451 649 411 q 591 519 618 490 q 527 565 564 549 q 447 582 490 582 q 393 573 421 582 q 342 547 365 564 q 299 508 318 531 q 271 460 281 486 l 271 289 q 347 185 296 226 q 458 144 399 144 z "},"q":{"ha":881,"x_min":42,"x_max":846,"o":"m 360 -14 q 232 16 290 -14 q 131 97 174 46 q 65 217 89 149 q 42 365 42 286 q 67 513 42 444 q 139 631 93 581 q 247 711 185 682 q 382 740 310 740 q 529 702 465 740 q 633 601 593 664 l 633 728 l 796 728 l 796 -72 q 807 -115 796 -103 q 846 -128 818 -126 l 846 -286 q 794 -292 822 -290 q 744 -294 767 -294 q 692 -285 717 -294 q 650 -258 668 -275 q 621 -219 632 -242 q 610 -168 610 -196 l 610 128 q 506 22 569 57 q 360 -14 442 -14 m 429 144 q 533 178 489 144 q 610 264 578 211 l 610 436 q 583 493 601 467 q 539 540 564 519 q 485 571 514 560 q 426 582 456 582 q 348 564 383 582 q 287 515 313 546 q 247 443 261 483 q 232 360 232 403 q 247 275 232 314 q 287 207 261 236 q 349 161 313 178 q 429 144 385 144 z "},"r":{"ha":538,"x_min":85,"x_max":518,"o":"m 518 567 q 367 534 433 565 q 271 440 300 503 l 271 0 l 85 0 l 85 728 l 256 728 l 256 572 q 301 640 275 610 q 358 692 328 669 q 420 726 389 714 q 481 738 451 738 q 503 738 496 738 q 518 736 511 738 l 518 567 z "},"s":{"ha":690,"x_min":31,"x_max":654,"o":"m 360 -14 q 181 15 268 -14 q 31 99 93 44 l 100 215 q 230 144 167 168 q 356 119 293 119 q 443 140 411 119 q 475 200 475 161 q 438 257 475 239 q 315 299 400 275 q 194 336 244 318 q 114 377 144 354 q 69 430 83 400 q 56 501 56 460 q 77 601 56 557 q 138 677 99 646 q 228 725 176 708 q 342 742 281 742 q 495 718 424 742 q 626 642 567 694 l 551 529 q 444 590 496 571 q 340 610 392 610 q 261 590 293 610 q 229 528 229 571 q 237 496 229 508 q 261 474 244 483 q 305 455 278 464 q 372 436 332 446 q 501 397 447 417 q 588 353 554 378 q 638 295 622 328 q 654 217 654 263 q 575 48 654 110 q 360 -14 496 -14 z "},"t":{"ha":533,"x_min":31,"x_max":521,"o":"m 521 38 q 429 4 483 21 q 315 -12 375 -12 q 242 -3 276 -12 q 183 28 208 7 q 142 84 157 50 q 126 167 126 118 l 126 585 l 31 585 l 31 728 l 126 728 l 126 964 l 313 964 l 313 728 l 465 728 l 465 585 l 313 585 l 313 229 q 333 174 313 190 q 382 158 353 158 q 439 168 411 158 q 483 185 467 178 l 521 38 z "},"u":{"ha":858,"x_min":78,"x_max":803,"o":"m 307 -14 q 136 58 194 -14 q 78 272 78 131 l 78 728 l 264 728 l 264 313 q 385 144 264 144 q 490 177 439 144 q 572 276 540 210 l 572 728 l 758 728 l 758 214 q 769 172 758 185 q 803 158 779 160 l 803 0 q 756 -7 775 -6 q 722 -8 738 -8 q 641 15 672 -8 q 604 78 610 38 l 600 136 q 475 24 551 61 q 307 -14 399 -14 z "},"v":{"ha":763,"x_min":13,"x_max":750,"o":"m 281 0 l 13 728 l 204 728 l 389 151 l 575 728 l 750 728 l 482 0 l 281 0 z "},"w":{"ha":1165,"x_min":3,"x_max":1164,"o":"m 988 728 l 1164 728 l 860 0 l 707 0 l 582 319 l 458 0 l 306 0 l 3 728 l 178 728 l 394 175 l 483 411 l 356 726 l 506 726 l 582 503 l 660 726 l 810 726 l 683 411 l 771 175 l 988 728 z "},"x":{"ha":738,"x_min":6,"x_max":733,"o":"m 200 728 l 357 500 l 368 475 l 382 500 l 538 728 l 729 728 l 469 363 l 733 0 l 542 0 l 381 226 l 368 250 l 357 226 l 197 0 l 6 0 l 268 363 l 10 728 l 200 728 z "},"y":{"ha":764,"x_min":8,"x_max":747,"o":"m 100 -142 q 146 -152 124 -149 q 183 -156 168 -156 q 217 -149 201 -156 q 244 -124 232 -142 q 269 -76 257 -107 q 296 0 282 -46 l 8 728 l 200 728 l 397 161 l 572 728 l 747 728 l 442 -144 q 351 -269 415 -221 q 193 -318 288 -318 q 148 -315 171 -318 q 100 -303 125 -311 l 100 -142 z "},"z":{"ha":685,"x_min":36,"x_max":644,"o":"m 36 114 l 442 597 l 53 597 l 53 728 l 638 728 l 638 614 l 235 131 l 644 131 l 644 0 l 36 0 l 36 114 z "},"{":{"ha":440,"x_min":58,"x_max":371,"o":"m 294 879 l 294 596 q 282 544 294 568 q 247 500 269 519 q 281 456 268 481 q 294 404 294 432 l 294 106 l 371 106 l 371 -43 l 160 -43 q 139 -35 150 -43 q 128 -1 128 -26 l 128 343 q 107 405 128 379 q 58 436 86 431 l 58 567 q 85 575 72 567 q 108 597 99 583 q 122 626 117 611 q 128 657 128 642 l 128 986 q 140 1020 128 1013 q 160 1028 151 1028 l 371 1028 l 371 879 l 294 879 z "},"|":{"ha":378,"x_min":110,"x_max":268,"o":"m 110 -181 l 110 1076 l 268 1076 l 268 -181 l 110 -181 z "},"}":{"ha":440,"x_min":69,"x_max":383,"o":"m 69 879 l 69 1028 l 282 1028 q 301 1020 289 1028 q 314 986 314 1013 l 314 657 q 319 626 314 642 q 334 597 325 611 q 356 575 343 583 q 383 567 368 567 l 383 436 q 335 405 356 431 q 314 343 314 379 l 314 -1 q 302 -35 314 -26 q 282 -43 290 -43 l 69 -43 l 69 106 l 146 106 l 146 404 q 159 456 146 432 q 194 500 172 481 q 159 544 172 519 q 146 596 146 568 l 146 879 l 69 879 z "},"~":{"ha":788,"x_min":78,"x_max":714,"o":"m 78 317 q 88 359 78 329 q 119 420 97 389 q 179 476 142 451 q 271 500 217 500 q 340 488 308 500 q 399 463 371 476 q 456 437 428 449 q 515 425 483 425 q 563 435 544 425 q 592 458 582 446 q 607 483 603 471 q 611 497 611 494 l 714 497 q 704 461 714 490 q 672 400 694 432 q 610 342 649 368 q 514 317 571 317 q 444 328 476 317 q 383 353 413 339 q 326 378 354 367 q 269 389 299 389 q 223 378 240 389 q 197 353 206 367 q 184 329 188 340 q 181 317 181 318 l 78 317 l 78 317 z "}," ":{"ha":333,"x_min":0,"x_max":0,"o":""},"¡":{"ha":424,"x_min":119,"x_max":306,"o":"m 306 618 l 306 -7 l 119 -7 l 119 618 l 306 618 m 306 989 l 306 779 l 119 779 l 119 989 l 306 989 z "},"¢":{"ha":822,"x_min":54,"x_max":771,"o":"m 383 -167 l 383 -12 q 251 27 311 -7 q 147 113 190 61 q 78 228 103 164 q 54 358 54 292 q 76 493 54 429 q 140 608 97 557 q 243 693 182 658 q 383 739 304 728 l 383 896 l 467 896 l 467 739 q 643 689 564 736 q 767 554 722 642 l 586 499 q 535 554 567 535 q 467 576 503 574 l 467 149 q 541 177 504 156 q 589 231 578 199 l 771 175 q 714 92 750 128 q 635 33 678 57 q 547 -2 592 10 q 467 -14 503 -14 l 467 -167 l 383 -167 m 246 358 q 256 292 246 324 q 283 233 265 260 q 326 187 301 207 q 383 157 351 167 l 383 568 q 326 542 351 561 q 282 494 300 522 q 255 431 264 465 q 246 358 246 396 z "},"£":{"ha":757,"x_min":71,"x_max":706,"o":"m 79 529 l 179 529 q 130 635 154 582 q 106 746 106 688 q 128 842 106 797 q 189 921 150 888 q 280 974 228 954 q 392 993 332 993 q 552 954 476 993 q 679 847 628 915 l 582 733 q 494 812 547 782 q 389 842 440 842 q 305 809 338 842 q 272 728 272 776 q 280 681 272 704 q 299 633 288 657 q 323 583 310 608 q 347 529 336 557 l 603 529 l 603 389 l 378 389 q 352 267 378 324 q 261 144 326 211 q 317 158 292 154 q 367 161 343 161 q 463 149 418 161 q 556 138 508 138 q 604 143 581 138 q 660 160 628 149 l 706 21 q 628 -10 671 1 q 546 -21 586 -21 q 483 -15 514 -21 q 419 -1 451 -8 q 355 13 388 7 q 289 19 322 19 q 204 11 253 19 q 111 -11 156 3 l 71 121 q 183 247 146 183 q 219 389 219 311 l 79 389 l 79 529 z "},"¤":{"ha":767,"x_min":64,"x_max":703,"o":"m 236 688 q 303 718 267 707 q 385 729 340 729 q 463 719 426 729 q 531 689 500 708 l 626 788 l 703 711 l 608 618 q 651 468 651 551 q 607 319 651 385 l 703 225 l 633 156 l 533 250 q 466 220 503 231 q 385 210 429 210 q 302 221 340 210 q 233 251 264 232 l 132 156 l 64 225 l 160 321 q 117 468 117 388 q 158 615 117 553 l 64 711 l 139 788 l 236 688 m 254 468 q 292 366 254 406 q 385 326 329 326 q 477 367 440 326 q 514 469 514 407 q 477 572 514 532 q 385 611 440 611 q 292 571 329 611 q 254 468 254 531 z "},"¥":{"ha":989,"x_min":40,"x_max":946,"o":"m 701 558 l 803 558 l 803 438 l 636 438 l 586 344 l 586 303 l 804 303 l 804 182 l 586 182 l 586 0 l 396 0 l 396 182 l 181 182 l 181 303 l 396 303 l 396 347 l 349 438 l 182 438 l 182 558 l 285 558 l 40 986 l 247 986 l 492 511 l 738 986 l 946 986 l 701 558 z "},"¦":{"ha":382,"x_min":113,"x_max":271,"o":"m 271 367 l 271 -181 l 113 -181 l 113 367 l 271 367 m 271 1076 l 271 529 l 113 529 l 113 1076 l 271 1076 z "},"§":{"ha":739,"x_min":60,"x_max":682,"o":"m 633 299 q 669 244 656 279 q 682 157 682 210 q 651 28 682 82 q 575 -58 621 -25 q 475 -107 529 -92 q 374 -122 421 -122 q 271 -107 318 -122 q 185 -69 224 -92 q 119 -22 147 -47 q 74 22 90 3 l 193 136 q 277 73 235 92 q 365 54 319 54 q 411 60 389 54 q 451 79 433 67 q 478 109 468 92 q 489 150 489 126 q 478 190 489 175 q 452 212 468 204 q 417 222 436 219 q 378 226 397 225 q 165 301 239 236 q 90 474 90 367 q 100 538 90 514 q 117 576 110 563 q 78 635 97 596 q 60 729 60 675 q 83 831 60 783 q 146 915 106 879 q 239 972 186 951 q 353 993 292 993 q 460 976 413 993 q 542 933 507 958 q 603 877 578 907 q 647 822 629 847 l 504 754 q 448 809 485 790 q 364 828 411 828 q 281 802 314 828 q 247 732 247 776 q 281 664 247 681 q 364 646 315 647 q 469 632 415 644 q 565 592 522 619 q 635 521 608 565 q 663 413 663 476 q 653 342 663 372 q 633 299 644 313 m 271 449 q 292 390 271 408 q 344 364 314 371 q 406 355 374 357 q 461 344 439 353 q 479 373 472 356 q 486 407 486 390 q 475 449 486 432 q 447 477 464 467 q 409 492 429 488 q 371 496 389 496 q 326 500 347 496 q 293 508 304 504 q 277 483 283 499 q 271 449 271 467 z "},"¨":{"ha":635,"x_min":107,"x_max":528,"o":"m 107 839 l 107 1004 l 261 1004 l 261 839 l 107 839 m 374 839 l 374 1004 l 528 1004 l 528 839 l 374 839 z "},"©":{"ha":1168,"x_min":60,"x_max":1108,"o":"m 579 -10 q 372 28 467 -10 q 207 134 276 67 q 99 293 138 201 q 60 493 60 385 q 99 692 60 600 q 207 850 138 783 q 372 955 276 917 q 579 993 467 993 q 790 955 693 993 q 958 850 888 917 q 1069 692 1029 783 q 1108 493 1108 600 q 1069 293 1108 385 q 958 134 1029 201 q 790 28 888 67 q 579 -10 693 -10 m 579 60 q 758 91 675 60 q 902 180 840 122 q 999 317 964 238 q 1033 492 1033 396 q 999 662 1033 583 q 904 799 965 740 q 760 890 843 857 q 579 924 676 924 q 402 890 483 924 q 261 799 321 857 q 167 662 201 740 q 133 492 133 583 q 167 322 133 400 q 260 185 201 243 q 401 93 319 126 q 579 60 483 60 m 592 161 q 449 187 514 161 q 339 257 385 213 q 267 362 293 301 q 242 493 242 422 q 263 615 242 556 q 328 722 285 675 q 438 796 372 768 q 589 824 503 824 q 779 776 700 824 q 896 646 858 728 l 715 590 q 658 649 694 633 q 588 665 622 665 q 522 651 551 665 q 473 614 493 638 q 442 559 453 590 q 432 493 432 528 q 446 419 432 451 q 482 365 460 386 q 532 331 504 343 q 589 319 560 319 q 665 340 629 319 q 719 397 700 361 l 901 343 q 857 274 885 307 q 790 217 829 242 q 700 176 750 192 q 592 161 650 161 z "},"ª":{"ha":617,"x_min":56,"x_max":550,"o":"m 222 471 q 156 483 186 471 q 103 516 126 494 q 68 567 81 538 q 56 629 56 596 q 71 696 56 665 q 114 748 86 726 q 180 782 142 769 q 264 794 218 794 q 379 772 331 794 l 379 799 q 353 870 379 844 q 275 896 328 896 q 199 882 235 896 q 122 840 163 868 l 81 925 q 288 990 176 990 q 456 938 396 990 q 515 782 515 885 l 515 638 q 523 608 515 617 q 550 597 531 599 l 550 479 q 517 475 532 476 q 489 474 501 474 q 403 535 414 474 l 400 561 q 321 494 367 517 q 222 471 275 471 m 263 571 q 317 581 290 571 q 360 608 344 592 q 379 644 379 625 l 379 699 q 334 711 358 707 q 288 715 310 715 q 213 695 242 715 q 183 642 183 675 q 206 591 183 611 q 263 571 229 571 z "},"«":{"ha":901,"x_min":49,"x_max":819,"o":"m 49 400 l 415 663 l 415 511 l 197 360 l 415 217 l 415 64 l 49 310 l 49 400 m 454 400 l 819 663 l 819 511 l 601 360 l 819 217 l 819 64 l 454 310 l 454 400 z "},"¬":{"ha":850,"x_min":82,"x_max":760,"o":"m 760 556 l 760 147 l 601 147 l 601 389 l 82 389 l 82 556 l 760 556 z "},"­":{"ha":838,"x_min":81,"x_max":758,"o":"m 81 297 l 81 465 l 758 465 l 758 297 l 81 297 z "},"®":{"ha":1168,"x_min":60,"x_max":1108,"o":"m 582 -10 q 374 28 469 -10 q 208 134 278 67 q 99 293 138 201 q 60 493 60 385 q 99 692 60 600 q 208 850 138 783 q 374 955 278 917 q 582 993 469 993 q 791 955 694 993 q 958 850 888 917 q 1069 692 1029 783 q 1108 493 1108 600 q 1069 293 1108 385 q 958 134 1029 201 q 791 28 888 67 q 582 -10 694 -10 m 582 58 q 758 90 676 58 q 901 179 840 122 q 996 316 961 236 q 1031 490 1031 396 q 997 661 1031 582 q 903 799 963 740 q 761 890 843 857 q 582 924 679 924 q 403 890 485 924 q 263 799 322 857 q 171 662 204 740 q 138 493 138 583 q 171 322 138 401 q 263 184 204 243 q 403 92 322 125 q 582 58 485 58 m 357 800 l 628 800 q 706 782 669 800 q 767 735 742 764 q 808 669 793 706 q 822 596 822 633 q 792 489 822 539 q 711 419 761 439 l 854 189 l 706 189 l 578 394 l 489 394 l 489 189 l 357 189 l 357 800 m 617 508 q 672 531 651 508 q 692 596 692 554 q 669 662 692 640 q 614 683 646 683 l 489 683 l 489 508 l 617 508 z "},"¯":{"ha":582,"x_min":83,"x_max":500,"o":"m 83 879 l 83 994 l 500 994 l 500 879 l 83 879 z "},"°":{"ha":396,"x_min":56,"x_max":340,"o":"m 56 868 q 95 966 56 926 q 197 1006 135 1006 q 300 966 260 1006 q 340 868 340 926 q 300 761 340 801 q 197 721 260 721 q 95 762 135 721 q 56 868 56 803 m 160 900 q 146 863 146 883 q 160 828 146 842 q 197 811 179 811 q 235 828 221 811 q 249 863 249 842 q 235 900 249 883 q 218 911 228 907 q 197 915 208 915 q 160 900 178 915 z "},"±":{"ha":656,"x_min":82,"x_max":574,"o":"m 82 39 l 82 189 l 574 189 l 574 39 l 82 39 m 574 597 l 574 449 l 411 449 l 411 272 l 244 272 l 244 449 l 82 449 l 82 597 l 244 597 l 244 774 l 411 774 l 411 597 l 574 597 z "},"²":{"ha":578,"x_min":42,"x_max":532,"o":"m 42 540 q 51 640 42 597 q 83 714 61 682 q 139 770 104 746 q 224 815 174 794 q 288 840 256 828 q 347 868 321 853 q 390 903 374 883 q 407 950 407 922 q 376 1006 407 986 q 288 1025 346 1025 q 183 1003 226 1025 q 117 957 140 981 l 46 1038 q 79 1068 57 1051 q 134 1099 101 1085 q 209 1124 167 1114 q 304 1133 251 1133 q 474 1084 417 1133 q 532 949 532 1035 q 513 871 532 903 q 467 817 494 839 q 408 782 440 796 q 349 760 375 768 q 236 709 278 738 q 194 649 194 681 l 515 649 l 515 540 l 42 540 z "},"³":{"ha":565,"x_min":39,"x_max":518,"o":"m 267 532 q 119 560 179 532 q 39 642 58 589 l 99 724 q 117 697 104 711 q 151 672 131 683 q 200 651 172 660 q 264 643 228 643 q 364 661 322 643 q 406 715 406 679 q 351 774 406 756 q 200 792 296 792 l 167 792 l 167 893 l 199 893 q 335 910 283 893 q 386 965 386 928 q 375 994 386 982 q 347 1015 364 1007 q 310 1026 331 1022 q 268 1031 289 1031 q 174 1012 213 1031 q 111 961 136 993 l 40 1050 q 135 1112 72 1090 q 267 1133 197 1133 q 361 1121 318 1133 q 436 1087 404 1108 q 486 1036 468 1065 q 504 972 504 1007 q 469 892 504 924 q 372 849 435 860 q 479 797 440 839 q 518 697 518 754 q 497 623 518 654 q 440 572 475 592 q 360 542 406 551 q 267 532 314 532 z "},"´":{"ha":354,"x_min":65,"x_max":314,"o":"m 185 813 l 65 849 l 140 1014 l 314 1014 l 185 813 z "},"µ":{"ha":922,"x_min":107,"x_max":839,"o":"m 107 728 l 293 728 l 293 313 q 418 144 293 144 q 520 177 469 144 q 603 276 571 210 l 603 728 l 789 728 l 789 214 q 800 172 789 185 q 839 158 811 160 l 839 0 q 789 -7 810 -6 q 751 -8 768 -8 q 668 17 700 -8 q 633 83 636 42 l 631 136 q 595 85 618 111 q 542 36 572 58 q 477 0 513 14 q 406 -14 442 -14 q 357 -6 378 -14 q 321 15 336 3 q 295 41 306 26 q 281 68 285 56 l 293 -294 l 107 -294 l 107 728 z "},"¶":{"ha":913,"x_min":49,"x_max":849,"o":"m 49 633 q 151 894 49 801 q 440 986 253 986 l 849 986 l 849 847 l 751 847 l 751 -111 l 594 -111 l 594 289 l 524 289 l 524 -111 l 365 -111 l 365 289 q 235 314 293 289 q 135 384 176 339 q 71 492 93 429 q 49 633 49 556 m 204 638 q 251 488 204 542 q 365 428 299 435 l 365 847 q 246 786 288 843 q 204 638 204 729 m 594 847 l 524 847 l 524 428 l 594 428 l 594 847 z "},"·":{"ha":313,"x_min":81,"x_max":233,"o":"m 81 336 l 81 546 l 233 546 l 233 336 l 81 336 z "},"¸":{"ha":453,"x_min":29,"x_max":356,"o":"m 67 -176 q 118 -194 83 -186 q 190 -203 153 -203 q 247 -192 226 -203 q 268 -157 268 -182 q 248 -122 268 -132 q 196 -111 228 -111 q 134 -117 167 -111 q 85 -128 101 -124 l 169 39 l 242 17 l 193 -58 q 215 -54 203 -56 q 238 -53 226 -53 q 321 -76 286 -53 q 356 -150 356 -99 q 312 -237 356 -203 q 178 -272 268 -272 q 94 -264 132 -272 q 29 -244 57 -256 l 67 -176 z "},"¹":{"ha":414,"x_min":44,"x_max":385,"o":"m 385 651 l 385 542 l 67 542 l 67 651 l 175 651 l 175 1014 q 153 992 168 1004 q 119 969 138 981 q 81 951 100 958 q 44 943 61 943 l 44 1053 q 90 1065 67 1053 q 131 1091 113 1076 q 163 1119 150 1106 q 175 1133 175 1132 l 288 1133 l 288 651 l 385 651 z "},"º":{"ha":615,"x_min":50,"x_max":567,"o":"m 308 471 q 199 492 247 471 q 118 549 151 514 q 67 632 85 585 q 50 731 50 679 q 67 831 50 783 q 118 913 85 878 q 199 969 151 949 q 308 990 247 990 q 416 969 368 990 q 497 913 464 949 q 549 831 531 878 q 567 731 567 783 q 549 632 567 679 q 499 549 532 585 q 417 492 465 514 q 308 471 369 471 m 188 729 q 222 627 188 667 q 308 588 257 588 q 394 628 360 588 q 428 731 428 668 q 394 833 428 793 q 308 872 360 872 q 222 833 257 872 q 188 729 188 793 z "},"»":{"ha":901,"x_min":81,"x_max":851,"o":"m 851 310 l 485 64 l 485 217 l 704 360 l 485 511 l 485 663 l 851 400 l 851 310 m 447 310 l 81 64 l 81 217 l 300 360 l 81 511 l 81 663 l 447 400 l 447 310 z "},"¼":{"ha":1293,"x_min":58,"x_max":1244,"o":"m 1050 0 l 1050 129 l 743 129 l 743 236 l 1085 586 l 1160 586 l 1160 238 l 1244 238 l 1244 129 l 1160 129 l 1160 0 l 1050 0 m 850 238 l 1054 238 l 1054 450 l 850 238 m 246 65 l 638 522 l 999 997 l 1083 922 l 704 474 l 331 -10 l 246 65 m 399 533 l 399 425 l 81 425 l 81 533 l 189 533 l 189 896 q 167 874 182 886 q 133 851 151 863 q 94 833 114 840 q 58 825 75 825 l 58 936 q 103 948 81 936 q 145 974 126 960 q 176 1001 164 989 q 189 1015 189 1014 l 301 1015 l 301 533 l 399 533 z "},"½":{"ha":1328,"x_min":57,"x_max":1272,"o":"m 790 0 q 800 99 790 57 q 831 174 810 142 q 886 230 851 206 q 971 275 921 254 q 1033 300 1001 288 q 1091 328 1065 313 q 1133 362 1117 343 q 1149 408 1149 381 q 1119 465 1149 444 q 1032 485 1089 485 q 930 462 972 485 q 864 415 888 439 l 794 496 q 827 526 806 510 q 881 558 849 543 q 956 582 914 572 q 1049 592 997 592 q 1215 543 1158 592 q 1271 407 1271 494 q 1253 331 1271 363 q 1208 278 1235 300 q 1150 244 1182 257 q 1092 222 1118 231 q 986 170 1021 200 q 946 108 951 140 l 1272 108 l 1272 0 l 790 0 m 190 65 l 582 522 l 943 997 l 1028 922 l 649 474 l 275 -10 l 190 65 m 397 533 l 397 425 l 79 425 l 79 533 l 188 533 l 188 896 q 165 874 181 886 q 131 851 150 863 q 93 833 113 840 q 57 825 74 825 l 57 936 q 102 948 79 936 q 144 974 125 960 q 175 1001 163 989 q 188 1015 188 1014 l 300 1015 l 300 533 l 397 533 z "},"¾":{"ha":1304,"x_min":54,"x_max":1254,"o":"m 282 414 q 134 442 194 414 q 54 524 74 471 l 114 606 q 171 552 129 578 q 279 526 213 526 q 379 544 338 526 q 421 597 421 561 q 366 656 421 638 q 215 675 311 675 l 182 675 l 182 776 l 214 776 q 350 793 299 776 q 401 849 401 810 q 390 877 401 865 q 363 897 379 889 q 325 908 346 904 q 283 913 304 913 q 190 894 228 913 q 126 844 151 875 l 56 933 q 150 994 88 974 q 282 1015 213 1015 q 376 1003 333 1015 q 451 969 419 990 q 501 918 483 947 q 519 854 519 889 q 485 774 519 806 q 388 731 450 742 q 494 679 456 721 q 533 581 533 638 q 512 506 533 538 q 456 454 490 475 q 375 424 421 433 q 282 414 329 414 m 1060 0 l 1060 129 l 753 129 l 753 236 l 1094 586 l 1169 586 l 1169 238 l 1254 238 l 1254 129 l 1169 129 l 1169 0 l 1060 0 m 860 238 l 1064 238 l 1064 450 l 860 238 m 288 65 l 679 522 l 1040 997 l 1125 922 l 746 474 l 372 -10 l 288 65 z "},"¿":{"ha":665,"x_min":43,"x_max":622,"o":"m 500 379 q 478 257 500 311 q 386 163 456 203 q 335 134 365 150 q 275 96 304 118 q 226 44 246 74 q 206 -25 206 14 q 217 -76 206 -54 q 246 -114 228 -99 q 288 -137 264 -129 q 338 -144 313 -144 q 393 -134 368 -144 q 438 -108 418 -124 q 474 -72 458 -92 q 501 -33 490 -53 l 622 -117 q 574 -193 604 -160 q 506 -249 544 -226 q 424 -284 468 -272 q 332 -296 379 -296 q 228 -281 279 -296 q 135 -232 176 -265 q 69 -147 94 -199 q 43 -22 43 -94 q 53 56 43 22 q 83 118 64 90 q 129 168 103 146 q 189 211 156 190 q 244 243 217 228 q 295 277 272 258 q 333 319 318 296 q 347 379 347 343 l 500 379 m 497 703 l 497 511 l 343 511 l 343 703 l 497 703 z "},"À":{"ha":933,"x_min":7,"x_max":928,"o":"m 383 986 l 553 986 l 928 0 l 731 0 l 639 246 l 294 246 l 204 0 l 7 0 l 383 986 m 604 381 l 468 768 l 326 381 l 604 381 m 290 1272 l 463 1272 l 539 1107 l 419 1071 l 290 1272 z "},"Á":{"ha":933,"x_min":7,"x_max":928,"o":"m 383 986 l 553 986 l 928 0 l 731 0 l 639 246 l 294 246 l 204 0 l 7 0 l 383 986 m 604 381 l 468 768 l 326 381 l 604 381 m 517 1069 l 397 1106 l 472 1271 l 646 1271 l 517 1069 z "},"Â":{"ha":933,"x_min":7,"x_max":928,"o":"m 383 986 l 553 986 l 928 0 l 731 0 l 639 246 l 294 246 l 204 0 l 7 0 l 383 986 m 604 381 l 468 768 l 326 381 l 604 381 m 253 1131 l 400 1271 l 535 1271 l 682 1131 l 586 1086 l 468 1174 l 350 1086 l 253 1131 z "},"ˆ":{"ha":513,"x_min":42,"x_max":471,"o":"m 42 874 l 189 1014 l 324 1014 l 471 874 l 375 829 l 257 917 l 139 829 l 42 874 z "},"Ã":{"ha":933,"x_min":7,"x_max":928,"o":"m 383 986 l 553 986 l 928 0 l 731 0 l 639 246 l 294 246 l 204 0 l 7 0 l 383 986 m 604 381 l 468 768 l 326 381 l 604 381 m 556 1093 q 500 1103 524 1093 q 456 1124 476 1113 q 416 1146 436 1136 q 374 1156 396 1156 q 337 1146 350 1156 q 317 1124 324 1136 q 308 1101 310 1111 q 307 1089 307 1090 l 204 1089 q 213 1131 204 1101 q 240 1191 221 1161 q 290 1244 258 1221 q 367 1267 321 1267 q 422 1256 399 1267 q 465 1234 444 1246 q 505 1212 485 1222 q 550 1201 525 1201 q 590 1211 575 1201 q 612 1233 604 1221 q 622 1257 619 1246 q 624 1271 624 1268 l 726 1271 q 718 1232 726 1261 q 690 1172 710 1203 q 637 1117 669 1142 q 556 1093 604 1093 z "},"˜":{"ha":607,"x_min":43,"x_max":565,"o":"m 394 836 q 339 846 363 836 q 295 867 315 856 q 255 889 275 879 q 213 899 235 899 q 176 889 189 899 q 156 867 163 879 q 147 844 149 854 q 146 832 146 833 l 43 832 q 51 874 43 844 q 78 934 60 904 q 128 987 97 964 q 206 1010 160 1010 q 260 999 238 1010 q 303 977 283 989 q 344 955 324 965 q 389 944 364 944 q 428 954 414 944 q 451 976 443 964 q 460 1000 458 989 q 463 1014 463 1011 l 565 1014 q 557 975 565 1004 q 528 915 549 946 q 476 860 508 885 q 394 836 443 836 z "},"Ä":{"ha":933,"x_min":7,"x_max":928,"o":"m 383 986 l 553 986 l 928 0 l 731 0 l 639 246 l 294 246 l 204 0 l 7 0 l 383 986 m 604 381 l 468 768 l 326 381 l 604 381 m 257 1097 l 257 1263 l 411 1263 l 411 1097 l 257 1097 m 524 1097 l 524 1263 l 678 1263 l 678 1097 l 524 1097 z "},"Å":{"ha":933,"x_min":7,"x_max":928,"o":"m 383 986 l 553 986 l 928 0 l 731 0 l 639 246 l 294 246 l 204 0 l 7 0 l 383 986 m 604 381 l 468 768 l 326 381 l 604 381 m 332 1164 q 369 1243 332 1215 q 467 1271 406 1271 q 565 1243 528 1271 q 601 1164 601 1215 q 565 1085 601 1113 q 467 1057 528 1057 q 369 1085 406 1057 q 332 1164 332 1113 m 467 1214 q 427 1201 443 1214 q 411 1164 411 1188 q 427 1128 411 1143 q 467 1114 443 1114 q 506 1128 489 1114 q 524 1164 524 1142 q 507 1201 524 1188 q 467 1214 490 1214 z "},"˚":{"ha":364,"x_min":47,"x_max":317,"o":"m 47 907 q 84 986 47 958 q 182 1014 121 1014 q 280 986 243 1014 q 317 907 317 958 q 280 828 317 856 q 182 800 243 800 q 84 828 121 800 q 47 907 47 856 m 182 957 q 142 944 158 957 q 126 907 126 931 q 142 872 126 886 q 182 857 158 857 q 222 871 204 857 q 239 907 239 885 q 222 944 239 931 q 182 957 206 957 z "},"Æ":{"ha":1342,"x_min":-35,"x_max":1294,"o":"m 581 986 l 1282 986 l 1282 818 l 819 818 l 819 586 l 1207 586 l 1207 418 l 819 418 l 819 168 l 1294 168 l 1294 0 l 631 0 l 631 246 l 314 246 l 168 0 l -35 0 l 581 986 m 617 413 l 617 771 l 396 413 l 617 413 z "},"Ç":{"ha":950,"x_min":40,"x_max":924,"o":"m 396 -176 q 447 -194 413 -186 q 519 -203 482 -203 q 576 -192 556 -203 q 597 -157 597 -182 q 577 -122 597 -132 q 525 -111 557 -111 q 463 -117 496 -111 q 414 -128 431 -124 l 475 -6 q 299 50 379 3 q 161 167 218 97 q 72 324 104 238 q 40 500 40 411 q 73 678 40 590 q 168 836 106 767 q 321 949 231 906 q 526 992 411 992 q 762 932 663 992 q 910 776 861 872 l 763 675 q 715 745 743 717 q 656 790 688 774 q 589 815 624 807 q 521 822 554 822 q 395 793 449 822 q 306 717 342 764 q 253 612 271 671 q 235 494 235 553 q 256 369 235 429 q 315 263 276 308 q 406 189 353 217 q 524 161 460 161 q 593 169 557 161 q 662 196 629 178 q 722 242 694 214 q 767 311 750 271 l 924 221 q 863 129 903 169 q 774 60 824 89 q 668 14 725 31 q 556 -7 611 -3 l 522 -58 q 544 -54 532 -56 q 567 -53 556 -53 q 650 -76 615 -53 q 685 -150 685 -99 q 641 -237 685 -203 q 507 -272 597 -272 q 424 -264 461 -272 q 358 -244 386 -256 l 396 -176 z "},"È":{"ha":835,"x_min":103,"x_max":788,"o":"m 788 168 l 788 0 l 103 0 l 103 986 l 775 986 l 775 818 l 294 818 l 294 581 l 710 581 l 710 425 l 294 425 l 294 168 l 788 168 m 275 1272 l 447 1272 l 524 1107 l 404 1071 l 275 1272 z "},"É":{"ha":835,"x_min":103,"x_max":788,"o":"m 501 1069 l 382 1106 l 457 1271 l 631 1271 l 501 1069 m 788 168 l 788 0 l 103 0 l 103 986 l 775 986 l 775 818 l 294 818 l 294 581 l 710 581 l 710 425 l 294 425 l 294 168 l 788 168 z "},"Ê":{"ha":835,"x_min":103,"x_max":788,"o":"m 238 1131 l 385 1271 l 519 1271 l 667 1131 l 571 1086 l 453 1174 l 335 1086 l 238 1131 m 788 168 l 788 0 l 103 0 l 103 986 l 775 986 l 775 818 l 294 818 l 294 581 l 710 581 l 710 425 l 294 425 l 294 168 l 788 168 z "},"Ë":{"ha":835,"x_min":103,"x_max":788,"o":"m 242 1097 l 242 1263 l 396 1263 l 396 1097 l 242 1097 m 508 1097 l 508 1263 l 663 1263 l 663 1097 l 508 1097 m 788 168 l 788 0 l 103 0 l 103 986 l 775 986 l 775 818 l 294 818 l 294 581 l 710 581 l 710 425 l 294 425 l 294 168 l 788 168 z "},"Ì":{"ha":397,"x_min":21,"x_max":294,"o":"m 103 0 l 103 986 l 294 986 l 294 0 l 103 0 m 21 1272 l 193 1272 l 269 1107 l 150 1071 l 21 1272 z "},"Í":{"ha":397,"x_min":103,"x_max":375,"o":"m 103 0 l 103 986 l 294 986 l 294 0 l 103 0 m 246 1069 l 126 1106 l 201 1271 l 375 1271 l 246 1069 z "},"Î":{"ha":397,"x_min":-17,"x_max":413,"o":"m 103 0 l 103 986 l 294 986 l 294 0 l 103 0 m -17 1131 l 131 1271 l 265 1271 l 413 1131 l 317 1086 l 199 1174 l 81 1086 l -17 1131 z "},"Ï":{"ha":397,"x_min":-12,"x_max":408,"o":"m 103 0 l 103 986 l 294 986 l 294 0 l 103 0 m -12 1097 l -12 1263 l 142 1263 l 142 1097 l -12 1097 m 254 1097 l 254 1263 l 408 1263 l 408 1097 l 254 1097 z "},"Ð":{"ha":1001,"x_min":43,"x_max":954,"o":"m 110 0 l 110 426 l 43 426 l 43 565 l 110 565 l 110 986 l 468 986 q 680 947 589 986 q 832 842 771 908 q 924 685 893 775 q 954 494 954 596 q 920 291 954 382 q 822 135 886 200 q 669 35 758 71 q 468 0 579 0 l 110 0 m 761 494 q 742 625 761 565 q 685 728 722 685 q 592 794 647 771 q 468 818 538 818 l 301 818 l 301 565 l 494 565 l 494 426 l 301 426 l 301 168 l 468 168 q 594 193 539 168 q 685 262 649 218 q 742 365 722 306 q 761 494 761 425 z "},"Ñ":{"ha":1060,"x_min":103,"x_max":957,"o":"m 294 632 l 294 0 l 103 0 l 103 986 l 251 986 l 765 339 l 765 985 l 957 985 l 957 0 l 801 0 l 294 632 m 617 1093 q 561 1103 585 1093 q 517 1124 538 1113 q 477 1146 497 1136 q 435 1156 457 1156 q 398 1146 411 1156 q 378 1124 385 1136 q 369 1101 371 1111 q 368 1089 368 1090 l 265 1089 q 274 1131 265 1101 q 301 1191 282 1161 q 351 1244 319 1221 q 428 1267 382 1267 q 483 1256 460 1267 q 526 1234 506 1246 q 566 1212 546 1222 q 611 1201 586 1201 q 651 1211 636 1201 q 673 1233 665 1221 q 683 1257 681 1246 q 685 1271 685 1268 l 788 1271 q 779 1232 788 1261 q 751 1172 771 1203 q 698 1117 731 1142 q 617 1093 665 1093 z "},"Ò":{"ha":1050,"x_min":43,"x_max":1006,"o":"m 524 -7 q 327 35 415 -7 q 176 148 239 78 q 78 308 113 218 q 43 493 43 399 q 80 682 43 592 q 181 842 117 772 q 335 952 246 911 q 528 993 424 993 q 723 949 635 993 q 874 835 811 906 q 971 674 936 764 q 1006 490 1006 583 q 969 302 1006 392 q 869 144 933 213 q 717 34 806 75 q 524 -7 628 -7 m 238 493 q 257 369 238 429 q 313 264 276 310 q 403 190 350 218 q 525 163 457 163 q 648 191 594 163 q 738 267 701 219 q 794 373 775 314 q 813 493 813 432 q 792 617 813 557 q 735 722 772 676 q 645 795 699 768 q 525 822 592 822 q 401 794 456 822 q 311 719 347 765 q 256 613 275 672 q 238 493 238 554 m 353 1272 l 525 1272 l 601 1107 l 482 1071 l 353 1272 z "},"Ó":{"ha":1050,"x_min":43,"x_max":1006,"o":"m 581 1069 l 461 1106 l 536 1271 l 710 1271 l 581 1069 m 524 -7 q 327 35 415 -7 q 176 148 239 78 q 78 308 113 218 q 43 493 43 399 q 80 682 43 592 q 181 842 117 772 q 335 952 246 911 q 528 993 424 993 q 723 949 635 993 q 874 835 811 906 q 971 674 936 764 q 1006 490 1006 583 q 969 302 1006 392 q 869 144 933 213 q 717 34 806 75 q 524 -7 628 -7 m 238 493 q 257 369 238 429 q 313 264 276 310 q 403 190 350 218 q 525 163 457 163 q 648 191 594 163 q 738 267 701 219 q 794 373 775 314 q 813 493 813 432 q 792 617 813 557 q 735 722 772 676 q 645 795 699 768 q 525 822 592 822 q 401 794 456 822 q 311 719 347 765 q 256 613 275 672 q 238 493 238 554 z "},"Ô":{"ha":1050,"x_min":43,"x_max":1006,"o":"m 313 1131 l 460 1271 l 594 1271 l 742 1131 l 646 1086 l 528 1174 l 410 1086 l 313 1131 m 524 -7 q 327 35 415 -7 q 176 148 239 78 q 78 308 113 218 q 43 493 43 399 q 80 682 43 592 q 181 842 117 772 q 335 952 246 911 q 528 993 424 993 q 723 949 635 993 q 874 835 811 906 q 971 674 936 764 q 1006 490 1006 583 q 969 302 1006 392 q 869 144 933 213 q 717 34 806 75 q 524 -7 628 -7 m 238 493 q 257 369 238 429 q 313 264 276 310 q 403 190 350 218 q 525 163 457 163 q 648 191 594 163 q 738 267 701 219 q 794 373 775 314 q 813 493 813 432 q 792 617 813 557 q 735 722 772 676 q 645 795 699 768 q 525 822 592 822 q 401 794 456 822 q 311 719 347 765 q 256 613 275 672 q 238 493 238 554 z "},"Õ":{"ha":1050,"x_min":43,"x_max":1006,"o":"m 524 -7 q 327 35 415 -7 q 176 148 239 78 q 78 308 113 218 q 43 493 43 399 q 80 682 43 592 q 181 842 117 772 q 335 952 246 911 q 528 993 424 993 q 723 949 635 993 q 874 835 811 906 q 971 674 936 764 q 1006 490 1006 583 q 969 302 1006 392 q 869 144 933 213 q 717 34 806 75 q 524 -7 628 -7 m 238 493 q 257 369 238 429 q 313 264 276 310 q 403 190 350 218 q 525 163 457 163 q 648 191 594 163 q 738 267 701 219 q 794 373 775 314 q 813 493 813 432 q 792 617 813 557 q 735 722 772 676 q 645 795 699 768 q 525 822 592 822 q 401 794 456 822 q 311 719 347 765 q 256 613 275 672 q 238 493 238 554 m 617 1093 q 561 1103 585 1093 q 517 1124 538 1113 q 477 1146 497 1136 q 435 1156 457 1156 q 398 1146 411 1156 q 378 1124 385 1136 q 369 1101 371 1111 q 368 1089 368 1090 l 265 1089 q 274 1131 265 1101 q 301 1191 282 1161 q 351 1244 319 1221 q 428 1267 382 1267 q 483 1256 460 1267 q 526 1234 506 1246 q 566 1212 546 1222 q 611 1201 586 1201 q 651 1211 636 1201 q 673 1233 665 1221 q 683 1257 681 1246 q 685 1271 685 1268 l 788 1271 q 779 1232 788 1261 q 751 1172 771 1203 q 698 1117 731 1142 q 617 1093 665 1093 z "},"Ö":{"ha":1050,"x_min":43,"x_max":1006,"o":"m 315 1097 l 315 1263 l 469 1263 l 469 1097 l 315 1097 m 582 1097 l 582 1263 l 736 1263 l 736 1097 l 582 1097 m 524 -7 q 327 35 415 -7 q 176 148 239 78 q 78 308 113 218 q 43 493 43 399 q 80 682 43 592 q 181 842 117 772 q 335 952 246 911 q 528 993 424 993 q 723 949 635 993 q 874 835 811 906 q 971 674 936 764 q 1006 490 1006 583 q 969 302 1006 392 q 869 144 933 213 q 717 34 806 75 q 524 -7 628 -7 m 238 493 q 257 369 238 429 q 313 264 276 310 q 403 190 350 218 q 525 163 457 163 q 648 191 594 163 q 738 267 701 219 q 794 373 775 314 q 813 493 813 432 q 792 617 813 557 q 735 722 772 676 q 645 795 699 768 q 525 822 592 822 q 401 794 456 822 q 311 719 347 765 q 256 613 275 672 q 238 493 238 554 z "},"×":{"ha":663,"x_min":72,"x_max":590,"o":"m 590 239 l 474 124 l 331 267 l 188 124 l 72 240 l 214 382 l 78 519 l 194 635 l 331 499 l 468 636 l 583 519 l 447 382 l 590 239 z "},"Ø":{"ha":1049,"x_min":43,"x_max":1006,"o":"m 972 986 l 869 839 q 970 677 935 768 q 1006 490 1006 586 q 969 302 1006 392 q 869 144 933 213 q 717 34 806 75 q 524 -7 628 -7 q 413 6 465 -7 q 313 42 360 18 l 283 0 l 78 0 l 179 144 q 78 306 114 215 q 43 493 43 397 q 80 682 43 592 q 181 842 117 772 q 335 952 246 911 q 528 993 424 993 q 638 980 586 993 q 735 943 689 967 l 765 986 l 972 986 m 813 493 q 761 683 813 597 l 413 185 q 525 163 465 163 q 648 191 594 163 q 738 267 701 219 q 794 373 775 314 q 813 493 813 432 m 238 493 q 250 391 238 440 q 288 300 263 342 l 635 799 q 525 822 585 822 q 401 794 456 822 q 311 719 347 765 q 256 613 275 672 q 238 493 238 554 z "},"Ù":{"ha":1042,"x_min":89,"x_max":951,"o":"m 519 163 q 634 190 588 163 q 709 263 681 218 q 749 365 738 307 q 761 483 761 422 l 761 986 l 951 986 l 951 483 q 927 293 951 382 q 851 138 903 204 q 717 32 799 71 q 521 -7 635 -7 q 320 34 403 -7 q 186 142 238 75 q 112 299 135 210 q 89 483 89 388 l 89 986 l 281 986 l 281 483 q 292 363 281 421 q 333 261 304 306 q 407 190 361 217 q 519 163 453 163 m 343 1272 l 515 1272 l 592 1107 l 472 1071 l 343 1272 z "},"Ú":{"ha":1042,"x_min":89,"x_max":951,"o":"m 569 1069 l 450 1106 l 525 1271 l 699 1271 l 569 1069 m 519 163 q 634 190 588 163 q 709 263 681 218 q 749 365 738 307 q 761 483 761 422 l 761 986 l 951 986 l 951 483 q 927 293 951 382 q 851 138 903 204 q 717 32 799 71 q 521 -7 635 -7 q 320 34 403 -7 q 186 142 238 75 q 112 299 135 210 q 89 483 89 388 l 89 986 l 281 986 l 281 483 q 292 363 281 421 q 333 261 304 306 q 407 190 361 217 q 519 163 453 163 z "},"Û":{"ha":1042,"x_min":89,"x_max":951,"o":"m 306 1131 l 453 1271 l 588 1271 l 735 1131 l 639 1086 l 521 1174 l 403 1086 l 306 1131 m 519 163 q 634 190 588 163 q 709 263 681 218 q 749 365 738 307 q 761 483 761 422 l 761 986 l 951 986 l 951 483 q 927 293 951 382 q 851 138 903 204 q 717 32 799 71 q 521 -7 635 -7 q 320 34 403 -7 q 186 142 238 75 q 112 299 135 210 q 89 483 89 388 l 89 986 l 281 986 l 281 483 q 292 363 281 421 q 333 261 304 306 q 407 190 361 217 q 519 163 453 163 z "},"Ü":{"ha":1042,"x_min":89,"x_max":951,"o":"m 310 1097 l 310 1263 l 464 1263 l 464 1097 l 310 1097 m 576 1097 l 576 1263 l 731 1263 l 731 1097 l 576 1097 m 519 163 q 634 190 588 163 q 709 263 681 218 q 749 365 738 307 q 761 483 761 422 l 761 986 l 951 986 l 951 483 q 927 293 951 382 q 851 138 903 204 q 717 32 799 71 q 521 -7 635 -7 q 320 34 403 -7 q 186 142 238 75 q 112 299 135 210 q 89 483 89 388 l 89 986 l 281 986 l 281 483 q 292 363 281 421 q 333 261 304 306 q 407 190 361 217 q 519 163 453 163 z "},"Ý":{"ha":917,"x_min":6,"x_max":911,"o":"m 214 986 l 457 511 l 704 986 l 911 986 l 553 344 l 553 0 l 363 0 l 363 347 l 6 986 l 214 986 m 506 1069 l 386 1106 l 461 1271 l 635 1271 l 506 1069 z "},"Þ":{"ha":839,"x_min":103,"x_max":811,"o":"m 497 808 q 623 780 565 808 q 722 706 681 751 q 788 601 764 660 q 811 481 811 542 q 789 358 811 417 q 726 253 767 299 q 630 180 686 207 q 506 153 574 153 l 294 153 l 294 0 l 103 0 l 103 986 l 294 986 l 294 808 l 497 808 m 496 321 q 545 333 522 321 q 585 368 568 346 q 611 419 601 390 q 621 481 621 447 q 610 544 621 515 q 580 595 599 574 q 538 628 561 617 q 488 640 514 640 l 294 640 l 294 321 l 496 321 z "},"ß":{"ha":775,"x_min":85,"x_max":736,"o":"m 343 163 q 422 172 386 163 q 485 199 458 181 q 526 246 511 218 q 542 313 542 274 q 528 376 542 349 q 493 424 515 404 q 442 453 471 443 q 383 463 414 463 l 354 463 l 354 629 l 381 629 q 459 658 431 629 q 488 732 488 686 q 476 781 488 761 q 449 812 465 800 q 414 828 433 824 q 378 833 394 833 q 322 820 344 833 q 286 787 300 807 q 267 742 272 767 q 261 693 261 717 l 261 0 l 85 0 l 85 725 q 108 832 85 783 q 173 916 132 881 q 270 972 214 951 q 393 992 326 992 q 501 976 451 992 q 586 931 550 960 q 643 859 622 901 q 664 764 664 817 q 654 694 664 728 q 628 634 644 661 q 590 587 611 607 q 543 558 568 567 q 685 463 633 533 q 736 292 736 392 q 703 156 736 213 q 617 64 671 100 q 492 10 563 28 q 343 -8 421 -7 l 343 163 z "},"à":{"ha":797,"x_min":35,"x_max":753,"o":"m 283 -14 q 185 3 231 -14 q 106 52 139 21 q 53 125 72 83 q 35 217 35 167 q 58 312 35 268 q 122 386 81 356 q 219 434 163 417 q 344 451 276 451 q 440 443 393 451 q 522 419 486 435 l 522 461 q 481 572 522 533 q 360 611 440 611 q 246 590 301 611 q 132 529 190 569 l 75 647 q 378 740 215 740 q 622 663 535 740 q 708 440 708 586 l 708 214 q 719 172 708 185 q 753 158 729 160 l 753 0 q 671 -10 706 -10 q 590 14 618 -10 q 554 76 561 38 l 550 117 q 432 19 501 53 q 283 -14 363 -14 m 336 122 q 426 139 383 122 q 492 183 468 156 q 522 236 522 207 l 522 319 q 450 340 489 332 q 375 347 411 347 q 257 315 303 347 q 211 232 211 282 q 247 153 211 185 q 336 122 283 122 m 201 1014 l 374 1014 l 450 849 l 331 813 l 201 1014 z "},"á":{"ha":797,"x_min":35,"x_max":753,"o":"m 283 -14 q 185 3 231 -14 q 106 52 139 21 q 53 125 72 83 q 35 217 35 167 q 58 312 35 268 q 122 386 81 356 q 219 434 163 417 q 344 451 276 451 q 440 443 393 451 q 522 419 486 435 l 522 461 q 481 572 522 533 q 360 611 440 611 q 246 590 301 611 q 132 529 190 569 l 75 647 q 378 740 215 740 q 622 663 535 740 q 708 440 708 586 l 708 214 q 719 172 708 185 q 753 158 729 160 l 753 0 q 671 -10 706 -10 q 590 14 618 -10 q 554 76 561 38 l 550 117 q 432 19 501 53 q 283 -14 363 -14 m 336 122 q 426 139 383 122 q 492 183 468 156 q 522 236 522 207 l 522 319 q 450 340 489 332 q 375 347 411 347 q 257 315 303 347 q 211 232 211 282 q 247 153 211 185 q 336 122 283 122 m 426 813 l 307 849 l 382 1014 l 556 1014 l 426 813 z "},"â":{"ha":797,"x_min":35,"x_max":753,"o":"m 283 -14 q 185 3 231 -14 q 106 52 139 21 q 53 125 72 83 q 35 217 35 167 q 58 312 35 268 q 122 386 81 356 q 219 434 163 417 q 344 451 276 451 q 440 443 393 451 q 522 419 486 435 l 522 461 q 481 572 522 533 q 360 611 440 611 q 246 590 301 611 q 132 529 190 569 l 75 647 q 378 740 215 740 q 622 663 535 740 q 708 440 708 586 l 708 214 q 719 172 708 185 q 753 158 729 160 l 753 0 q 671 -10 706 -10 q 590 14 618 -10 q 554 76 561 38 l 550 117 q 432 19 501 53 q 283 -14 363 -14 m 336 122 q 426 139 383 122 q 492 183 468 156 q 522 236 522 207 l 522 319 q 450 340 489 332 q 375 347 411 347 q 257 315 303 347 q 211 232 211 282 q 247 153 211 185 q 336 122 283 122 m 164 874 l 311 1014 l 446 1014 l 593 874 l 497 829 l 379 917 l 261 829 l 164 874 z "},"ã":{"ha":797,"x_min":35,"x_max":753,"o":"m 283 -14 q 185 3 231 -14 q 106 52 139 21 q 53 125 72 83 q 35 217 35 167 q 58 312 35 268 q 122 386 81 356 q 219 434 163 417 q 344 451 276 451 q 440 443 393 451 q 522 419 486 435 l 522 461 q 481 572 522 533 q 360 611 440 611 q 246 590 301 611 q 132 529 190 569 l 75 647 q 378 740 215 740 q 622 663 535 740 q 708 440 708 586 l 708 214 q 719 172 708 185 q 753 158 729 160 l 753 0 q 671 -10 706 -10 q 590 14 618 -10 q 554 76 561 38 l 550 117 q 432 19 501 53 q 283 -14 363 -14 m 336 122 q 426 139 383 122 q 492 183 468 156 q 522 236 522 207 l 522 319 q 450 340 489 332 q 375 347 411 347 q 257 315 303 347 q 211 232 211 282 q 247 153 211 185 q 336 122 283 122 m 465 836 q 410 846 433 836 q 366 867 386 856 q 326 889 346 879 q 283 899 306 899 q 247 889 260 899 q 226 867 233 879 q 218 844 219 854 q 217 832 217 833 l 114 832 q 122 874 114 844 q 149 934 131 904 q 199 987 168 964 q 276 1010 231 1010 q 331 999 308 1010 q 374 977 354 989 q 415 955 394 965 q 460 944 435 944 q 499 954 485 944 q 522 976 514 964 q 531 1000 529 989 q 533 1014 533 1011 l 636 1014 q 628 975 636 1004 q 599 915 619 946 q 547 860 579 885 q 465 836 514 836 z "},"ä":{"ha":797,"x_min":35,"x_max":753,"o":"m 283 -14 q 185 3 231 -14 q 106 52 139 21 q 53 125 72 83 q 35 217 35 167 q 58 312 35 268 q 122 386 81 356 q 219 434 163 417 q 344 451 276 451 q 440 443 393 451 q 522 419 486 435 l 522 461 q 481 572 522 533 q 360 611 440 611 q 246 590 301 611 q 132 529 190 569 l 75 647 q 378 740 215 740 q 622 663 535 740 q 708 440 708 586 l 708 214 q 719 172 708 185 q 753 158 729 160 l 753 0 q 671 -10 706 -10 q 590 14 618 -10 q 554 76 561 38 l 550 117 q 432 19 501 53 q 283 -14 363 -14 m 336 122 q 426 139 383 122 q 492 183 468 156 q 522 236 522 207 l 522 319 q 450 340 489 332 q 375 347 411 347 q 257 315 303 347 q 211 232 211 282 q 247 153 211 185 q 336 122 283 122 m 168 839 l 168 1004 l 322 1004 l 322 839 l 168 839 m 435 839 l 435 1004 l 589 1004 l 589 839 l 435 839 z "},"å":{"ha":797,"x_min":35,"x_max":753,"o":"m 283 -14 q 185 3 231 -14 q 106 52 139 21 q 53 125 72 83 q 35 217 35 167 q 58 312 35 268 q 122 386 81 356 q 219 434 163 417 q 344 451 276 451 q 440 443 393 451 q 522 419 486 435 l 522 461 q 481 572 522 533 q 360 611 440 611 q 246 590 301 611 q 132 529 190 569 l 75 647 q 378 740 215 740 q 622 663 535 740 q 708 440 708 586 l 708 214 q 719 172 708 185 q 753 158 729 160 l 753 0 q 671 -10 706 -10 q 590 14 618 -10 q 554 76 561 38 l 550 117 q 432 19 501 53 q 283 -14 363 -14 m 336 122 q 426 139 383 122 q 492 183 468 156 q 522 236 522 207 l 522 319 q 450 340 489 332 q 375 347 411 347 q 257 315 303 347 q 211 232 211 282 q 247 153 211 185 q 336 122 283 122 m 243 907 q 280 986 243 958 q 378 1014 317 1014 q 476 986 439 1014 q 513 907 513 958 q 476 828 513 856 q 378 800 439 800 q 280 828 317 800 q 243 907 243 856 m 378 957 q 338 944 354 957 q 322 907 322 931 q 338 872 322 886 q 378 857 354 857 q 417 871 400 857 q 435 907 435 885 q 418 944 435 931 q 378 957 401 957 z "},"æ":{"ha":1301,"x_min":35,"x_max":1272,"o":"m 283 -14 q 185 3 231 -14 q 106 52 139 21 q 53 125 72 83 q 35 217 35 167 q 58 312 35 268 q 122 386 81 356 q 219 434 163 417 q 344 451 276 451 q 432 444 389 451 q 508 424 475 438 q 513 455 510 436 q 519 485 515 474 q 360 611 507 611 q 246 590 301 611 q 131 529 190 569 l 74 647 q 378 740 217 740 q 528 713 464 740 q 632 638 592 686 q 743 713 678 685 q 890 740 808 740 q 1050 710 979 740 q 1170 628 1121 679 q 1246 508 1219 576 q 1272 364 1272 440 q 1271 332 1272 349 q 1268 304 1269 315 l 699 304 q 763 170 706 218 q 899 122 821 122 q 1003 149 954 122 q 1071 221 1053 176 l 1231 176 q 1101 40 1190 93 q 892 -14 1013 -14 q 708 27 788 -14 q 579 136 628 68 q 519 68 554 96 q 445 22 485 40 q 363 -6 406 3 q 283 -14 321 -14 m 336 122 q 425 139 383 122 q 492 183 467 156 q 514 208 506 194 q 522 233 522 221 q 517 251 519 239 q 513 277 514 264 q 510 303 511 290 q 508 324 508 317 q 442 341 478 335 q 375 347 407 347 q 256 315 303 347 q 210 232 210 282 q 247 153 210 185 q 336 122 283 122 m 1081 419 q 1020 554 1074 503 q 888 606 967 606 q 756 554 808 606 q 696 419 703 503 l 1081 419 z "},"ç":{"ha":783,"x_min":39,"x_max":754,"o":"m 313 -176 q 364 -194 329 -186 q 436 -203 399 -203 q 493 -192 472 -203 q 514 -157 514 -182 q 494 -122 514 -132 q 442 -111 474 -111 q 380 -117 413 -111 q 331 -128 347 -124 l 389 -12 q 242 26 307 -7 q 133 110 178 58 q 63 226 88 161 q 39 364 39 292 q 65 508 39 440 q 142 628 92 576 q 263 710 192 679 q 422 740 333 740 q 626 689 542 740 q 751 554 710 638 l 569 499 q 507 560 546 539 q 421 582 468 582 q 346 566 381 582 q 285 522 311 550 q 245 453 260 493 q 231 364 231 413 q 246 275 231 315 q 287 206 261 235 q 347 160 313 176 q 421 144 382 144 q 513 169 471 144 q 572 231 556 194 l 754 175 q 646 49 719 100 q 468 -11 572 -1 l 439 -58 q 460 -54 449 -56 q 483 -53 472 -53 q 567 -76 532 -53 q 601 -150 601 -99 q 558 -237 601 -203 q 424 -272 514 -272 q 340 -264 378 -272 q 275 -244 303 -256 l 313 -176 z "},"è":{"ha":832,"x_min":39,"x_max":803,"o":"m 422 -14 q 264 16 335 -14 q 143 97 193 46 q 66 217 93 149 q 39 360 39 285 q 65 506 39 438 q 142 627 92 575 q 263 710 192 679 q 424 740 335 740 q 583 710 513 740 q 702 628 653 679 q 777 508 751 576 q 803 367 803 440 q 802 332 803 349 q 799 304 801 315 l 236 304 q 257 228 240 261 q 300 171 274 194 q 360 135 326 147 q 429 122 393 122 q 534 149 485 122 q 601 221 583 176 l 761 176 q 633 40 721 93 q 422 -14 544 -14 m 611 425 q 551 556 604 507 q 421 606 497 606 q 351 592 383 606 q 293 556 318 579 q 252 499 268 532 q 233 425 236 465 l 611 425 m 243 1014 l 415 1014 l 492 849 l 372 813 l 243 1014 z "},"é":{"ha":832,"x_min":39,"x_max":803,"o":"m 468 813 l 349 849 l 424 1014 l 597 1014 l 468 813 m 422 -14 q 264 16 335 -14 q 143 97 193 46 q 66 217 93 149 q 39 360 39 285 q 65 506 39 438 q 142 627 92 575 q 263 710 192 679 q 424 740 335 740 q 583 710 513 740 q 702 628 653 679 q 777 508 751 576 q 803 367 803 440 q 802 332 803 349 q 799 304 801 315 l 236 304 q 257 228 240 261 q 300 171 274 194 q 360 135 326 147 q 429 122 393 122 q 534 149 485 122 q 601 221 583 176 l 761 176 q 633 40 721 93 q 422 -14 544 -14 m 611 425 q 551 556 604 507 q 421 606 497 606 q 351 592 383 606 q 293 556 318 579 q 252 499 268 532 q 233 425 236 465 l 611 425 z "},"ê":{"ha":832,"x_min":39,"x_max":803,"o":"m 206 874 l 353 1014 l 488 1014 l 635 874 l 539 829 l 421 917 l 303 829 l 206 874 m 422 -14 q 264 16 335 -14 q 143 97 193 46 q 66 217 93 149 q 39 360 39 285 q 65 506 39 438 q 142 627 92 575 q 263 710 192 679 q 424 740 335 740 q 583 710 513 740 q 702 628 653 679 q 777 508 751 576 q 803 367 803 440 q 802 332 803 349 q 799 304 801 315 l 236 304 q 257 228 240 261 q 300 171 274 194 q 360 135 326 147 q 429 122 393 122 q 534 149 485 122 q 601 221 583 176 l 761 176 q 633 40 721 93 q 422 -14 544 -14 m 611 425 q 551 556 604 507 q 421 606 497 606 q 351 592 383 606 q 293 556 318 579 q 252 499 268 532 q 233 425 236 465 l 611 425 z "},"ë":{"ha":832,"x_min":39,"x_max":803,"o":"m 210 839 l 210 1004 l 364 1004 l 364 839 l 210 839 m 476 839 l 476 1004 l 631 1004 l 631 839 l 476 839 m 422 -14 q 264 16 335 -14 q 143 97 193 46 q 66 217 93 149 q 39 360 39 285 q 65 506 39 438 q 142 627 92 575 q 263 710 192 679 q 424 740 335 740 q 583 710 513 740 q 702 628 653 679 q 777 508 751 576 q 803 367 803 440 q 802 332 803 349 q 799 304 801 315 l 236 304 q 257 228 240 261 q 300 171 274 194 q 360 135 326 147 q 429 122 393 122 q 534 149 485 122 q 601 221 583 176 l 761 176 q 633 40 721 93 q 422 -14 544 -14 m 611 425 q 551 556 604 507 q 421 606 497 606 q 351 592 383 606 q 293 556 318 579 q 252 499 268 532 q 233 425 236 465 l 611 425 z "},"ì":{"ha":354,"x_min":0,"x_max":271,"o":"m 85 0 l 85 728 l 271 728 l 271 0 l 85 0 m 0 1014 l 172 1014 l 249 849 l 129 813 l 0 1014 z "},"ı":{"ha":354,"x_min":85,"x_max":271,"o":"m 85 0 l 85 728 l 271 728 l 271 0 l 85 0 z "},"í":{"ha":354,"x_min":85,"x_max":354,"o":"m 225 813 l 106 849 l 181 1014 l 354 1014 l 225 813 m 85 0 l 85 728 l 271 728 l 271 0 l 85 0 z "},"î":{"ha":354,"x_min":-37,"x_max":392,"o":"m -37 874 l 110 1014 l 244 1014 l 392 874 l 296 829 l 178 917 l 60 829 l -37 874 m 85 0 l 85 728 l 271 728 l 271 0 l 85 0 z "},"ï":{"ha":354,"x_min":-33,"x_max":388,"o":"m -33 839 l -33 1004 l 121 1004 l 121 839 l -33 839 m 233 839 l 233 1004 l 388 1004 l 388 839 l 233 839 m 85 0 l 85 728 l 271 728 l 271 0 l 85 0 z "},"ð":{"ha":851,"x_min":43,"x_max":806,"o":"m 731 917 l 632 863 q 763 640 719 761 q 806 403 806 518 q 776 228 806 306 q 697 97 747 151 q 575 15 646 43 q 421 -14 504 -14 q 272 12 340 -14 q 152 83 203 38 q 72 190 101 128 q 43 324 43 251 q 69 453 43 392 q 141 558 96 514 q 247 629 186 603 q 379 656 308 656 q 514 626 451 656 q 615 547 576 596 q 571 676 600 614 q 490 797 542 739 l 361 725 l 307 797 l 425 863 q 326 939 381 901 q 203 1014 272 976 l 442 1014 q 567 928 508 978 l 676 990 l 731 917 m 235 325 q 249 253 235 286 q 289 197 264 221 q 349 158 314 172 q 424 144 383 144 q 500 159 465 144 q 560 199 535 174 q 601 257 586 224 q 615 329 615 290 q 601 400 615 368 q 561 456 586 432 q 501 492 536 479 q 426 506 467 506 q 350 492 385 506 q 290 453 315 478 q 249 397 264 429 q 235 325 235 364 z "},"ñ":{"ha":839,"x_min":85,"x_max":761,"o":"m 761 0 l 575 0 l 575 408 q 544 536 575 496 q 460 576 514 576 q 403 565 432 576 q 348 534 374 554 q 301 486 322 514 q 271 425 281 458 l 271 0 l 85 0 l 85 728 l 253 728 l 253 593 q 369 701 293 663 q 542 740 446 740 q 653 715 610 740 q 719 650 696 690 q 752 558 743 610 q 761 454 761 507 l 761 0 m 526 836 q 471 846 494 836 q 427 867 447 856 q 387 889 407 879 q 344 899 367 899 q 308 889 321 899 q 288 867 294 879 q 279 844 281 854 q 278 832 278 833 l 175 832 q 183 874 175 844 q 210 934 192 904 q 260 987 229 964 q 338 1010 292 1010 q 392 999 369 1010 q 435 977 415 989 q 476 955 456 965 q 521 944 496 944 q 560 954 546 944 q 583 976 575 964 q 592 1000 590 989 q 594 1014 594 1011 l 697 1014 q 689 975 697 1004 q 660 915 681 946 q 608 860 640 885 q 526 836 575 836 z "},"ò":{"ha":842,"x_min":39,"x_max":801,"o":"m 421 -14 q 261 17 332 -14 q 141 99 190 47 q 65 219 92 151 q 39 363 39 288 q 65 507 39 439 q 141 627 92 575 q 261 710 190 679 q 421 740 332 740 q 580 710 510 740 q 699 627 650 679 q 775 507 749 575 q 801 363 801 439 q 775 219 801 288 q 700 99 749 151 q 581 17 651 47 q 421 -14 510 -14 m 231 363 q 245 274 231 314 q 285 206 260 235 q 346 160 311 176 q 421 144 381 144 q 496 160 461 144 q 556 206 531 176 q 597 275 582 235 q 611 364 611 315 q 597 451 611 411 q 556 521 582 492 q 496 566 531 550 q 421 582 461 582 q 346 565 381 582 q 285 519 311 549 q 245 450 260 490 q 231 363 231 410 m 244 1014 l 417 1014 l 493 849 l 374 813 l 244 1014 z "},"ó":{"ha":842,"x_min":39,"x_max":801,"o":"m 468 813 l 349 849 l 424 1014 l 597 1014 l 468 813 m 421 -14 q 261 17 332 -14 q 141 99 190 47 q 65 219 92 151 q 39 363 39 288 q 65 507 39 439 q 141 627 92 575 q 261 710 190 679 q 421 740 332 740 q 580 710 510 740 q 699 627 650 679 q 775 507 749 575 q 801 363 801 439 q 775 219 801 288 q 700 99 749 151 q 581 17 651 47 q 421 -14 510 -14 m 231 363 q 245 274 231 314 q 285 206 260 235 q 346 160 311 176 q 421 144 381 144 q 496 160 461 144 q 556 206 531 176 q 597 275 582 235 q 611 364 611 315 q 597 451 611 411 q 556 521 582 492 q 496 566 531 550 q 421 582 461 582 q 346 565 381 582 q 285 519 311 549 q 245 450 260 490 q 231 363 231 410 z "},"ô":{"ha":842,"x_min":39,"x_max":801,"o":"m 206 874 l 353 1014 l 488 1014 l 635 874 l 539 829 l 421 917 l 303 829 l 206 874 m 421 -14 q 261 17 332 -14 q 141 99 190 47 q 65 219 92 151 q 39 363 39 288 q 65 507 39 439 q 141 627 92 575 q 261 710 190 679 q 421 740 332 740 q 580 710 510 740 q 699 627 650 679 q 775 507 749 575 q 801 363 801 439 q 775 219 801 288 q 700 99 749 151 q 581 17 651 47 q 421 -14 510 -14 m 231 363 q 245 274 231 314 q 285 206 260 235 q 346 160 311 176 q 421 144 381 144 q 496 160 461 144 q 556 206 531 176 q 597 275 582 235 q 611 364 611 315 q 597 451 611 411 q 556 521 582 492 q 496 566 531 550 q 421 582 461 582 q 346 565 381 582 q 285 519 311 549 q 245 450 260 490 q 231 363 231 410 z "},"õ":{"ha":842,"x_min":39,"x_max":801,"o":"m 421 -14 q 261 17 332 -14 q 141 99 190 47 q 65 219 92 151 q 39 363 39 288 q 65 507 39 439 q 141 627 92 575 q 261 710 190 679 q 421 740 332 740 q 580 710 510 740 q 699 627 650 679 q 775 507 749 575 q 801 363 801 439 q 775 219 801 288 q 700 99 749 151 q 581 17 651 47 q 421 -14 510 -14 m 231 363 q 245 274 231 314 q 285 206 260 235 q 346 160 311 176 q 421 144 381 144 q 496 160 461 144 q 556 206 531 176 q 597 275 582 235 q 611 364 611 315 q 597 451 611 411 q 556 521 582 492 q 496 566 531 550 q 421 582 461 582 q 346 565 381 582 q 285 519 311 549 q 245 450 260 490 q 231 363 231 410 m 508 836 q 453 846 476 836 q 409 867 429 856 q 369 889 389 879 q 326 899 349 899 q 290 889 303 899 q 269 867 276 879 q 261 844 263 854 q 260 832 260 833 l 157 832 q 165 874 157 844 q 192 934 174 904 q 242 987 211 964 q 319 1010 274 1010 q 374 999 351 1010 q 417 977 397 989 q 458 955 438 965 q 503 944 478 944 q 542 954 528 944 q 565 976 557 964 q 574 1000 572 989 q 576 1014 576 1011 l 679 1014 q 671 975 679 1004 q 642 915 663 946 q 590 860 622 885 q 508 836 557 836 z "},"ö":{"ha":842,"x_min":39,"x_max":801,"o":"m 210 839 l 210 1004 l 364 1004 l 364 839 l 210 839 m 476 839 l 476 1004 l 631 1004 l 631 839 l 476 839 m 421 -14 q 261 17 332 -14 q 141 99 190 47 q 65 219 92 151 q 39 363 39 288 q 65 507 39 439 q 141 627 92 575 q 261 710 190 679 q 421 740 332 740 q 580 710 510 740 q 699 627 650 679 q 775 507 749 575 q 801 363 801 439 q 775 219 801 288 q 700 99 749 151 q 581 17 651 47 q 421 -14 510 -14 m 231 363 q 245 274 231 314 q 285 206 260 235 q 346 160 311 176 q 421 144 381 144 q 496 160 461 144 q 556 206 531 176 q 597 275 582 235 q 611 364 611 315 q 597 451 611 411 q 556 521 582 492 q 496 566 531 550 q 421 582 461 582 q 346 565 381 582 q 285 519 311 549 q 245 450 260 490 q 231 363 231 410 z "},"÷":{"ha":710,"x_min":75,"x_max":636,"o":"m 278 582 l 278 760 l 435 760 l 435 582 l 278 582 m 278 67 l 278 246 l 435 246 l 435 67 l 278 67 m 75 339 l 75 488 l 636 488 l 636 339 l 75 339 z "},"ø":{"ha":842,"x_min":39,"x_max":801,"o":"m 69 -6 l 150 89 q 67 213 96 142 q 39 363 39 283 q 65 507 39 439 q 141 627 92 575 q 261 710 190 679 q 421 740 332 740 q 529 726 479 740 q 621 689 579 713 l 658 733 l 764 733 l 686 640 q 772 516 742 588 q 801 363 801 444 q 775 219 801 288 q 700 99 749 151 q 581 17 651 47 q 421 -14 510 -14 q 308 0 360 -14 q 214 40 257 14 l 175 -6 l 69 -6 m 421 144 q 496 160 461 144 q 556 206 531 176 q 597 275 582 235 q 611 364 611 315 q 601 440 611 404 q 571 503 590 475 l 319 175 q 421 144 365 144 m 231 363 q 268 226 231 283 l 517 554 q 421 582 474 582 q 346 565 381 582 q 285 519 311 549 q 245 450 260 490 q 231 363 231 410 z "},"ù":{"ha":858,"x_min":78,"x_max":803,"o":"m 307 -14 q 136 58 194 -14 q 78 272 78 131 l 78 728 l 264 728 l 264 313 q 385 144 264 144 q 490 177 439 144 q 572 276 540 210 l 572 728 l 758 728 l 758 214 q 769 172 758 185 q 803 158 779 160 l 803 0 q 756 -7 775 -6 q 722 -8 738 -8 q 641 15 672 -8 q 604 78 610 38 l 600 136 q 475 24 551 61 q 307 -14 399 -14 m 240 1014 l 413 1014 l 489 849 l 369 813 l 240 1014 z "},"ú":{"ha":858,"x_min":78,"x_max":803,"o":"m 465 813 l 346 849 l 421 1014 l 594 1014 l 465 813 m 307 -14 q 136 58 194 -14 q 78 272 78 131 l 78 728 l 264 728 l 264 313 q 385 144 264 144 q 490 177 439 144 q 572 276 540 210 l 572 728 l 758 728 l 758 214 q 769 172 758 185 q 803 158 779 160 l 803 0 q 756 -7 775 -6 q 722 -8 738 -8 q 641 15 672 -8 q 604 78 610 38 l 600 136 q 475 24 551 61 q 307 -14 399 -14 z "},"û":{"ha":858,"x_min":78,"x_max":803,"o":"m 203 874 l 350 1014 l 485 1014 l 632 874 l 536 829 l 418 917 l 300 829 l 203 874 m 307 -14 q 136 58 194 -14 q 78 272 78 131 l 78 728 l 264 728 l 264 313 q 385 144 264 144 q 490 177 439 144 q 572 276 540 210 l 572 728 l 758 728 l 758 214 q 769 172 758 185 q 803 158 779 160 l 803 0 q 756 -7 775 -6 q 722 -8 738 -8 q 641 15 672 -8 q 604 78 610 38 l 600 136 q 475 24 551 61 q 307 -14 399 -14 z "},"ü":{"ha":858,"x_min":78,"x_max":803,"o":"m 207 839 l 207 1004 l 361 1004 l 361 839 l 207 839 m 474 839 l 474 1004 l 628 1004 l 628 839 l 474 839 m 307 -14 q 136 58 194 -14 q 78 272 78 131 l 78 728 l 264 728 l 264 313 q 385 144 264 144 q 490 177 439 144 q 572 276 540 210 l 572 728 l 758 728 l 758 214 q 769 172 758 185 q 803 158 779 160 l 803 0 q 756 -7 775 -6 q 722 -8 738 -8 q 641 15 672 -8 q 604 78 610 38 l 600 136 q 475 24 551 61 q 307 -14 399 -14 z "},"ý":{"ha":764,"x_min":8,"x_max":747,"o":"m 100 -142 q 146 -152 124 -149 q 183 -156 168 -156 q 217 -149 201 -156 q 244 -124 232 -142 q 269 -76 257 -107 q 296 0 282 -46 l 8 728 l 200 728 l 397 161 l 572 728 l 747 728 l 442 -144 q 351 -269 415 -221 q 193 -318 288 -318 q 148 -315 171 -318 q 100 -303 125 -311 l 100 -142 m 446 813 l 326 849 l 401 1014 l 575 1014 l 446 813 z "},"þ":{"ha":835,"x_min":85,"x_max":797,"o":"m 797 356 q 768 208 797 278 q 689 84 739 138 q 573 -1 639 31 q 432 -33 507 -33 q 329 -10 368 -33 q 275 38 290 14 l 275 -296 l 85 -296 l 85 986 l 275 986 l 275 671 q 333 723 294 697 q 443 749 371 749 q 590 714 524 749 q 701 623 656 679 q 772 497 747 567 q 797 356 797 426 m 607 358 q 595 443 607 403 q 560 514 583 483 q 505 563 538 544 q 432 581 472 581 q 338 548 375 581 q 275 467 300 515 l 275 244 q 289 206 275 225 q 324 170 303 186 q 373 144 346 154 q 426 135 400 135 q 499 153 465 135 q 556 201 532 171 q 593 272 579 231 q 607 358 607 313 z "},"ÿ":{"ha":764,"x_min":8,"x_max":747,"o":"m 100 -142 q 146 -152 124 -149 q 183 -156 168 -156 q 217 -149 201 -156 q 244 -124 232 -142 q 269 -76 257 -107 q 296 0 282 -46 l 8 728 l 200 728 l 397 161 l 572 728 l 747 728 l 442 -144 q 351 -269 415 -221 q 193 -318 288 -318 q 148 -315 171 -318 q 100 -303 125 -311 l 100 -142 m 188 839 l 188 1004 l 342 1004 l 342 839 l 188 839 m 454 839 l 454 1004 l 608 1004 l 608 839 l 454 839 z "},"Ā":{"ha":933,"x_min":7,"x_max":928,"o":"m 383 986 l 553 986 l 928 0 l 731 0 l 639 246 l 294 246 l 204 0 l 7 0 l 383 986 m 604 381 l 468 768 l 326 381 l 604 381 m 261 1136 l 261 1251 l 678 1251 l 678 1136 l 261 1136 z "},"ā":{"ha":797,"x_min":35,"x_max":753,"o":"m 283 -14 q 185 3 231 -14 q 106 52 139 21 q 53 125 72 83 q 35 217 35 167 q 58 312 35 268 q 122 386 81 356 q 219 434 163 417 q 344 451 276 451 q 440 443 393 451 q 522 419 486 435 l 522 461 q 481 572 522 533 q 360 611 440 611 q 246 590 301 611 q 132 529 190 569 l 75 647 q 378 740 215 740 q 622 663 535 740 q 708 440 708 586 l 708 214 q 719 172 708 185 q 753 158 729 160 l 753 0 q 671 -10 706 -10 q 590 14 618 -10 q 554 76 561 38 l 550 117 q 432 19 501 53 q 283 -14 363 -14 m 336 122 q 426 139 383 122 q 492 183 468 156 q 522 236 522 207 l 522 319 q 450 340 489 332 q 375 347 411 347 q 257 315 303 347 q 211 232 211 282 q 247 153 211 185 q 336 122 283 122 m 171 879 l 171 994 l 588 994 l 588 879 l 171 879 z "},"Ă":{"ha":933,"x_min":7,"x_max":928,"o":"m 383 986 l 553 986 l 928 0 l 731 0 l 639 246 l 294 246 l 204 0 l 7 0 l 383 986 m 604 381 l 468 768 l 326 381 l 604 381 m 468 1168 q 524 1197 500 1168 q 551 1271 547 1226 l 650 1271 q 636 1197 650 1231 q 599 1138 622 1163 q 541 1099 575 1113 q 468 1085 507 1085 q 394 1099 428 1085 q 338 1138 361 1113 q 300 1197 314 1163 q 286 1271 286 1231 l 386 1271 q 411 1199 386 1229 q 468 1168 436 1168 z "},"˘":{"ha":456,"x_min":46,"x_max":410,"o":"m 228 911 q 283 940 260 911 q 311 1014 307 969 l 410 1014 q 396 940 410 974 q 358 881 382 906 q 301 842 335 856 q 228 828 267 828 q 154 842 188 828 q 97 881 121 856 q 60 940 74 906 q 46 1014 46 974 l 146 1014 q 171 942 146 972 q 228 911 196 911 z "},"ă":{"ha":797,"x_min":35,"x_max":753,"o":"m 283 -14 q 185 3 231 -14 q 106 52 139 21 q 53 125 72 83 q 35 217 35 167 q 58 312 35 268 q 122 386 81 356 q 219 434 163 417 q 344 451 276 451 q 440 443 393 451 q 522 419 486 435 l 522 461 q 481 572 522 533 q 360 611 440 611 q 246 590 301 611 q 132 529 190 569 l 75 647 q 378 740 215 740 q 622 663 535 740 q 708 440 708 586 l 708 214 q 719 172 708 185 q 753 158 729 160 l 753 0 q 671 -10 706 -10 q 590 14 618 -10 q 554 76 561 38 l 550 117 q 432 19 501 53 q 283 -14 363 -14 m 336 122 q 426 139 383 122 q 492 183 468 156 q 522 236 522 207 l 522 319 q 450 340 489 332 q 375 347 411 347 q 257 315 303 347 q 211 232 211 282 q 247 153 211 185 q 336 122 283 122 m 378 911 q 433 940 410 911 q 461 1014 457 969 l 560 1014 q 546 940 560 974 q 508 881 532 906 q 451 842 485 856 q 378 828 417 828 q 304 842 338 828 q 247 881 271 856 q 210 940 224 906 q 196 1014 196 974 l 296 1014 q 321 942 296 972 q 378 911 346 911 z "},"Ą":{"ha":942,"x_min":7,"x_max":928,"o":"m 868 -272 q 748 -228 788 -261 q 708 -151 708 -194 q 821 0 708 -71 l 731 0 l 639 246 l 294 246 l 204 0 l 7 0 l 383 986 l 553 986 l 928 0 q 821 -118 821 -64 q 907 -175 821 -169 l 868 -272 m 604 381 l 468 768 l 326 381 l 604 381 z "},"˛":{"ha":403,"x_min":90,"x_max":310,"o":"m 250 -272 q 130 -228 169 -261 q 90 -151 90 -194 q 131 -59 90 -106 q 256 29 172 -12 l 310 0 q 203 -118 203 -64 q 289 -175 203 -169 l 250 -272 l 250 -272 z "},"ą":{"ha":799,"x_min":35,"x_max":753,"o":"m 693 -272 q 573 -228 613 -261 q 533 -151 533 -194 q 636 -7 533 -75 q 554 76 565 8 l 550 117 q 432 19 501 53 q 283 -14 363 -14 q 185 3 231 -14 q 106 52 139 21 q 53 125 72 83 q 35 217 35 167 q 58 312 35 268 q 122 386 81 356 q 219 434 163 417 q 344 451 276 451 q 440 443 393 451 q 522 419 486 435 l 522 461 q 481 572 522 533 q 360 611 440 611 q 246 590 301 611 q 132 529 190 569 l 75 647 q 378 740 215 740 q 622 663 535 740 q 708 440 708 586 l 708 214 q 719 172 708 185 q 753 158 729 160 l 753 0 q 646 -118 646 -64 q 732 -175 646 -169 l 693 -272 m 336 122 q 426 139 383 122 q 492 183 468 156 q 522 236 522 207 l 522 319 q 450 340 489 332 q 375 347 411 347 q 257 315 303 347 q 211 232 211 282 q 247 153 211 185 q 336 122 283 122 z "},"Ć":{"ha":953,"x_min":43,"x_max":926,"o":"m 579 1069 l 460 1106 l 535 1271 l 708 1271 l 579 1069 m 43 500 q 76 678 43 590 q 171 836 108 767 q 324 949 233 906 q 529 992 414 992 q 765 932 665 992 q 913 776 864 872 l 765 675 q 718 745 746 717 q 658 790 690 774 q 592 815 626 807 q 524 822 557 822 q 398 793 451 822 q 309 717 344 764 q 256 612 274 671 q 238 494 238 553 q 258 369 238 429 q 317 263 279 308 q 409 189 356 217 q 526 161 463 161 q 596 169 560 161 q 665 196 632 178 q 725 242 697 214 q 769 311 753 271 l 926 221 q 859 123 903 165 q 760 51 815 81 q 643 7 706 22 q 521 -8 581 -8 q 328 36 415 -8 q 177 152 240 81 q 78 315 114 224 q 43 500 43 406 z "},"ć":{"ha":783,"x_min":39,"x_max":754,"o":"m 469 813 l 350 849 l 425 1014 l 599 1014 l 469 813 m 39 364 q 65 508 39 440 q 142 628 92 576 q 263 710 192 679 q 422 740 333 740 q 626 689 542 740 q 751 554 710 638 l 569 499 q 507 560 546 539 q 421 582 468 582 q 346 566 381 582 q 285 522 311 550 q 245 453 260 493 q 231 364 231 413 q 246 275 231 315 q 287 206 261 235 q 347 160 313 176 q 421 144 382 144 q 513 169 471 144 q 572 231 556 194 l 754 175 q 631 39 717 92 q 424 -14 544 -14 q 264 17 335 -14 q 143 99 193 47 q 66 220 93 151 q 39 364 39 289 z "},"Ĉ":{"ha":953,"x_min":43,"x_max":926,"o":"m 311 1131 l 458 1271 l 593 1271 l 740 1131 l 644 1086 l 526 1174 l 408 1086 l 311 1131 m 43 500 q 76 678 43 590 q 171 836 108 767 q 324 949 233 906 q 529 992 414 992 q 765 932 665 992 q 913 776 864 872 l 765 675 q 718 745 746 717 q 658 790 690 774 q 592 815 626 807 q 524 822 557 822 q 398 793 451 822 q 309 717 344 764 q 256 612 274 671 q 238 494 238 553 q 258 369 238 429 q 317 263 279 308 q 409 189 356 217 q 526 161 463 161 q 596 169 560 161 q 665 196 632 178 q 725 242 697 214 q 769 311 753 271 l 926 221 q 859 123 903 165 q 760 51 815 81 q 643 7 706 22 q 521 -8 581 -8 q 328 36 415 -8 q 177 152 240 81 q 78 315 114 224 q 43 500 43 406 z "},"ĉ":{"ha":783,"x_min":39,"x_max":754,"o":"m 207 874 l 354 1014 l 489 1014 l 636 874 l 540 829 l 422 917 l 304 829 l 207 874 m 39 364 q 65 508 39 440 q 142 628 92 576 q 263 710 192 679 q 422 740 333 740 q 626 689 542 740 q 751 554 710 638 l 569 499 q 507 560 546 539 q 421 582 468 582 q 346 566 381 582 q 285 522 311 550 q 245 453 260 493 q 231 364 231 413 q 246 275 231 315 q 287 206 261 235 q 347 160 313 176 q 421 144 382 144 q 513 169 471 144 q 572 231 556 194 l 754 175 q 631 39 717 92 q 424 -14 544 -14 q 264 17 335 -14 q 143 99 193 47 q 66 220 93 151 q 39 364 39 289 z "},"Ċ":{"ha":953,"x_min":43,"x_max":926,"o":"m 43 500 q 76 678 43 590 q 171 836 108 767 q 324 949 233 906 q 529 992 414 992 q 765 932 665 992 q 913 776 864 872 l 765 675 q 718 745 746 717 q 658 790 690 774 q 592 815 626 807 q 524 822 557 822 q 398 793 451 822 q 309 717 344 764 q 256 612 274 671 q 238 494 238 553 q 258 369 238 429 q 317 263 279 308 q 409 189 356 217 q 526 161 463 161 q 596 169 560 161 q 665 196 632 178 q 725 242 697 214 q 769 311 753 271 l 926 221 q 859 123 903 165 q 760 51 815 81 q 643 7 706 22 q 521 -8 581 -8 q 328 36 415 -8 q 177 152 240 81 q 78 315 114 224 q 43 500 43 406 m 447 1096 l 447 1271 l 615 1271 l 615 1096 l 447 1096 z "},"˙":{"ha":307,"x_min":69,"x_max":238,"o":"m 69 839 l 69 1014 l 238 1014 l 238 839 l 69 839 z "},"ċ":{"ha":783,"x_min":39,"x_max":754,"o":"m 39 364 q 65 508 39 440 q 142 628 92 576 q 263 710 192 679 q 422 740 333 740 q 626 689 542 740 q 751 554 710 638 l 569 499 q 507 560 546 539 q 421 582 468 582 q 346 566 381 582 q 285 522 311 550 q 245 453 260 493 q 231 364 231 413 q 246 275 231 315 q 287 206 261 235 q 347 160 313 176 q 421 144 382 144 q 513 169 471 144 q 572 231 556 194 l 754 175 q 631 39 717 92 q 424 -14 544 -14 q 264 17 335 -14 q 143 99 193 47 q 66 220 93 151 q 39 364 39 289 m 338 839 l 338 1014 l 506 1014 l 506 839 l 338 839 z "},"Č":{"ha":953,"x_min":43,"x_max":926,"o":"m 417 1271 l 535 1183 l 653 1271 l 749 1226 l 601 1086 l 467 1086 l 319 1226 l 417 1271 m 43 500 q 76 678 43 590 q 171 836 108 767 q 324 949 233 906 q 529 992 414 992 q 765 932 665 992 q 913 776 864 872 l 765 675 q 718 745 746 717 q 658 790 690 774 q 592 815 626 807 q 524 822 557 822 q 398 793 451 822 q 309 717 344 764 q 256 612 274 671 q 238 494 238 553 q 258 369 238 429 q 317 263 279 308 q 409 189 356 217 q 526 161 463 161 q 596 169 560 161 q 665 196 632 178 q 725 242 697 214 q 769 311 753 271 l 926 221 q 859 123 903 165 q 760 51 815 81 q 643 7 706 22 q 521 -8 581 -8 q 328 36 415 -8 q 177 152 240 81 q 78 315 114 224 q 43 500 43 406 z "},"ˇ":{"ha":513,"x_min":42,"x_max":471,"o":"m 139 1014 l 257 926 l 375 1014 l 471 969 l 324 829 l 189 829 l 42 969 l 139 1014 z "},"č":{"ha":783,"x_min":39,"x_max":754,"o":"m 304 1014 l 422 926 l 540 1014 l 636 969 l 489 829 l 354 829 l 207 969 l 304 1014 m 39 364 q 65 508 39 440 q 142 628 92 576 q 263 710 192 679 q 422 740 333 740 q 626 689 542 740 q 751 554 710 638 l 569 499 q 507 560 546 539 q 421 582 468 582 q 346 566 381 582 q 285 522 311 550 q 245 453 260 493 q 231 364 231 413 q 246 275 231 315 q 287 206 261 235 q 347 160 313 176 q 421 144 382 144 q 513 169 471 144 q 572 231 556 194 l 754 175 q 631 39 717 92 q 424 -14 544 -14 q 264 17 335 -14 q 143 99 193 47 q 66 220 93 151 q 39 364 39 289 z "},"Ď":{"ha":994,"x_min":103,"x_max":947,"o":"m 340 1271 l 458 1183 l 576 1271 l 672 1226 l 525 1086 l 390 1086 l 243 1226 l 340 1271 m 103 0 l 103 986 l 461 986 q 673 947 582 986 q 825 842 764 908 q 917 685 886 775 q 947 494 947 596 q 913 291 947 382 q 815 135 879 200 q 662 35 751 71 q 461 0 572 0 l 103 0 m 754 494 q 735 625 754 565 q 678 728 715 685 q 585 794 640 771 q 461 818 531 818 l 294 818 l 294 168 l 461 168 q 587 193 532 168 q 678 262 642 218 q 735 365 715 306 q 754 494 754 425 z "},"ď":{"ha":896,"x_min":40,"x_max":1083,"o":"m 954 813 l 835 849 l 910 1014 l 1083 1014 l 954 813 m 386 -14 q 247 15 311 -14 q 138 96 183 44 q 66 216 92 147 q 40 364 40 285 q 65 511 40 443 q 132 631 89 579 q 235 711 175 682 q 365 740 294 740 q 510 701 446 740 q 611 600 575 663 l 611 1014 l 797 1014 l 797 214 q 807 172 797 185 q 840 158 817 160 l 840 0 q 761 -10 792 -10 q 679 15 711 -10 q 643 81 647 40 l 639 126 q 530 22 599 57 q 386 -14 461 -14 m 435 144 q 489 153 461 144 q 540 179 517 163 q 583 218 564 196 q 611 267 601 240 l 611 440 q 580 497 600 471 q 534 541 560 522 q 480 571 508 560 q 424 582 451 582 q 347 564 382 582 q 286 515 311 546 q 247 443 261 483 q 233 360 233 403 q 249 275 233 314 q 290 207 264 236 q 353 161 317 178 q 435 144 390 144 z "},"Đ":{"ha":1001,"x_min":43,"x_max":954,"o":"m 110 0 l 110 426 l 43 426 l 43 565 l 110 565 l 110 986 l 468 986 q 680 947 589 986 q 832 842 771 908 q 924 685 893 775 q 954 494 954 596 q 920 291 954 382 q 822 135 886 200 q 669 35 758 71 q 468 0 579 0 l 110 0 m 761 494 q 742 625 761 565 q 685 728 722 685 q 592 794 647 771 q 468 818 538 818 l 301 818 l 301 565 l 494 565 l 494 426 l 301 426 l 301 168 l 468 168 q 594 193 539 168 q 685 262 649 218 q 742 365 722 306 q 761 494 761 425 z "},"đ":{"ha":896,"x_min":40,"x_max":885,"o":"m 386 -14 q 247 15 311 -14 q 138 96 183 44 q 66 216 92 147 q 40 364 40 285 q 65 511 40 443 q 132 631 89 579 q 235 711 175 682 q 365 740 294 740 q 510 701 446 740 q 611 600 575 663 l 611 829 l 472 829 l 472 939 l 611 939 l 611 1014 l 797 1014 l 797 939 l 885 939 l 885 829 l 797 829 l 797 214 q 807 172 797 185 q 840 158 817 160 l 840 0 q 761 -10 792 -10 q 679 15 711 -10 q 643 81 647 40 l 639 126 q 530 22 599 57 q 386 -14 461 -14 m 435 144 q 489 153 461 144 q 540 179 517 163 q 583 218 564 196 q 611 267 601 240 l 611 440 q 580 497 600 471 q 534 541 560 522 q 480 571 508 560 q 424 582 451 582 q 347 564 382 582 q 286 515 311 546 q 247 443 261 483 q 233 360 233 403 q 249 275 233 314 q 290 207 264 236 q 353 161 317 178 q 435 144 390 144 z "},"Ē":{"ha":835,"x_min":103,"x_max":788,"o":"m 788 168 l 788 0 l 103 0 l 103 986 l 775 986 l 775 818 l 294 818 l 294 581 l 710 581 l 710 425 l 294 425 l 294 168 l 788 168 m 246 1136 l 246 1251 l 663 1251 l 663 1136 l 246 1136 z "},"ē":{"ha":832,"x_min":39,"x_max":803,"o":"m 422 -14 q 264 16 335 -14 q 143 97 193 46 q 66 217 93 149 q 39 360 39 285 q 65 506 39 438 q 142 627 92 575 q 263 710 192 679 q 424 740 335 740 q 583 710 513 740 q 702 628 653 679 q 777 508 751 576 q 803 367 803 440 q 802 332 803 349 q 799 304 801 315 l 236 304 q 257 228 240 261 q 300 171 274 194 q 360 135 326 147 q 429 122 393 122 q 534 149 485 122 q 601 221 583 176 l 761 176 q 633 40 721 93 q 422 -14 544 -14 m 611 425 q 551 556 604 507 q 421 606 497 606 q 351 592 383 606 q 293 556 318 579 q 252 499 268 532 q 233 425 236 465 l 611 425 m 213 879 l 213 994 l 629 994 l 629 879 l 213 879 z "},"Ĕ":{"ha":835,"x_min":103,"x_max":788,"o":"m 788 168 l 788 0 l 103 0 l 103 986 l 775 986 l 775 818 l 294 818 l 294 581 l 710 581 l 710 425 l 294 425 l 294 168 l 788 168 m 453 1168 q 508 1197 485 1168 q 536 1271 532 1226 l 635 1271 q 621 1197 635 1231 q 583 1138 607 1163 q 526 1099 560 1113 q 453 1085 492 1085 q 379 1099 413 1085 q 322 1138 346 1113 q 285 1197 299 1163 q 271 1271 271 1231 l 371 1271 q 396 1199 371 1229 q 453 1168 421 1168 z "},"ĕ":{"ha":832,"x_min":39,"x_max":803,"o":"m 422 -14 q 264 16 335 -14 q 143 97 193 46 q 66 217 93 149 q 39 360 39 285 q 65 506 39 438 q 142 627 92 575 q 263 710 192 679 q 424 740 335 740 q 583 710 513 740 q 702 628 653 679 q 777 508 751 576 q 803 367 803 440 q 802 332 803 349 q 799 304 801 315 l 236 304 q 257 228 240 261 q 300 171 274 194 q 360 135 326 147 q 429 122 393 122 q 534 149 485 122 q 601 221 583 176 l 761 176 q 633 40 721 93 q 422 -14 544 -14 m 611 425 q 551 556 604 507 q 421 606 497 606 q 351 592 383 606 q 293 556 318 579 q 252 499 268 532 q 233 425 236 465 l 611 425 m 419 911 q 475 940 451 911 q 503 1014 499 969 l 601 1014 q 588 940 601 974 q 550 881 574 906 q 492 842 526 856 q 419 828 458 828 q 346 842 379 828 q 289 881 313 856 q 251 940 265 906 q 238 1014 238 974 l 338 1014 q 363 942 338 972 q 419 911 388 911 z "},"Ė":{"ha":835,"x_min":103,"x_max":788,"o":"m 788 168 l 788 0 l 103 0 l 103 986 l 775 986 l 775 818 l 294 818 l 294 581 l 710 581 l 710 425 l 294 425 l 294 168 l 788 168 m 369 1096 l 369 1271 l 538 1271 l 538 1096 l 369 1096 z "},"ė":{"ha":832,"x_min":39,"x_max":803,"o":"m 422 -14 q 264 16 335 -14 q 143 97 193 46 q 66 217 93 149 q 39 360 39 285 q 65 506 39 438 q 142 627 92 575 q 263 710 192 679 q 424 740 335 740 q 583 710 513 740 q 702 628 653 679 q 777 508 751 576 q 803 367 803 440 q 802 332 803 349 q 799 304 801 315 l 236 304 q 257 228 240 261 q 300 171 274 194 q 360 135 326 147 q 429 122 393 122 q 534 149 485 122 q 601 221 583 176 l 761 176 q 633 40 721 93 q 422 -14 544 -14 m 611 425 q 551 556 604 507 q 421 606 497 606 q 351 592 383 606 q 293 556 318 579 q 252 499 268 532 q 233 425 236 465 l 611 425 m 336 839 l 336 1014 l 504 1014 l 504 839 l 336 839 z "},"Ę":{"ha":836,"x_min":103,"x_max":788,"o":"m 788 168 l 788 0 q 681 -118 681 -64 q 767 -175 681 -169 l 728 -272 q 608 -228 647 -261 q 568 -151 568 -194 q 681 0 568 -71 l 103 0 l 103 986 l 775 986 l 775 818 l 294 818 l 294 581 l 710 581 l 710 425 l 294 425 l 294 168 l 788 168 z "},"ę":{"ha":832,"x_min":39,"x_max":803,"o":"m 463 -275 q 342 -231 382 -264 q 303 -154 303 -197 q 400 -12 303 -81 q 250 22 317 -8 q 136 103 183 53 q 64 220 89 154 q 39 360 39 286 q 65 506 39 438 q 142 627 92 575 q 263 710 192 679 q 424 740 335 740 q 583 710 513 740 q 702 628 653 679 q 777 508 751 576 q 803 367 803 440 q 802 332 803 349 q 799 304 801 315 l 236 304 q 257 228 240 261 q 300 171 274 194 q 360 135 326 147 q 429 122 393 122 q 534 149 485 122 q 601 221 583 176 l 761 176 q 667 63 729 110 q 521 -3 606 15 q 415 -121 415 -67 q 501 -178 415 -172 l 463 -275 m 611 425 q 551 556 604 507 q 421 606 497 606 q 351 592 383 606 q 293 556 318 579 q 252 499 268 532 q 233 425 236 465 l 611 425 z "},"Ě":{"ha":835,"x_min":103,"x_max":788,"o":"m 335 1271 l 453 1183 l 571 1271 l 667 1226 l 519 1086 l 385 1086 l 238 1226 l 335 1271 m 788 168 l 788 0 l 103 0 l 103 986 l 775 986 l 775 818 l 294 818 l 294 581 l 710 581 l 710 425 l 294 425 l 294 168 l 788 168 z "},"ě":{"ha":832,"x_min":39,"x_max":803,"o":"m 303 1014 l 421 926 l 539 1014 l 635 969 l 488 829 l 353 829 l 206 969 l 303 1014 m 422 -14 q 264 16 335 -14 q 143 97 193 46 q 66 217 93 149 q 39 360 39 285 q 65 506 39 438 q 142 627 92 575 q 263 710 192 679 q 424 740 335 740 q 583 710 513 740 q 702 628 653 679 q 777 508 751 576 q 803 367 803 440 q 802 332 803 349 q 799 304 801 315 l 236 304 q 257 228 240 261 q 300 171 274 194 q 360 135 326 147 q 429 122 393 122 q 534 149 485 122 q 601 221 583 176 l 761 176 q 633 40 721 93 q 422 -14 544 -14 m 611 425 q 551 556 604 507 q 421 606 497 606 q 351 592 383 606 q 293 556 318 579 q 252 499 268 532 q 233 425 236 465 l 611 425 z "},"Ĝ":{"ha":1007,"x_min":44,"x_max":946,"o":"m 310 1131 l 457 1271 l 592 1271 l 739 1131 l 643 1086 l 525 1174 l 407 1086 l 310 1131 m 788 111 q 513 -7 669 -7 q 330 32 415 -7 q 181 139 244 71 q 81 299 118 207 q 44 499 44 392 q 81 690 44 600 q 183 847 118 779 q 335 953 247 914 q 525 993 422 993 q 763 935 664 993 q 913 778 863 876 l 769 672 q 665 785 732 746 q 518 824 597 824 q 403 797 456 824 q 315 725 351 771 q 258 619 278 679 q 238 493 238 560 q 260 363 238 424 q 321 258 282 303 q 413 188 360 214 q 529 163 467 163 q 788 297 672 163 l 788 367 l 589 367 l 589 507 l 946 507 l 946 0 l 788 0 l 788 111 z "},"ĝ":{"ha":881,"x_min":40,"x_max":796,"o":"m 258 874 l 406 1014 l 540 1014 l 688 874 l 592 829 l 474 917 l 356 829 l 258 874 m 368 -4 q 235 25 294 -4 q 131 105 175 54 q 64 222 88 156 q 40 364 40 289 q 65 511 40 443 q 135 631 90 579 q 242 711 179 682 q 379 740 304 740 q 528 702 464 740 q 633 600 592 664 l 633 728 l 796 728 l 796 35 q 765 -110 796 -46 q 681 -218 735 -174 q 553 -286 628 -262 q 392 -310 479 -310 q 191 -270 272 -310 q 51 -158 110 -231 l 153 -60 q 258 -140 194 -111 q 392 -169 321 -169 q 474 -158 435 -169 q 544 -121 514 -146 q 592 -57 575 -96 q 610 35 610 -18 l 610 126 q 508 30 574 64 q 368 -4 443 -4 m 431 144 q 489 154 461 144 q 540 181 517 164 q 582 219 564 197 q 610 267 600 242 l 610 440 q 531 543 585 504 q 419 582 478 582 q 342 563 376 582 q 282 513 307 544 q 244 442 257 482 q 231 358 231 401 q 246 275 231 314 q 288 207 261 236 q 351 161 315 178 q 431 144 388 144 z "},"Ğ":{"ha":1007,"x_min":44,"x_max":946,"o":"m 788 111 q 513 -7 669 -7 q 330 32 415 -7 q 181 139 244 71 q 81 299 118 207 q 44 499 44 392 q 81 690 44 600 q 183 847 118 779 q 335 953 247 914 q 525 993 422 993 q 763 935 664 993 q 913 778 863 876 l 769 672 q 665 785 732 746 q 518 824 597 824 q 403 797 456 824 q 315 725 351 771 q 258 619 278 679 q 238 493 238 560 q 260 363 238 424 q 321 258 282 303 q 413 188 360 214 q 529 163 467 163 q 788 297 672 163 l 788 367 l 589 367 l 589 507 l 946 507 l 946 0 l 788 0 l 788 111 m 525 1168 q 581 1197 557 1168 q 608 1271 604 1226 l 707 1271 q 693 1197 707 1231 q 656 1138 679 1163 q 598 1099 632 1113 q 525 1085 564 1085 q 451 1099 485 1085 q 394 1138 418 1113 q 357 1197 371 1163 q 343 1271 343 1231 l 443 1271 q 468 1199 443 1229 q 525 1168 493 1168 z "},"ğ":{"ha":881,"x_min":40,"x_max":796,"o":"m 368 -4 q 235 25 294 -4 q 131 105 175 54 q 64 222 88 156 q 40 364 40 289 q 65 511 40 443 q 135 631 90 579 q 242 711 179 682 q 379 740 304 740 q 528 702 464 740 q 633 600 592 664 l 633 728 l 796 728 l 796 35 q 765 -110 796 -46 q 681 -218 735 -174 q 553 -286 628 -262 q 392 -310 479 -310 q 191 -270 272 -310 q 51 -158 110 -231 l 153 -60 q 258 -140 194 -111 q 392 -169 321 -169 q 474 -158 435 -169 q 544 -121 514 -146 q 592 -57 575 -96 q 610 35 610 -18 l 610 126 q 508 30 574 64 q 368 -4 443 -4 m 431 144 q 489 154 461 144 q 540 181 517 164 q 582 219 564 197 q 610 267 600 242 l 610 440 q 531 543 585 504 q 419 582 478 582 q 342 563 376 582 q 282 513 307 544 q 244 442 257 482 q 231 358 231 401 q 246 275 231 314 q 288 207 261 236 q 351 161 315 178 q 431 144 388 144 m 472 911 q 528 940 504 911 q 556 1014 551 969 l 654 1014 q 640 940 654 974 q 603 881 626 906 q 545 842 579 856 q 472 828 511 828 q 399 842 432 828 q 342 881 365 856 q 304 940 318 906 q 290 1014 290 974 l 390 1014 q 415 942 390 972 q 472 911 440 911 z "},"Ġ":{"ha":1007,"x_min":44,"x_max":946,"o":"m 788 111 q 513 -7 669 -7 q 330 32 415 -7 q 181 139 244 71 q 81 299 118 207 q 44 499 44 392 q 81 690 44 600 q 183 847 118 779 q 335 953 247 914 q 525 993 422 993 q 763 935 664 993 q 913 778 863 876 l 769 672 q 665 785 732 746 q 518 824 597 824 q 403 797 456 824 q 315 725 351 771 q 258 619 278 679 q 238 493 238 560 q 260 363 238 424 q 321 258 282 303 q 413 188 360 214 q 529 163 467 163 q 788 297 672 163 l 788 367 l 589 367 l 589 507 l 946 507 l 946 0 l 788 0 l 788 111 m 443 1096 l 443 1271 l 611 1271 l 611 1096 l 443 1096 z "},"ġ":{"ha":881,"x_min":40,"x_max":796,"o":"m 368 -4 q 235 25 294 -4 q 131 105 175 54 q 64 222 88 156 q 40 364 40 289 q 65 511 40 443 q 135 631 90 579 q 242 711 179 682 q 379 740 304 740 q 528 702 464 740 q 633 600 592 664 l 633 728 l 796 728 l 796 35 q 765 -110 796 -46 q 681 -218 735 -174 q 553 -286 628 -262 q 392 -310 479 -310 q 191 -270 272 -310 q 51 -158 110 -231 l 153 -60 q 258 -140 194 -111 q 392 -169 321 -169 q 474 -158 435 -169 q 544 -121 514 -146 q 592 -57 575 -96 q 610 35 610 -18 l 610 126 q 508 30 574 64 q 368 -4 443 -4 m 431 144 q 489 154 461 144 q 540 181 517 164 q 582 219 564 197 q 610 267 600 242 l 610 440 q 531 543 585 504 q 419 582 478 582 q 342 563 376 582 q 282 513 307 544 q 244 442 257 482 q 231 358 231 401 q 246 275 231 314 q 288 207 261 236 q 351 161 315 178 q 431 144 388 144 m 389 839 l 389 1014 l 557 1014 l 557 839 l 389 839 z "},"Ģ":{"ha":1007,"x_min":44,"x_max":946,"o":"m 453 -296 l 490 -196 l 436 -196 l 436 -65 l 593 -65 l 593 -196 l 538 -296 l 453 -296 m 788 111 q 513 -7 669 -7 q 330 32 415 -7 q 181 139 244 71 q 81 299 118 207 q 44 499 44 392 q 81 690 44 600 q 183 847 118 779 q 335 953 247 914 q 525 993 422 993 q 763 935 664 993 q 913 778 863 876 l 769 672 q 665 785 732 746 q 518 824 597 824 q 403 797 456 824 q 315 725 351 771 q 258 619 278 679 q 238 493 238 560 q 260 363 238 424 q 321 258 282 303 q 413 188 360 214 q 529 163 467 163 q 788 297 672 163 l 788 367 l 589 367 l 589 507 l 946 507 l 946 0 l 788 0 l 788 111 z "},"":{"ha":279,"x_min":85,"x_max":242,"o":"m 101 -296 l 139 -196 l 85 -196 l 85 -65 l 242 -65 l 242 -196 l 186 -296 l 101 -296 z "},"ģ":{"ha":881,"x_min":40,"x_max":796,"o":"m 513 1038 l 475 938 l 529 938 l 529 807 l 372 807 l 372 938 l 428 1038 l 513 1038 m 368 -4 q 235 25 294 -4 q 131 105 175 54 q 64 222 88 156 q 40 364 40 289 q 65 511 40 443 q 135 631 90 579 q 242 711 179 682 q 379 740 304 740 q 528 702 464 740 q 633 600 592 664 l 633 728 l 796 728 l 796 35 q 765 -110 796 -46 q 681 -218 735 -174 q 553 -286 628 -262 q 392 -310 479 -310 q 191 -270 272 -310 q 51 -158 110 -231 l 153 -60 q 258 -140 194 -111 q 392 -169 321 -169 q 474 -158 435 -169 q 544 -121 514 -146 q 592 -57 575 -96 q 610 35 610 -18 l 610 126 q 508 30 574 64 q 368 -4 443 -4 m 431 144 q 489 154 461 144 q 540 181 517 164 q 582 219 564 197 q 610 267 600 242 l 610 440 q 531 543 585 504 q 419 582 478 582 q 342 563 376 582 q 282 513 307 544 q 244 442 257 482 q 231 358 231 401 q 246 275 231 314 q 288 207 261 236 q 351 161 315 178 q 431 144 388 144 z "},"Ĥ":{"ha":1035,"x_min":103,"x_max":932,"o":"m 307 1131 l 454 1271 l 589 1271 l 736 1131 l 640 1086 l 522 1174 l 404 1086 l 307 1131 m 932 986 l 932 0 l 742 0 l 742 421 l 294 421 l 294 0 l 103 0 l 103 986 l 294 986 l 294 588 l 742 588 l 742 986 l 932 986 z "},"ĥ":{"ha":839,"x_min":85,"x_max":761,"o":"m 339 875 l 468 1011 l 588 1011 l 717 875 l 632 831 l 528 917 l 425 831 l 339 875 m 761 0 l 575 0 l 575 408 q 543 535 575 494 q 453 576 511 576 q 400 565 428 576 q 347 534 372 554 q 301 486 322 514 q 271 425 281 458 l 271 0 l 85 0 l 85 1014 l 271 1014 l 271 593 q 380 702 311 664 q 532 740 449 740 q 647 716 603 740 q 717 651 692 692 q 751 560 742 611 q 761 454 761 508 l 761 0 z "},"Ħ":{"ha":1046,"x_min":39,"x_max":1007,"o":"m 938 986 l 938 846 l 1007 846 l 1007 754 l 938 754 l 938 0 l 747 0 l 747 421 l 300 421 l 300 0 l 108 0 l 108 754 l 39 754 l 39 846 l 108 846 l 108 986 l 300 986 l 300 846 l 747 846 l 747 986 l 938 986 m 747 588 l 747 754 l 300 754 l 300 588 l 747 588 z "},"ħ":{"ha":839,"x_min":22,"x_max":761,"o":"m 761 0 l 575 0 l 575 408 q 543 535 575 494 q 453 576 511 576 q 400 565 428 576 q 347 534 372 554 q 301 486 322 514 q 271 425 281 458 l 271 0 l 85 0 l 85 829 l 22 829 l 22 939 l 85 939 l 85 1014 l 271 1014 l 271 939 l 435 939 l 435 829 l 271 829 l 271 593 q 380 702 311 664 q 532 740 449 740 q 647 716 603 740 q 717 651 692 692 q 751 560 742 611 q 761 454 761 508 l 761 0 z "},"Ĩ":{"ha":397,"x_min":-65,"x_max":457,"o":"m 103 0 l 103 986 l 294 986 l 294 0 l 103 0 m 286 1093 q 231 1103 254 1093 q 187 1124 207 1113 q 147 1146 167 1136 q 104 1156 126 1156 q 67 1146 81 1156 q 47 1124 54 1136 q 39 1101 40 1111 q 38 1089 38 1090 l -65 1089 q -57 1131 -65 1101 q -30 1191 -49 1161 q 20 1244 -11 1221 q 97 1267 51 1267 q 152 1256 129 1267 q 195 1234 175 1246 q 235 1212 215 1222 q 281 1201 256 1201 q 320 1211 306 1201 q 342 1233 335 1221 q 352 1257 350 1246 q 354 1271 354 1268 l 457 1271 q 449 1232 457 1261 q 420 1172 440 1203 q 367 1117 400 1142 q 286 1093 335 1093 z "},"ĩ":{"ha":354,"x_min":-86,"x_max":436,"o":"m 85 0 l 85 728 l 271 728 l 271 0 l 85 0 m 265 836 q 210 846 233 836 q 166 867 186 856 q 126 889 146 879 q 83 899 106 899 q 47 889 60 899 q 26 867 33 879 q 18 844 19 854 q 17 832 17 833 l -86 832 q -78 874 -86 844 q -51 934 -69 904 q -1 987 -32 964 q 76 1010 31 1010 q 131 999 108 1010 q 174 977 154 989 q 215 955 194 965 q 260 944 235 944 q 299 954 285 944 q 322 976 314 964 q 331 1000 329 989 q 333 1014 333 1011 l 436 1014 q 428 975 436 1004 q 399 915 419 946 q 347 860 379 885 q 265 836 314 836 z "},"Ī":{"ha":397,"x_min":-8,"x_max":408,"o":"m 103 0 l 103 986 l 294 986 l 294 0 l 103 0 m -8 1136 l -8 1251 l 408 1251 l 408 1136 l -8 1136 z "},"ī":{"ha":354,"x_min":-29,"x_max":388,"o":"m 85 0 l 85 728 l 271 728 l 271 0 l 85 0 m -29 879 l -29 994 l 388 994 l 388 879 l -29 879 z "},"Ĭ":{"ha":397,"x_min":15,"x_max":379,"o":"m 103 0 l 103 986 l 294 986 l 294 0 l 103 0 m 197 1168 q 253 1197 229 1168 q 281 1271 276 1226 l 379 1271 q 365 1197 379 1231 q 328 1138 351 1163 q 270 1099 304 1113 q 197 1085 236 1085 q 124 1099 157 1085 q 67 1138 90 1113 q 29 1197 43 1163 q 15 1271 15 1231 l 115 1271 q 140 1199 115 1229 q 197 1168 165 1168 z "},"ĭ":{"ha":354,"x_min":-6,"x_max":358,"o":"m 85 0 l 85 728 l 271 728 l 271 0 l 85 0 m 176 911 q 232 940 208 911 q 260 1014 256 969 l 358 1014 q 344 940 358 974 q 307 881 331 906 q 249 842 283 856 q 176 828 215 828 q 103 842 136 828 q 46 881 69 856 q 8 940 22 906 q -6 1014 -6 974 l 94 1014 q 119 942 94 972 q 176 911 144 911 z "},"Į":{"ha":397,"x_min":75,"x_max":294,"o":"m 235 -272 q 115 -228 154 -261 q 75 -151 75 -194 q 188 0 75 -71 l 103 0 l 103 986 l 294 986 l 294 0 q 188 -118 188 -64 q 274 -175 188 -169 l 235 -272 l 235 -272 z "},"į":{"ha":354,"x_min":51,"x_max":271,"o":"m 211 -272 q 91 -228 131 -261 q 51 -151 51 -194 q 164 0 51 -71 l 85 0 l 85 728 l 271 728 l 271 0 q 164 -118 164 -64 q 250 -175 164 -169 l 211 -272 m 85 829 l 85 1014 l 271 1014 l 271 829 l 85 829 z "},"İ":{"ha":397,"x_min":103,"x_max":294,"o":"m 103 0 l 103 986 l 294 986 l 294 0 l 103 0 m 114 1096 l 114 1271 l 282 1271 l 282 1096 l 114 1096 z "},"Ĳ":{"ha":1079,"x_min":103,"x_max":988,"o":"m 103 0 l 103 986 l 294 986 l 294 0 l 103 0 m 450 201 q 515 171 469 188 q 621 154 561 154 q 714 174 679 154 q 767 236 749 194 q 790 340 785 278 q 796 485 796 401 l 796 986 l 988 986 l 988 485 q 976 280 988 372 q 926 122 964 188 q 815 21 888 57 q 621 -15 743 -15 q 407 46 496 -15 l 450 201 z "},"ĳ":{"ha":717,"x_min":85,"x_max":632,"o":"m 85 0 l 85 728 l 271 728 l 271 0 l 85 0 m 85 829 l 85 1014 l 271 1014 l 271 829 l 85 829 m 379 -272 q 279 -256 326 -272 q 194 -207 232 -240 l 275 -81 q 313 -103 290 -96 q 357 -111 335 -111 q 419 -85 393 -111 q 446 -19 446 -60 l 446 728 l 632 728 l 632 -6 q 613 -113 632 -64 q 559 -198 593 -162 q 478 -253 525 -233 q 379 -272 432 -272 m 446 829 l 446 1014 l 632 1014 l 632 829 l 446 829 z "},"Ĵ":{"ha":682,"x_min":10,"x_max":711,"o":"m 282 1131 l 429 1271 l 564 1271 l 711 1131 l 615 1086 l 497 1174 l 379 1086 l 282 1131 m 53 201 q 118 171 72 188 q 224 154 164 154 q 317 174 282 154 q 369 236 351 194 q 393 340 388 278 q 399 485 399 401 l 399 986 l 590 986 l 590 485 q 578 280 590 372 q 528 122 567 188 q 418 21 490 57 q 224 -15 346 -15 q 10 46 99 -15 l 53 201 z "},"ĵ":{"ha":354,"x_min":-167,"x_max":392,"o":"m 18 -272 q -82 -256 -35 -272 q -167 -207 -129 -240 l -87 -81 q -49 -103 -71 -96 q -6 -111 -28 -111 q 58 -85 31 -111 q 85 -19 85 -60 l 85 728 l 271 728 l 271 -6 q 251 -113 271 -64 q 197 -198 232 -162 q 117 -253 163 -233 q 18 -272 71 -272 m -37 874 l 110 1014 l 244 1014 l 392 874 l 296 829 l 178 917 l 60 829 l -37 874 z "},"ȷ":{"ha":354,"x_min":-167,"x_max":271,"o":"m 18 -272 q -82 -256 -35 -272 q -167 -207 -129 -240 l -87 -81 q -49 -103 -71 -96 q -6 -111 -28 -111 q 58 -85 31 -111 q 85 -19 85 -60 l 85 728 l 271 728 l 271 -6 q 251 -113 271 -64 q 197 -198 232 -162 q 117 -253 163 -233 q 18 -272 71 -272 z "},"Ķ":{"ha":929,"x_min":103,"x_max":943,"o":"m 422 -296 l 460 -196 l 406 -196 l 406 -65 l 563 -65 l 563 -196 l 507 -296 l 422 -296 m 103 0 l 103 985 l 294 985 l 294 517 l 708 986 l 919 986 l 542 549 l 943 0 l 728 0 l 421 426 l 294 294 l 294 0 l 103 0 z "},"ķ":{"ha":775,"x_min":85,"x_max":781,"o":"m 335 -296 l 372 -196 l 318 -196 l 318 -65 l 475 -65 l 475 -196 l 419 -296 l 335 -296 m 582 0 l 371 315 l 271 217 l 271 0 l 85 0 l 85 1014 l 271 1014 l 271 399 l 563 726 l 761 726 l 490 418 l 781 0 l 582 0 z "},"ĸ":{"ha":775,"x_min":85,"x_max":781,"o":"m 582 0 l 371 315 l 271 217 l 271 0 l 85 0 l 85 728 l 271 728 l 271 399 l 563 726 l 761 726 l 490 418 l 781 0 l 582 0 z "},"Ĺ":{"ha":811,"x_min":103,"x_max":797,"o":"m 546 1069 l 426 1106 l 501 1271 l 675 1271 l 546 1069 m 103 0 l 103 986 l 294 986 l 294 168 l 797 168 l 797 0 l 103 0 z "},"ĺ":{"ha":440,"x_min":83,"x_max":444,"o":"m 219 1061 l 100 1097 l 175 1263 l 349 1263 l 219 1061 m 83 1014 l 269 1014 l 269 233 q 289 171 269 193 q 344 149 308 149 q 381 154 361 149 q 419 168 401 160 l 444 26 q 357 -1 407 8 q 267 -11 307 -11 q 131 35 179 -11 q 83 168 83 82 l 83 1014 z "},"Ļ":{"ha":811,"x_min":103,"x_max":797,"o":"m 400 -296 l 438 -196 l 383 -196 l 383 -65 l 540 -65 l 540 -196 l 485 -296 l 400 -296 m 103 0 l 103 986 l 294 986 l 294 168 l 797 168 l 797 0 l 103 0 z "},"ļ":{"ha":440,"x_min":83,"x_max":444,"o":"m 197 -296 l 235 -196 l 181 -196 l 181 -65 l 338 -65 l 338 -196 l 282 -296 l 197 -296 m 83 1014 l 269 1014 l 269 233 q 289 171 269 193 q 344 149 308 149 q 381 154 361 149 q 419 168 401 160 l 444 26 q 357 -1 407 8 q 267 -11 307 -11 q 131 35 179 -11 q 83 168 83 82 l 83 1014 z "},"Ľ":{"ha":811,"x_min":103,"x_max":797,"o":"m 574 813 l 454 849 l 529 1014 l 703 1014 l 574 813 m 103 0 l 103 986 l 294 986 l 294 168 l 797 168 l 797 0 l 103 0 z "},"ľ":{"ha":440,"x_min":83,"x_max":574,"o":"m 444 813 l 325 849 l 400 1014 l 574 1014 l 444 813 m 83 1014 l 269 1014 l 269 233 q 289 171 269 193 q 344 149 308 149 q 381 154 361 149 q 419 168 401 160 l 444 26 q 357 -1 407 8 q 267 -11 307 -11 q 131 35 179 -11 q 83 168 83 82 l 83 1014 z "},"Ŀ":{"ha":811,"x_min":103,"x_max":797,"o":"m 103 0 l 103 986 l 294 986 l 294 168 l 797 168 l 797 0 l 103 0 m 507 460 l 507 669 l 660 669 l 660 460 l 507 460 z "},"ŀ":{"ha":551,"x_min":83,"x_max":528,"o":"m 83 1014 l 269 1014 l 269 233 q 289 171 269 193 q 344 149 308 149 q 381 154 361 149 q 419 168 401 160 l 444 26 q 357 -1 407 8 q 267 -11 307 -11 q 131 35 179 -11 q 83 168 83 82 l 83 1014 m 375 393 l 375 603 l 528 603 l 528 393 l 375 393 z "},"Ł":{"ha":825,"x_min":-3,"x_max":810,"o":"m 115 0 l 115 382 l 43 336 l -3 438 l 115 511 l 115 986 l 307 986 l 307 632 l 460 729 l 506 628 l 307 503 l 307 168 l 810 168 l 810 0 l 115 0 z "},"ł":{"ha":478,"x_min":-1,"x_max":478,"o":"m 117 415 l 46 374 l -1 474 l 117 544 l 117 1014 l 303 1014 l 303 656 l 422 728 l 469 628 l 303 528 l 303 233 q 322 171 303 193 q 378 149 342 149 q 415 154 394 149 q 453 168 435 160 l 478 26 q 390 -1 440 8 q 300 -11 340 -11 q 165 35 213 -11 q 117 168 117 82 l 117 415 z "},"Ń":{"ha":1060,"x_min":103,"x_max":957,"o":"m 578 1069 l 458 1106 l 533 1271 l 707 1271 l 578 1069 m 294 632 l 294 0 l 103 0 l 103 986 l 251 986 l 765 339 l 765 985 l 957 985 l 957 0 l 801 0 l 294 632 z "},"ń":{"ha":839,"x_min":85,"x_max":761,"o":"m 488 813 l 368 849 l 443 1014 l 617 1014 l 488 813 m 761 0 l 575 0 l 575 408 q 544 536 575 496 q 460 576 514 576 q 403 565 432 576 q 348 534 374 554 q 301 486 322 514 q 271 425 281 458 l 271 0 l 85 0 l 85 728 l 253 728 l 253 593 q 369 701 293 663 q 542 740 446 740 q 653 715 610 740 q 719 650 696 690 q 752 558 743 610 q 761 454 761 507 l 761 0 z "},"Ņ":{"ha":1060,"x_min":103,"x_max":957,"o":"m 463 -296 l 500 -196 l 446 -196 l 446 -65 l 603 -65 l 603 -196 l 547 -296 l 463 -296 m 294 632 l 294 0 l 103 0 l 103 986 l 251 986 l 765 339 l 765 985 l 957 985 l 957 0 l 801 0 l 294 632 z "},"ņ":{"ha":839,"x_min":85,"x_max":761,"o":"m 351 -296 l 389 -196 l 335 -196 l 335 -65 l 492 -65 l 492 -196 l 436 -296 l 351 -296 m 761 0 l 575 0 l 575 408 q 544 536 575 496 q 460 576 514 576 q 403 565 432 576 q 348 534 374 554 q 301 486 322 514 q 271 425 281 458 l 271 0 l 85 0 l 85 728 l 253 728 l 253 593 q 369 701 293 663 q 542 740 446 740 q 653 715 610 740 q 719 650 696 690 q 752 558 743 610 q 761 454 761 507 l 761 0 z "},"Ň":{"ha":1060,"x_min":103,"x_max":957,"o":"m 413 1271 l 531 1183 l 649 1271 l 744 1226 l 597 1086 l 463 1086 l 315 1226 l 413 1271 m 294 632 l 294 0 l 103 0 l 103 986 l 251 986 l 765 339 l 765 985 l 957 985 l 957 0 l 801 0 l 294 632 z "},"ň":{"ha":839,"x_min":85,"x_max":761,"o":"m 322 1014 l 440 926 l 558 1014 l 654 969 l 507 829 l 372 829 l 225 969 l 322 1014 m 761 0 l 575 0 l 575 408 q 544 536 575 496 q 460 576 514 576 q 403 565 432 576 q 348 534 374 554 q 301 486 322 514 q 271 425 281 458 l 271 0 l 85 0 l 85 728 l 253 728 l 253 593 q 369 701 293 663 q 542 740 446 740 q 653 715 610 740 q 719 650 696 690 q 752 558 743 610 q 761 454 761 507 l 761 0 z "},"ŉ":{"ha":839,"x_min":-33,"x_max":761,"o":"m 86 813 l -33 849 l 15 950 l 6 1014 l 215 1014 l 86 813 m 761 0 l 575 0 l 575 408 q 544 536 575 496 q 460 576 514 576 q 403 565 432 576 q 348 534 374 554 q 301 486 322 514 q 271 425 281 458 l 271 0 l 85 0 l 85 728 l 253 728 l 253 593 q 369 701 293 663 q 542 740 446 740 q 653 715 610 740 q 719 650 696 690 q 752 558 743 610 q 761 454 761 507 l 761 0 z "},"ʼ":{"ha":739,"x_min":258,"x_max":507,"o":"m 378 813 l 258 849 l 307 950 l 297 1014 l 507 1014 l 378 813 z "},"Ŋ":{"ha":1042,"x_min":103,"x_max":938,"o":"m 294 626 l 294 0 l 103 0 l 103 986 l 250 986 l 747 347 l 747 985 l 938 985 l 938 -12 q 917 -119 938 -71 q 863 -201 897 -167 q 782 -253 828 -235 q 685 -272 736 -272 q 585 -256 632 -272 q 500 -207 538 -240 l 581 -81 q 617 -103 596 -96 q 661 -111 639 -111 q 724 -85 697 -111 q 751 -19 751 -60 l 751 39 l 294 626 z "},"ŋ":{"ha":839,"x_min":85,"x_max":760,"o":"m 508 -272 q 408 -256 456 -272 q 324 -207 361 -240 l 403 -81 q 441 -103 419 -96 q 485 -111 463 -111 q 548 -85 521 -111 q 575 -19 575 -60 l 575 408 q 544 536 575 496 q 460 576 514 576 q 403 565 432 576 q 348 534 374 554 q 301 486 322 514 q 271 425 281 458 l 271 0 l 85 0 l 85 728 l 253 728 l 253 593 q 369 701 293 663 q 542 740 446 740 q 652 715 610 740 q 719 650 694 690 q 751 558 743 610 q 760 454 760 507 l 760 -6 q 740 -113 760 -64 q 686 -198 721 -162 q 606 -253 651 -233 q 508 -272 560 -272 z "},"Ō":{"ha":1050,"x_min":43,"x_max":1006,"o":"m 321 1136 l 321 1251 l 738 1251 l 738 1136 l 321 1136 m 524 -7 q 327 35 415 -7 q 176 148 239 78 q 78 308 113 218 q 43 493 43 399 q 80 682 43 592 q 181 842 117 772 q 335 952 246 911 q 528 993 424 993 q 723 949 635 993 q 874 835 811 906 q 971 674 936 764 q 1006 490 1006 583 q 969 302 1006 392 q 869 144 933 213 q 717 34 806 75 q 524 -7 628 -7 m 238 493 q 257 369 238 429 q 313 264 276 310 q 403 190 350 218 q 525 163 457 163 q 648 191 594 163 q 738 267 701 219 q 794 373 775 314 q 813 493 813 432 q 792 617 813 557 q 735 722 772 676 q 645 795 699 768 q 525 822 592 822 q 401 794 456 822 q 311 719 347 765 q 256 613 275 672 q 238 493 238 554 z "},"ō":{"ha":842,"x_min":39,"x_max":801,"o":"m 214 879 l 214 994 l 631 994 l 631 879 l 214 879 m 421 -14 q 261 17 332 -14 q 141 99 190 47 q 65 219 92 151 q 39 363 39 288 q 65 507 39 439 q 141 627 92 575 q 261 710 190 679 q 421 740 332 740 q 580 710 510 740 q 699 627 650 679 q 775 507 749 575 q 801 363 801 439 q 775 219 801 288 q 700 99 749 151 q 581 17 651 47 q 421 -14 510 -14 m 231 363 q 245 274 231 314 q 285 206 260 235 q 346 160 311 176 q 421 144 381 144 q 496 160 461 144 q 556 206 531 176 q 597 275 582 235 q 611 364 611 315 q 597 451 611 411 q 556 521 582 492 q 496 566 531 550 q 421 582 461 582 q 346 565 381 582 q 285 519 311 549 q 245 450 260 490 q 231 363 231 410 z "},"Ŏ":{"ha":1050,"x_min":43,"x_max":1006,"o":"m 524 -7 q 327 35 415 -7 q 176 148 239 78 q 78 308 113 218 q 43 493 43 399 q 80 682 43 592 q 181 842 117 772 q 335 952 246 911 q 528 993 424 993 q 723 949 635 993 q 874 835 811 906 q 971 674 936 764 q 1006 490 1006 583 q 969 302 1006 392 q 869 144 933 213 q 717 34 806 75 q 524 -7 628 -7 m 238 493 q 257 369 238 429 q 313 264 276 310 q 403 190 350 218 q 525 163 457 163 q 648 191 594 163 q 738 267 701 219 q 794 373 775 314 q 813 493 813 432 q 792 617 813 557 q 735 722 772 676 q 645 795 699 768 q 525 822 592 822 q 401 794 456 822 q 311 719 347 765 q 256 613 275 672 q 238 493 238 554 m 529 1168 q 585 1197 561 1168 q 613 1271 608 1226 l 711 1271 q 697 1197 711 1231 q 660 1138 683 1163 q 602 1099 636 1113 q 529 1085 568 1085 q 456 1099 489 1085 q 399 1138 422 1113 q 361 1197 375 1163 q 347 1271 347 1231 l 447 1271 q 472 1199 447 1229 q 529 1168 497 1168 z "},"ŏ":{"ha":842,"x_min":39,"x_max":801,"o":"m 421 -14 q 261 17 332 -14 q 141 99 190 47 q 65 219 92 151 q 39 363 39 288 q 65 507 39 439 q 141 627 92 575 q 261 710 190 679 q 421 740 332 740 q 580 710 510 740 q 699 627 650 679 q 775 507 749 575 q 801 363 801 439 q 775 219 801 288 q 700 99 749 151 q 581 17 651 47 q 421 -14 510 -14 m 231 363 q 245 274 231 314 q 285 206 260 235 q 346 160 311 176 q 421 144 381 144 q 496 160 461 144 q 556 206 531 176 q 597 275 582 235 q 611 364 611 315 q 597 451 611 411 q 556 521 582 492 q 496 566 531 550 q 421 582 461 582 q 346 565 381 582 q 285 519 311 549 q 245 450 260 490 q 231 363 231 410 m 419 911 q 475 940 451 911 q 503 1014 499 969 l 601 1014 q 588 940 601 974 q 550 881 574 906 q 492 842 526 856 q 419 828 458 828 q 346 842 379 828 q 289 881 313 856 q 251 940 265 906 q 238 1014 238 974 l 338 1014 q 363 942 338 972 q 419 911 388 911 z "},"Ő":{"ha":1050,"x_min":43,"x_max":1006,"o":"m 442 1071 l 350 1107 l 417 1272 l 561 1272 l 442 1071 m 664 1071 l 574 1107 l 639 1272 l 785 1272 l 664 1071 m 524 -7 q 327 35 415 -7 q 176 148 239 78 q 78 308 113 218 q 43 493 43 399 q 80 682 43 592 q 181 842 117 772 q 335 952 246 911 q 528 993 424 993 q 723 949 635 993 q 874 835 811 906 q 971 674 936 764 q 1006 490 1006 583 q 969 302 1006 392 q 869 144 933 213 q 717 34 806 75 q 524 -7 628 -7 m 238 493 q 257 369 238 429 q 313 264 276 310 q 403 190 350 218 q 525 163 457 163 q 648 191 594 163 q 738 267 701 219 q 794 373 775 314 q 813 493 813 432 q 792 617 813 557 q 735 722 772 676 q 645 795 699 768 q 525 822 592 822 q 401 794 456 822 q 311 719 347 765 q 256 613 275 672 q 238 493 238 554 z "},"˝":{"ha":508,"x_min":46,"x_max":481,"o":"m 138 813 l 46 849 l 113 1014 l 257 1014 l 138 813 m 360 813 l 269 849 l 335 1014 l 481 1014 l 360 813 z "},"ő":{"ha":842,"x_min":39,"x_max":801,"o":"m 333 813 l 242 849 l 308 1014 l 453 1014 l 333 813 m 556 813 l 465 849 l 531 1014 l 676 1014 l 556 813 m 421 -14 q 261 17 332 -14 q 141 99 190 47 q 65 219 92 151 q 39 363 39 288 q 65 507 39 439 q 141 627 92 575 q 261 710 190 679 q 421 740 332 740 q 580 710 510 740 q 699 627 650 679 q 775 507 749 575 q 801 363 801 439 q 775 219 801 288 q 700 99 749 151 q 581 17 651 47 q 421 -14 510 -14 m 231 363 q 245 274 231 314 q 285 206 260 235 q 346 160 311 176 q 421 144 381 144 q 496 160 461 144 q 556 206 531 176 q 597 275 582 235 q 611 364 611 315 q 597 451 611 411 q 556 521 582 492 q 496 566 531 550 q 421 582 461 582 q 346 565 381 582 q 285 519 311 549 q 245 450 260 490 q 231 363 231 410 z "},"Œ":{"ha":1507,"x_min":43,"x_max":1461,"o":"m 1461 168 l 1461 0 l 794 0 l 794 146 q 674 36 747 79 q 511 -7 600 -7 q 320 35 407 -7 q 172 148 233 78 q 77 308 111 218 q 43 493 43 399 q 78 682 43 592 q 177 842 114 772 q 326 952 240 911 q 514 993 413 993 q 677 950 606 993 q 794 842 749 907 l 794 986 l 1449 986 l 1449 818 l 986 818 l 986 586 l 1374 586 l 1374 418 l 986 418 l 986 168 l 1461 168 m 513 163 q 631 191 579 163 q 716 267 682 219 q 768 374 750 314 q 786 494 786 433 q 767 617 786 558 q 713 722 749 676 q 627 796 678 768 q 513 824 576 824 q 394 795 446 824 q 308 719 343 767 q 256 613 274 672 q 238 493 238 554 q 256 369 238 429 q 310 264 275 310 q 397 190 346 218 q 513 163 447 163 z "},"œ":{"ha":1404,"x_min":39,"x_max":1375,"o":"m 418 -14 q 267 15 336 -14 q 147 93 197 43 q 67 212 96 143 q 39 363 39 281 q 67 514 39 444 q 147 633 96 583 q 267 712 197 683 q 418 740 336 740 q 585 697 513 740 q 706 571 657 653 q 997 740 810 740 q 1147 713 1078 740 q 1265 636 1215 686 q 1344 517 1315 586 q 1375 364 1372 447 q 1374 332 1375 349 q 1371 304 1374 315 l 810 304 q 829 230 813 264 q 872 171 846 196 q 933 132 899 146 q 1008 118 968 118 q 1116 147 1067 118 q 1183 221 1165 176 l 1338 176 q 1283 97 1317 132 q 1205 38 1249 63 q 1109 -1 1161 13 q 1001 -14 1057 -14 q 842 28 914 -14 q 707 150 769 69 q 574 26 643 67 q 418 -14 506 -14 m 421 144 q 497 161 463 144 q 557 207 532 178 q 597 276 582 236 q 611 363 611 315 q 597 450 611 410 q 557 519 582 490 q 497 565 532 549 q 421 582 463 582 q 346 565 381 582 q 285 519 311 549 q 245 449 260 489 q 231 361 231 408 q 245 274 231 314 q 285 206 260 235 q 344 160 310 176 q 421 144 379 144 m 1185 419 q 1165 495 1181 461 q 1123 554 1149 529 q 1063 592 1097 579 q 992 606 1029 606 q 862 554 914 606 q 804 419 810 503 l 1185 419 z "},"Ŕ":{"ha":924,"x_min":103,"x_max":900,"o":"m 492 1071 l 372 1107 l 447 1272 l 621 1272 l 492 1071 m 103 0 l 103 986 l 539 986 q 665 958 607 986 q 764 883 722 929 q 829 777 806 836 q 853 658 853 718 q 805 484 853 563 q 675 371 757 406 l 900 0 l 685 0 l 483 331 l 294 331 l 294 0 l 103 0 m 294 499 l 535 499 q 584 511 561 499 q 624 545 607 524 q 650 596 640 567 q 660 658 660 625 q 649 722 660 693 q 619 773 638 751 q 576 806 600 794 q 526 818 551 818 l 294 818 l 294 499 z "},"ŕ":{"ha":538,"x_min":85,"x_max":518,"o":"m 371 813 l 251 849 l 326 1014 l 500 1014 l 371 813 m 518 567 q 367 534 433 565 q 271 440 300 503 l 271 0 l 85 0 l 85 728 l 256 728 l 256 572 q 301 640 275 610 q 358 692 328 669 q 420 726 389 714 q 481 738 451 738 q 503 738 496 738 q 518 736 511 738 l 518 567 z "},"Ŗ":{"ha":924,"x_min":103,"x_max":900,"o":"m 408 -296 l 446 -196 l 392 -196 l 392 -65 l 549 -65 l 549 -196 l 493 -296 l 408 -296 m 103 0 l 103 986 l 539 986 q 665 958 607 986 q 764 883 722 929 q 829 777 806 836 q 853 658 853 718 q 805 484 853 563 q 675 371 757 406 l 900 0 l 685 0 l 483 331 l 294 331 l 294 0 l 103 0 m 294 499 l 535 499 q 584 511 561 499 q 624 545 607 524 q 650 596 640 567 q 660 658 660 625 q 649 722 660 693 q 619 773 638 751 q 576 806 600 794 q 526 818 551 818 l 294 818 l 294 499 z "},"ŗ":{"ha":538,"x_min":85,"x_max":518,"o":"m 104 -296 l 142 -196 l 88 -196 l 88 -65 l 244 -65 l 244 -196 l 189 -296 l 104 -296 m 518 567 q 367 534 433 565 q 271 440 300 503 l 271 0 l 85 0 l 85 728 l 256 728 l 256 572 q 301 640 275 610 q 358 692 328 669 q 420 726 389 714 q 481 738 451 738 q 503 738 496 738 q 518 736 511 738 l 518 567 z "},"Ř":{"ha":924,"x_min":103,"x_max":900,"o":"m 325 1272 l 443 1185 l 561 1272 l 657 1228 l 510 1088 l 375 1088 l 228 1228 l 325 1272 m 103 0 l 103 986 l 539 986 q 665 958 607 986 q 764 883 722 929 q 829 777 806 836 q 853 658 853 718 q 805 484 853 563 q 675 371 757 406 l 900 0 l 685 0 l 483 331 l 294 331 l 294 0 l 103 0 m 294 499 l 535 499 q 584 511 561 499 q 624 545 607 524 q 650 596 640 567 q 660 658 660 625 q 649 722 660 693 q 619 773 638 751 q 576 806 600 794 q 526 818 551 818 l 294 818 l 294 499 z "},"ř":{"ha":538,"x_min":85,"x_max":538,"o":"m 206 1014 l 324 926 l 442 1014 l 538 969 l 390 829 l 256 829 l 108 969 l 206 1014 m 518 567 q 367 534 433 565 q 271 440 300 503 l 271 0 l 85 0 l 85 728 l 256 728 l 256 572 q 301 640 275 610 q 358 692 328 669 q 420 726 389 714 q 481 738 451 738 q 503 738 496 738 q 518 736 511 738 l 518 567 z "},"Ś":{"ha":851,"x_min":31,"x_max":810,"o":"m 494 1081 l 375 1117 l 450 1282 l 624 1282 l 494 1081 m 690 728 q 655 754 681 738 q 592 787 629 771 q 513 814 556 803 q 425 825 469 825 q 307 796 346 825 q 268 714 268 767 q 283 663 268 683 q 325 628 297 643 q 395 600 353 613 q 493 574 438 588 q 624 532 565 554 q 724 476 683 510 q 788 397 765 443 q 810 282 810 350 q 780 147 810 203 q 699 56 750 90 q 583 5 649 21 q 444 -11 517 -11 q 225 22 333 -11 q 31 117 117 56 l 115 282 q 160 249 128 269 q 238 209 193 229 q 336 175 282 189 q 447 161 390 161 q 606 263 606 161 q 588 317 606 294 q 536 356 569 339 q 456 386 503 372 q 350 417 408 400 q 227 459 279 436 q 140 513 175 482 q 88 585 106 544 q 71 683 71 626 q 99 817 71 758 q 176 914 126 875 q 290 973 225 953 q 431 993 356 993 q 622 960 535 993 q 775 883 710 928 l 690 728 z "},"ś":{"ha":690,"x_min":31,"x_max":654,"o":"m 389 813 l 269 849 l 344 1014 l 518 1014 l 389 813 m 360 -14 q 181 15 268 -14 q 31 99 93 44 l 100 215 q 230 144 167 168 q 356 119 293 119 q 443 140 411 119 q 475 200 475 161 q 438 257 475 239 q 315 299 400 275 q 194 336 244 318 q 114 377 144 354 q 69 430 83 400 q 56 501 56 460 q 77 601 56 557 q 138 677 99 646 q 228 725 176 708 q 342 742 281 742 q 495 718 424 742 q 626 642 567 694 l 551 529 q 444 590 496 571 q 340 610 392 610 q 261 590 293 610 q 229 528 229 571 q 237 496 229 508 q 261 474 244 483 q 305 455 278 464 q 372 436 332 446 q 501 397 447 417 q 588 353 554 378 q 638 295 622 328 q 654 217 654 263 q 575 48 654 110 q 360 -14 496 -14 z "},"Ŝ":{"ha":851,"x_min":31,"x_max":810,"o":"m 231 1142 l 378 1282 l 513 1282 l 660 1142 l 564 1097 l 446 1185 l 328 1097 l 231 1142 m 690 728 q 655 754 681 738 q 592 787 629 771 q 513 814 556 803 q 425 825 469 825 q 307 796 346 825 q 268 714 268 767 q 283 663 268 683 q 325 628 297 643 q 395 600 353 613 q 493 574 438 588 q 624 532 565 554 q 724 476 683 510 q 788 397 765 443 q 810 282 810 350 q 780 147 810 203 q 699 56 750 90 q 583 5 649 21 q 444 -11 517 -11 q 225 22 333 -11 q 31 117 117 56 l 115 282 q 160 249 128 269 q 238 209 193 229 q 336 175 282 189 q 447 161 390 161 q 606 263 606 161 q 588 317 606 294 q 536 356 569 339 q 456 386 503 372 q 350 417 408 400 q 227 459 279 436 q 140 513 175 482 q 88 585 106 544 q 71 683 71 626 q 99 817 71 758 q 176 914 126 875 q 290 973 225 953 q 431 993 356 993 q 622 960 535 993 q 775 883 710 928 l 690 728 z "},"ŝ":{"ha":690,"x_min":31,"x_max":654,"o":"m 126 874 l 274 1014 l 408 1014 l 556 874 l 460 829 l 342 917 l 224 829 l 126 874 m 360 -14 q 181 15 268 -14 q 31 99 93 44 l 100 215 q 230 144 167 168 q 356 119 293 119 q 443 140 411 119 q 475 200 475 161 q 438 257 475 239 q 315 299 400 275 q 194 336 244 318 q 114 377 144 354 q 69 430 83 400 q 56 501 56 460 q 77 601 56 557 q 138 677 99 646 q 228 725 176 708 q 342 742 281 742 q 495 718 424 742 q 626 642 567 694 l 551 529 q 444 590 496 571 q 340 610 392 610 q 261 590 293 610 q 229 528 229 571 q 237 496 229 508 q 261 474 244 483 q 305 455 278 464 q 372 436 332 446 q 501 397 447 417 q 588 353 554 378 q 638 295 622 328 q 654 217 654 263 q 575 48 654 110 q 360 -14 496 -14 z "},"Ş":{"ha":851,"x_min":31,"x_max":810,"o":"m 332 -176 q 383 -194 349 -186 q 456 -203 418 -203 q 513 -192 492 -203 q 533 -157 533 -182 q 513 -122 533 -132 q 461 -111 493 -111 q 399 -117 432 -111 q 350 -128 367 -124 l 410 -10 q 208 28 307 -4 q 31 117 110 60 l 115 282 q 160 249 128 269 q 238 209 193 229 q 336 175 282 189 q 447 161 390 161 q 606 263 606 161 q 588 317 606 294 q 536 356 569 339 q 456 386 503 372 q 350 417 408 400 q 227 459 279 436 q 140 513 175 482 q 88 585 106 544 q 71 683 71 626 q 99 817 71 758 q 176 914 126 875 q 290 973 225 953 q 431 993 356 993 q 622 960 535 993 q 775 883 710 928 l 690 728 q 655 754 681 738 q 592 787 629 771 q 513 814 556 803 q 425 825 469 825 q 307 796 346 825 q 268 714 268 767 q 283 663 268 683 q 325 628 297 643 q 395 600 353 613 q 493 574 438 588 q 624 532 565 554 q 724 476 683 510 q 788 397 765 443 q 810 282 810 350 q 784 156 810 208 q 715 67 758 103 q 613 13 671 32 q 490 -10 556 -6 l 458 -58 q 480 -54 468 -56 q 503 -53 492 -53 q 586 -76 551 -53 q 621 -150 621 -99 q 577 -237 621 -203 q 443 -272 533 -272 q 360 -264 397 -272 q 294 -244 322 -256 l 332 -176 z "},"ş":{"ha":690,"x_min":31,"x_max":654,"o":"m 249 -176 q 300 -194 265 -186 q 372 -203 335 -203 q 429 -192 408 -203 q 450 -157 450 -182 q 430 -122 450 -132 q 378 -111 410 -111 q 316 -117 349 -111 q 267 -128 283 -124 l 325 -12 q 164 22 242 -7 q 31 99 86 50 l 100 215 q 230 144 167 168 q 356 119 293 119 q 443 140 411 119 q 475 200 475 161 q 438 257 475 239 q 315 299 400 275 q 194 336 244 318 q 114 377 144 354 q 69 430 83 400 q 56 501 56 460 q 77 601 56 557 q 138 677 99 646 q 228 725 176 708 q 342 742 281 742 q 495 718 424 742 q 626 642 567 694 l 551 529 q 444 590 496 571 q 340 610 392 610 q 261 590 293 610 q 229 528 229 571 q 237 496 229 508 q 261 474 244 483 q 305 455 278 464 q 372 436 332 446 q 501 397 447 417 q 588 353 554 378 q 638 295 622 328 q 654 217 654 263 q 588 59 654 119 q 404 -11 521 -1 l 375 -58 q 397 -54 385 -56 q 419 -53 408 -53 q 503 -76 468 -53 q 538 -150 538 -99 q 494 -237 538 -203 q 360 -272 450 -272 q 276 -264 314 -272 q 211 -244 239 -256 l 249 -176 z "},"Š":{"ha":851,"x_min":31,"x_max":810,"o":"m 328 1282 l 446 1194 l 564 1282 l 660 1238 l 513 1097 l 378 1097 l 231 1238 l 328 1282 m 690 728 q 655 754 681 738 q 592 787 629 771 q 513 814 556 803 q 425 825 469 825 q 307 796 346 825 q 268 714 268 767 q 283 663 268 683 q 325 628 297 643 q 395 600 353 613 q 493 574 438 588 q 624 532 565 554 q 724 476 683 510 q 788 397 765 443 q 810 282 810 350 q 780 147 810 203 q 699 56 750 90 q 583 5 649 21 q 444 -11 517 -11 q 225 22 333 -11 q 31 117 117 56 l 115 282 q 160 249 128 269 q 238 209 193 229 q 336 175 282 189 q 447 161 390 161 q 606 263 606 161 q 588 317 606 294 q 536 356 569 339 q 456 386 503 372 q 350 417 408 400 q 227 459 279 436 q 140 513 175 482 q 88 585 106 544 q 71 683 71 626 q 99 817 71 758 q 176 914 126 875 q 290 973 225 953 q 431 993 356 993 q 622 960 535 993 q 775 883 710 928 l 690 728 z "},"š":{"ha":690,"x_min":31,"x_max":654,"o":"m 224 1014 l 342 926 l 460 1014 l 556 969 l 408 829 l 274 829 l 126 969 l 224 1014 m 360 -14 q 181 15 268 -14 q 31 99 93 44 l 100 215 q 230 144 167 168 q 356 119 293 119 q 443 140 411 119 q 475 200 475 161 q 438 257 475 239 q 315 299 400 275 q 194 336 244 318 q 114 377 144 354 q 69 430 83 400 q 56 501 56 460 q 77 601 56 557 q 138 677 99 646 q 228 725 176 708 q 342 742 281 742 q 495 718 424 742 q 626 642 567 694 l 551 529 q 444 590 496 571 q 340 610 392 610 q 261 590 293 610 q 229 528 229 571 q 237 496 229 508 q 261 474 244 483 q 305 455 278 464 q 372 436 332 446 q 501 397 447 417 q 588 353 554 378 q 638 295 622 328 q 654 217 654 263 q 575 48 654 110 q 360 -14 496 -14 z "},"Ţ":{"ha":858,"x_min":18,"x_max":839,"o":"m 325 -176 q 376 -194 342 -186 q 449 -203 411 -203 q 506 -192 485 -203 q 526 -157 526 -182 q 506 -122 526 -132 q 454 -111 486 -111 q 392 -117 425 -111 q 343 -128 360 -124 l 408 0 l 333 0 l 333 818 l 18 818 l 18 986 l 839 986 l 839 818 l 524 818 l 524 0 l 489 0 l 451 -58 q 473 -54 461 -56 q 496 -53 485 -53 q 579 -76 544 -53 q 614 -150 614 -99 q 570 -237 614 -203 q 436 -272 526 -272 q 353 -264 390 -272 q 288 -244 315 -256 l 325 -176 z "},"ţ":{"ha":533,"x_min":31,"x_max":521,"o":"m 204 -176 q 256 -194 221 -186 q 328 -203 290 -203 q 385 -192 364 -203 q 406 -157 406 -182 q 385 -122 406 -132 q 333 -111 365 -111 q 272 -117 304 -111 q 222 -128 239 -124 l 282 -11 q 172 39 217 -3 q 126 167 126 81 l 126 585 l 31 585 l 31 728 l 126 728 l 126 964 l 313 964 l 313 728 l 465 728 l 465 585 l 313 585 l 313 229 q 333 174 313 190 q 382 158 353 158 q 439 168 411 158 q 483 185 467 178 l 521 38 q 449 10 490 24 q 361 -10 408 -3 l 331 -58 q 352 -54 340 -56 q 375 -53 364 -53 q 458 -76 424 -53 q 493 -150 493 -99 q 449 -237 493 -203 q 315 -272 406 -272 q 232 -264 269 -272 q 167 -244 194 -256 l 204 -176 z "},"Ť":{"ha":860,"x_min":19,"x_max":840,"o":"m 319 1271 l 438 1183 l 556 1271 l 651 1226 l 504 1086 l 369 1086 l 222 1226 l 319 1271 m 840 818 l 525 818 l 525 0 l 335 0 l 335 818 l 19 818 l 19 986 l 840 986 l 840 818 z "},"ť":{"ha":533,"x_min":31,"x_max":625,"o":"m 496 813 l 376 849 l 451 1014 l 625 1014 l 496 813 m 521 38 q 429 4 483 21 q 315 -12 375 -12 q 242 -3 276 -12 q 183 28 208 7 q 142 84 157 50 q 126 167 126 118 l 126 585 l 31 585 l 31 728 l 126 728 l 126 964 l 313 964 l 313 728 l 465 728 l 465 585 l 313 585 l 313 229 q 333 174 313 190 q 382 158 353 158 q 439 168 411 158 q 483 185 467 178 l 521 38 z "},"Ŧ":{"ha":894,"x_min":38,"x_max":858,"o":"m 858 818 l 543 818 l 543 526 l 807 526 l 807 435 l 543 435 l 543 0 l 353 0 l 353 435 l 88 435 l 88 526 l 353 526 l 353 818 l 38 818 l 38 986 l 858 986 l 858 818 z "},"ŧ":{"ha":535,"x_min":32,"x_max":522,"o":"m 522 38 q 431 4 485 21 q 317 -12 376 -12 q 244 -3 278 -12 q 184 28 210 7 q 143 84 158 50 q 128 167 128 118 l 128 367 l 32 367 l 32 478 l 128 478 l 128 585 l 32 585 l 32 728 l 128 728 l 128 964 l 314 964 l 314 728 l 467 728 l 467 585 l 314 585 l 314 478 l 467 478 l 467 367 l 314 367 l 314 229 q 334 174 314 190 q 383 158 354 158 q 440 168 413 158 q 485 185 468 178 l 522 38 z "},"Ũ":{"ha":1042,"x_min":89,"x_max":951,"o":"m 519 163 q 634 190 588 163 q 709 263 681 218 q 749 365 738 307 q 761 483 761 422 l 761 986 l 951 986 l 951 483 q 927 293 951 382 q 851 138 903 204 q 717 32 799 71 q 521 -7 635 -7 q 320 34 403 -7 q 186 142 238 75 q 112 299 135 210 q 89 483 89 388 l 89 986 l 281 986 l 281 483 q 292 363 281 421 q 333 261 304 306 q 407 190 361 217 q 519 163 453 163 m 608 1093 q 553 1103 576 1093 q 509 1124 529 1113 q 469 1146 489 1136 q 426 1156 449 1156 q 390 1146 403 1156 q 369 1124 376 1136 q 361 1101 363 1111 q 360 1089 360 1090 l 257 1089 q 265 1131 257 1101 q 292 1191 274 1161 q 342 1244 311 1221 q 419 1267 374 1267 q 474 1256 451 1267 q 517 1234 497 1246 q 558 1212 538 1222 q 603 1201 578 1201 q 642 1211 628 1201 q 665 1233 657 1221 q 674 1257 672 1246 q 676 1271 676 1268 l 779 1271 q 771 1232 779 1261 q 742 1172 763 1203 q 690 1117 722 1142 q 608 1093 657 1093 z "},"ũ":{"ha":858,"x_min":78,"x_max":803,"o":"m 307 -14 q 136 58 194 -14 q 78 272 78 131 l 78 728 l 264 728 l 264 313 q 385 144 264 144 q 490 177 439 144 q 572 276 540 210 l 572 728 l 758 728 l 758 214 q 769 172 758 185 q 803 158 779 160 l 803 0 q 756 -7 775 -6 q 722 -8 738 -8 q 641 15 672 -8 q 604 78 610 38 l 600 136 q 475 24 551 61 q 307 -14 399 -14 m 506 836 q 450 846 474 836 q 406 867 426 856 q 366 889 386 879 q 324 899 346 899 q 287 889 300 899 q 267 867 274 879 q 258 844 260 854 q 257 832 257 833 l 154 832 q 163 874 154 844 q 190 934 171 904 q 240 987 208 964 q 317 1010 271 1010 q 372 999 349 1010 q 415 977 394 989 q 455 955 435 965 q 500 944 475 944 q 540 954 525 944 q 562 976 554 964 q 572 1000 569 989 q 574 1014 574 1011 l 676 1014 q 668 975 676 1004 q 640 915 660 946 q 587 860 619 885 q 506 836 554 836 z "},"Ū":{"ha":1042,"x_min":89,"x_max":951,"o":"m 519 163 q 634 190 588 163 q 709 263 681 218 q 749 365 738 307 q 761 483 761 422 l 761 986 l 951 986 l 951 483 q 927 293 951 382 q 851 138 903 204 q 717 32 799 71 q 521 -7 635 -7 q 320 34 403 -7 q 186 142 238 75 q 112 299 135 210 q 89 483 89 388 l 89 986 l 281 986 l 281 483 q 292 363 281 421 q 333 261 304 306 q 407 190 361 217 q 519 163 453 163 m 314 1136 l 314 1251 l 731 1251 l 731 1136 l 314 1136 z "},"ū":{"ha":858,"x_min":78,"x_max":803,"o":"m 307 -14 q 136 58 194 -14 q 78 272 78 131 l 78 728 l 264 728 l 264 313 q 385 144 264 144 q 490 177 439 144 q 572 276 540 210 l 572 728 l 758 728 l 758 214 q 769 172 758 185 q 803 158 779 160 l 803 0 q 756 -7 775 -6 q 722 -8 738 -8 q 641 15 672 -8 q 604 78 610 38 l 600 136 q 475 24 551 61 q 307 -14 399 -14 m 211 879 l 211 994 l 628 994 l 628 879 l 211 879 z "},"Ŭ":{"ha":1042,"x_min":89,"x_max":951,"o":"m 519 163 q 634 190 588 163 q 709 263 681 218 q 749 365 738 307 q 761 483 761 422 l 761 986 l 951 986 l 951 483 q 927 293 951 382 q 851 138 903 204 q 717 32 799 71 q 521 -7 635 -7 q 320 34 403 -7 q 186 142 238 75 q 112 299 135 210 q 89 483 89 388 l 89 986 l 281 986 l 281 483 q 292 363 281 421 q 333 261 304 306 q 407 190 361 217 q 519 163 453 163 m 521 1168 q 576 1197 553 1168 q 604 1271 600 1226 l 703 1271 q 689 1197 703 1231 q 651 1138 675 1163 q 594 1099 628 1113 q 521 1085 560 1085 q 447 1099 481 1085 q 390 1138 414 1113 q 353 1197 367 1163 q 339 1271 339 1231 l 439 1271 q 464 1199 439 1229 q 521 1168 489 1168 z "},"ŭ":{"ha":858,"x_min":78,"x_max":803,"o":"m 307 -14 q 136 58 194 -14 q 78 272 78 131 l 78 728 l 264 728 l 264 313 q 385 144 264 144 q 490 177 439 144 q 572 276 540 210 l 572 728 l 758 728 l 758 214 q 769 172 758 185 q 803 158 779 160 l 803 0 q 756 -7 775 -6 q 722 -8 738 -8 q 641 15 672 -8 q 604 78 610 38 l 600 136 q 475 24 551 61 q 307 -14 399 -14 m 417 911 q 472 940 449 911 q 500 1014 496 969 l 599 1014 q 585 940 599 974 q 547 881 571 906 q 490 842 524 856 q 417 828 456 828 q 343 842 376 828 q 286 881 310 856 q 249 940 263 906 q 235 1014 235 974 l 335 1014 q 360 942 335 972 q 417 911 385 911 z "},"Ů":{"ha":1042,"x_min":89,"x_max":951,"o":"m 385 1164 q 422 1243 385 1215 q 519 1271 458 1271 q 617 1243 581 1271 q 654 1164 654 1215 q 617 1085 654 1113 q 519 1057 581 1057 q 422 1085 458 1057 q 385 1164 385 1113 m 519 1214 q 480 1201 496 1214 q 464 1164 464 1188 q 480 1128 464 1143 q 519 1114 496 1114 q 559 1128 542 1114 q 576 1164 576 1142 q 560 1201 576 1188 q 519 1214 543 1214 m 519 163 q 634 190 588 163 q 709 263 681 218 q 749 365 738 307 q 761 483 761 422 l 761 986 l 951 986 l 951 483 q 927 293 951 382 q 851 138 903 204 q 717 32 799 71 q 521 -7 635 -7 q 320 34 403 -7 q 186 142 238 75 q 112 299 135 210 q 89 483 89 388 l 89 986 l 281 986 l 281 483 q 292 363 281 421 q 333 261 304 306 q 407 190 361 217 q 519 163 453 163 z "},"ů":{"ha":858,"x_min":78,"x_max":803,"o":"m 282 907 q 319 986 282 958 q 417 1014 356 1014 q 515 986 478 1014 q 551 907 551 958 q 515 828 551 856 q 417 800 478 800 q 319 828 356 800 q 282 907 282 856 m 417 957 q 377 944 393 957 q 361 907 361 931 q 377 872 361 886 q 417 857 393 857 q 456 871 439 857 q 474 907 474 885 q 457 944 474 931 q 417 957 440 957 m 307 -14 q 136 58 194 -14 q 78 272 78 131 l 78 728 l 264 728 l 264 313 q 385 144 264 144 q 490 177 439 144 q 572 276 540 210 l 572 728 l 758 728 l 758 214 q 769 172 758 185 q 803 158 779 160 l 803 0 q 756 -7 775 -6 q 722 -8 738 -8 q 641 15 672 -8 q 604 78 610 38 l 600 136 q 475 24 551 61 q 307 -14 399 -14 z "},"Ű":{"ha":1042,"x_min":89,"x_max":951,"o":"m 519 163 q 634 190 588 163 q 709 263 681 218 q 749 365 738 307 q 761 483 761 422 l 761 986 l 951 986 l 951 483 q 927 293 951 382 q 851 138 903 204 q 717 32 799 71 q 521 -7 635 -7 q 320 34 403 -7 q 186 142 238 75 q 112 299 135 210 q 89 483 89 388 l 89 986 l 281 986 l 281 483 q 292 363 281 421 q 333 261 304 306 q 407 190 361 217 q 519 163 453 163 m 432 1071 l 340 1107 l 407 1272 l 551 1272 l 432 1071 m 654 1071 l 564 1107 l 629 1272 l 775 1272 l 654 1071 z "},"ű":{"ha":858,"x_min":78,"x_max":803,"o":"m 307 -14 q 136 58 194 -14 q 78 272 78 131 l 78 728 l 264 728 l 264 313 q 385 144 264 144 q 490 177 439 144 q 572 276 540 210 l 572 728 l 758 728 l 758 214 q 769 172 758 185 q 803 158 779 160 l 803 0 q 756 -7 775 -6 q 722 -8 738 -8 q 641 15 672 -8 q 604 78 610 38 l 600 136 q 475 24 551 61 q 307 -14 399 -14 m 329 813 l 238 849 l 304 1014 l 449 1014 l 329 813 m 551 813 l 461 849 l 526 1014 l 672 1014 l 551 813 z "},"Ų":{"ha":1042,"x_min":89,"x_max":951,"o":"m 519 163 q 634 190 588 163 q 709 263 681 218 q 749 365 738 307 q 761 483 761 422 l 761 986 l 951 986 l 951 483 q 929 301 951 388 q 860 150 907 215 q 739 43 813 85 q 564 -6 665 1 q 464 -119 464 -67 q 550 -176 464 -171 l 511 -274 q 391 -229 431 -262 q 351 -153 351 -196 q 378 -77 351 -115 q 461 -3 406 -39 q 289 51 360 7 q 174 161 218 94 q 109 310 129 228 q 89 483 89 393 l 89 986 l 281 986 l 281 483 q 292 363 281 421 q 333 261 304 306 q 407 190 361 217 q 519 163 453 163 z "},"ų":{"ha":858,"x_min":78,"x_max":803,"o":"m 307 -14 q 136 58 194 -14 q 78 272 78 131 l 78 728 l 264 728 l 264 313 q 385 144 264 144 q 490 177 439 144 q 572 276 540 210 l 572 728 l 758 728 l 758 214 q 769 172 758 185 q 803 158 779 160 l 803 0 q 696 -118 696 -64 q 782 -175 696 -169 l 743 -272 q 623 -228 663 -261 q 583 -151 583 -194 q 609 -78 583 -115 q 688 -6 635 -40 q 630 23 651 1 q 604 78 608 44 l 600 136 q 475 24 551 61 q 307 -14 399 -14 z "},"Ŵ":{"ha":1463,"x_min":0,"x_max":1464,"o":"m 515 1131 l 663 1271 l 797 1271 l 944 1131 l 849 1086 l 731 1174 l 613 1086 l 515 1131 m 443 983 l 619 983 l 731 657 l 842 983 l 1019 983 l 851 535 l 976 219 l 1256 986 l 1464 986 l 1063 0 l 901 0 l 731 414 l 560 0 l 399 0 l 0 986 l 206 986 l 486 219 l 608 535 l 443 983 z "},"ŵ":{"ha":1165,"x_min":3,"x_max":1164,"o":"m 368 874 l 515 1014 l 650 1014 l 797 874 l 701 829 l 583 917 l 465 829 l 368 874 m 988 728 l 1164 728 l 860 0 l 707 0 l 582 319 l 458 0 l 306 0 l 3 728 l 178 728 l 394 175 l 483 411 l 356 726 l 506 726 l 582 503 l 660 726 l 810 726 l 683 411 l 771 175 l 988 728 z "},"Ŷ":{"ha":917,"x_min":6,"x_max":911,"o":"m 214 986 l 457 511 l 704 986 l 911 986 l 553 344 l 553 0 l 363 0 l 363 347 l 6 986 l 214 986 m 243 1131 l 390 1271 l 525 1271 l 672 1131 l 576 1086 l 458 1174 l 340 1086 l 243 1131 z "},"ŷ":{"ha":764,"x_min":8,"x_max":747,"o":"m 100 -142 q 146 -152 124 -149 q 183 -156 168 -156 q 217 -149 201 -156 q 244 -124 232 -142 q 269 -76 257 -107 q 296 0 282 -46 l 8 728 l 200 728 l 397 161 l 572 728 l 747 728 l 442 -144 q 351 -269 415 -221 q 193 -318 288 -318 q 148 -315 171 -318 q 100 -303 125 -311 l 100 -142 m 183 874 l 331 1014 l 465 1014 l 613 874 l 517 829 l 399 917 l 281 829 l 183 874 z "},"Ÿ":{"ha":917,"x_min":6,"x_max":911,"o":"m 214 986 l 457 511 l 704 986 l 911 986 l 553 344 l 553 0 l 363 0 l 363 347 l 6 986 l 214 986 m 247 1097 l 247 1263 l 401 1263 l 401 1097 l 247 1097 m 514 1097 l 514 1263 l 668 1263 l 668 1097 l 514 1097 z "},"Ź":{"ha":871,"x_min":42,"x_max":824,"o":"m 501 1069 l 382 1106 l 457 1271 l 631 1271 l 501 1069 m 42 144 l 599 818 l 57 818 l 57 986 l 819 986 l 819 842 l 281 168 l 824 168 l 824 0 l 42 0 l 42 144 z "},"ź":{"ha":685,"x_min":36,"x_max":644,"o":"m 394 813 l 275 849 l 350 1014 l 524 1014 l 394 813 m 36 114 l 442 597 l 53 597 l 53 728 l 638 728 l 638 614 l 235 131 l 644 131 l 644 0 l 36 0 l 36 114 z "},"Ż":{"ha":871,"x_min":42,"x_max":824,"o":"m 42 144 l 599 818 l 57 818 l 57 986 l 819 986 l 819 842 l 281 168 l 824 168 l 824 0 l 42 0 l 42 144 m 369 1096 l 369 1271 l 538 1271 l 538 1096 l 369 1096 z "},"ż":{"ha":685,"x_min":36,"x_max":644,"o":"m 36 114 l 442 597 l 53 597 l 53 728 l 638 728 l 638 614 l 235 131 l 644 131 l 644 0 l 36 0 l 36 114 m 263 839 l 263 1014 l 431 1014 l 431 839 l 263 839 z "},"Ž":{"ha":871,"x_min":42,"x_max":824,"o":"m 336 1271 l 454 1183 l 572 1271 l 668 1226 l 521 1086 l 386 1086 l 239 1226 l 336 1271 m 42 144 l 599 818 l 57 818 l 57 986 l 819 986 l 819 842 l 281 168 l 824 168 l 824 0 l 42 0 l 42 144 z "},"ž":{"ha":685,"x_min":36,"x_max":644,"o":"m 229 1014 l 347 926 l 465 1014 l 561 969 l 414 829 l 279 829 l 132 969 l 229 1014 m 36 114 l 442 597 l 53 597 l 53 728 l 638 728 l 638 614 l 235 131 l 644 131 l 644 0 l 36 0 l 36 114 z "},"Ə":{"ha":1036,"x_min":28,"x_max":992,"o":"m 513 -7 q 315 35 404 -7 q 161 144 225 76 q 63 300 97 213 q 28 478 28 388 q 35 557 28 525 l 783 557 q 753 667 776 618 q 692 751 729 717 q 608 803 656 785 q 510 822 561 822 q 432 811 469 822 q 363 781 394 800 q 309 733 332 761 q 276 671 286 704 l 83 736 q 155 840 111 793 q 254 922 199 888 q 376 974 310 956 q 515 993 442 993 q 710 951 622 993 q 860 841 797 910 q 957 683 922 772 q 992 499 992 593 q 958 308 992 399 q 861 147 924 217 q 710 35 799 76 q 513 -7 621 -7 m 515 161 q 615 179 569 161 q 697 230 661 197 q 754 308 732 263 q 781 407 776 353 l 238 407 q 266 308 243 353 q 326 230 289 263 q 412 179 364 197 q 515 161 460 161 z "},"ƒ":{"ha":761,"x_min":40,"x_max":714,"o":"m 225 -272 q 126 -256 174 -272 q 40 -207 78 -240 l 121 -81 q 158 -103 136 -96 q 203 -111 181 -111 q 265 -85 239 -111 q 292 -19 292 -60 l 292 500 l 197 500 l 197 643 l 292 643 l 292 733 q 358 949 292 869 q 535 1028 424 1028 q 714 985 624 1028 l 676 844 q 627 863 656 856 q 575 871 599 871 q 478 740 478 871 l 478 643 l 656 643 l 656 500 l 478 500 l 478 -15 q 458 -119 478 -72 q 403 -201 438 -167 q 323 -253 369 -235 q 225 -272 276 -272 z "},"Ǆ":{"ha":1865,"x_min":103,"x_max":1818,"o":"m 1331 1271 l 1449 1183 l 1567 1271 l 1663 1226 l 1515 1086 l 1381 1086 l 1233 1226 l 1331 1271 m 1036 144 l 1593 818 l 1051 818 l 1051 986 l 1814 986 l 1814 842 l 1275 168 l 1818 168 l 1818 0 l 1036 0 l 1036 144 m 103 0 l 103 986 l 461 986 q 673 947 582 986 q 825 842 764 908 q 917 685 886 775 q 947 494 947 596 q 913 291 947 382 q 815 135 879 200 q 662 35 751 71 q 461 0 572 0 l 103 0 m 754 494 q 735 625 754 565 q 678 728 715 685 q 585 794 640 771 q 461 818 531 818 l 294 818 l 294 168 l 461 168 q 587 193 532 168 q 678 262 642 218 q 735 365 715 306 q 754 494 754 425 z "},"ǅ":{"ha":1679,"x_min":103,"x_max":1639,"o":"m 1224 1014 l 1342 926 l 1460 1014 l 1556 969 l 1408 829 l 1274 829 l 1126 969 l 1224 1014 m 1031 114 l 1436 597 l 1047 597 l 1047 728 l 1632 728 l 1632 614 l 1229 131 l 1639 131 l 1639 0 l 1031 0 l 1031 114 m 103 0 l 103 986 l 461 986 q 673 947 582 986 q 825 842 764 908 q 917 685 886 775 q 947 494 947 596 q 913 291 947 382 q 815 135 879 200 q 662 35 751 71 q 461 0 572 0 l 103 0 m 754 494 q 735 625 754 565 q 678 728 715 685 q 585 794 640 771 q 461 818 531 818 l 294 818 l 294 168 l 461 168 q 587 193 532 168 q 678 262 642 218 q 735 365 715 306 q 754 494 754 425 z "},"ǆ":{"ha":1582,"x_min":40,"x_max":1540,"o":"m 1125 1014 l 1243 926 l 1361 1014 l 1457 969 l 1310 829 l 1175 829 l 1028 969 l 1125 1014 m 932 114 l 1338 597 l 949 597 l 949 728 l 1533 728 l 1533 614 l 1131 131 l 1540 131 l 1540 0 l 932 0 l 932 114 m 386 -14 q 247 15 311 -14 q 138 96 183 44 q 66 216 92 147 q 40 364 40 285 q 65 511 40 443 q 132 631 89 579 q 235 711 175 682 q 365 740 294 740 q 510 701 446 740 q 611 600 575 663 l 611 1014 l 797 1014 l 797 214 q 807 172 797 185 q 840 158 817 160 l 840 0 q 761 -10 792 -10 q 679 15 711 -10 q 643 81 647 40 l 639 126 q 530 22 599 57 q 386 -14 461 -14 m 435 144 q 489 153 461 144 q 540 179 517 163 q 583 218 564 196 q 611 267 601 240 l 611 440 q 580 497 600 471 q 534 541 560 522 q 480 571 508 560 q 424 582 451 582 q 347 564 382 582 q 286 515 311 546 q 247 443 261 483 q 233 360 233 403 q 249 275 233 314 q 290 207 264 236 q 353 161 317 178 q 435 144 390 144 z "},"Ǉ":{"ha":1493,"x_min":103,"x_max":1401,"o":"m 864 201 q 929 171 883 188 q 1035 154 975 154 q 1128 174 1093 154 q 1181 236 1163 194 q 1204 340 1199 278 q 1210 485 1210 401 l 1210 986 l 1401 986 l 1401 485 q 1390 280 1401 372 q 1340 122 1378 188 q 1229 21 1301 57 q 1035 -15 1157 -15 q 821 46 910 -15 l 864 201 m 103 0 l 103 986 l 294 986 l 294 168 l 797 168 l 797 0 l 103 0 z "},"ǈ":{"ha":1174,"x_min":103,"x_max":1089,"o":"m 836 -272 q 736 -256 783 -272 q 651 -207 689 -240 l 732 -81 q 769 -103 747 -96 q 814 -111 792 -111 q 876 -85 850 -111 q 903 -19 903 -60 l 903 728 l 1089 728 l 1089 -6 q 1069 -113 1089 -64 q 1016 -198 1050 -162 q 935 -253 982 -233 q 836 -272 889 -272 m 903 829 l 903 1014 l 1089 1014 l 1089 829 l 903 829 m 103 0 l 103 986 l 294 986 l 294 168 l 797 168 l 797 0 l 103 0 z "},"ǉ":{"ha":803,"x_min":83,"x_max":718,"o":"m 465 -272 q 365 -256 413 -272 q 281 -207 318 -240 l 361 -81 q 399 -103 376 -96 q 443 -111 421 -111 q 506 -85 479 -111 q 532 -19 532 -60 l 532 728 l 718 728 l 718 -6 q 699 -113 718 -64 q 645 -198 679 -162 q 565 -253 611 -233 q 465 -272 518 -272 m 532 829 l 532 1014 l 718 1014 l 718 829 l 532 829 m 83 1014 l 269 1014 l 269 233 q 289 171 269 193 q 344 149 308 149 q 381 154 361 149 q 419 168 401 160 l 444 26 q 357 -1 407 8 q 267 -11 307 -11 q 131 35 179 -11 q 83 168 83 82 l 83 1014 z "},"Ǌ":{"ha":1742,"x_min":103,"x_max":1650,"o":"m 1113 201 q 1178 171 1132 188 q 1283 154 1224 154 q 1376 174 1342 154 q 1429 236 1411 194 q 1453 340 1447 278 q 1458 485 1458 401 l 1458 986 l 1650 986 l 1650 485 q 1638 280 1650 372 q 1588 122 1626 188 q 1478 21 1550 57 q 1283 -15 1406 -15 q 1069 46 1158 -15 l 1113 201 m 294 632 l 294 0 l 103 0 l 103 986 l 251 986 l 765 339 l 765 985 l 957 985 l 957 0 l 801 0 l 294 632 z "},"ǋ":{"ha":1422,"x_min":103,"x_max":1338,"o":"m 1085 -272 q 985 -256 1032 -272 q 900 -207 938 -240 l 981 -81 q 1018 -103 996 -96 q 1063 -111 1040 -111 q 1125 -85 1099 -111 q 1151 -19 1151 -60 l 1151 728 l 1338 728 l 1338 -6 q 1318 -113 1338 -64 q 1265 -198 1299 -162 q 1184 -253 1231 -233 q 1085 -272 1138 -272 m 1151 829 l 1151 1014 l 1338 1014 l 1338 829 l 1151 829 m 294 632 l 294 0 l 103 0 l 103 986 l 251 986 l 765 339 l 765 985 l 957 985 l 957 0 l 801 0 l 294 632 z "},"ǌ":{"ha":1201,"x_min":85,"x_max":1117,"o":"m 864 -272 q 764 -256 811 -272 q 679 -207 717 -240 l 760 -81 q 797 -103 775 -96 q 842 -111 819 -111 q 904 -85 878 -111 q 931 -19 931 -60 l 931 728 l 1117 728 l 1117 -6 q 1097 -113 1117 -64 q 1044 -198 1078 -162 q 963 -253 1010 -233 q 864 -272 917 -272 m 931 829 l 931 1014 l 1117 1014 l 1117 829 l 931 829 m 761 0 l 575 0 l 575 408 q 544 536 575 496 q 460 576 514 576 q 403 565 432 576 q 348 534 374 554 q 301 486 322 514 q 271 425 281 458 l 271 0 l 85 0 l 85 728 l 253 728 l 253 593 q 369 701 293 663 q 542 740 446 740 q 653 715 610 740 q 719 650 696 690 q 752 558 743 610 q 761 454 761 507 l 761 0 z "},"Ǫ":{"ha":1050,"x_min":43,"x_max":1006,"o":"m 510 -274 q 390 -229 429 -262 q 350 -153 350 -196 q 377 -77 350 -115 q 461 -3 404 -39 q 290 56 367 10 q 158 169 213 101 q 73 322 103 238 q 43 493 43 406 q 80 682 43 592 q 181 842 117 772 q 335 952 246 911 q 528 993 424 993 q 723 949 635 993 q 874 835 811 906 q 971 674 936 764 q 1006 490 1006 583 q 973 311 1006 397 q 881 158 940 225 q 741 47 822 90 q 563 -4 660 4 q 463 -119 463 -65 q 549 -176 463 -171 l 510 -274 m 238 493 q 257 369 238 429 q 313 264 276 310 q 403 190 350 218 q 525 163 457 163 q 648 191 594 163 q 738 267 701 219 q 794 373 775 314 q 813 493 813 432 q 792 617 813 557 q 735 722 772 676 q 645 795 699 768 q 525 822 592 822 q 401 794 456 822 q 311 719 347 765 q 256 613 275 672 q 238 493 238 554 z "},"ǫ":{"ha":842,"x_min":39,"x_max":801,"o":"m 454 -276 q 334 -232 374 -265 q 294 -156 294 -199 q 319 -83 294 -119 q 393 -12 343 -47 q 244 24 310 -8 q 133 107 179 56 q 63 224 88 158 q 39 363 39 290 q 65 507 39 439 q 141 627 92 575 q 261 710 190 679 q 421 740 332 740 q 580 710 510 740 q 699 627 650 679 q 775 507 749 575 q 801 363 801 439 q 782 238 801 297 q 726 129 763 178 q 635 45 689 81 q 514 -4 582 10 q 407 -122 407 -68 q 493 -179 407 -174 l 454 -276 m 231 363 q 245 274 231 314 q 285 206 260 235 q 346 160 311 176 q 421 144 381 144 q 496 160 461 144 q 556 206 531 176 q 597 275 582 235 q 611 364 611 315 q 597 451 611 411 q 556 521 582 492 q 496 566 531 550 q 421 582 461 582 q 346 565 381 582 q 285 519 311 549 q 245 450 260 490 q 231 363 231 410 z "},"Ǳ":{"ha":1850,"x_min":103,"x_max":1803,"o":"m 1021 144 l 1578 818 l 1036 818 l 1036 986 l 1799 986 l 1799 842 l 1260 168 l 1803 168 l 1803 0 l 1021 0 l 1021 144 m 103 0 l 103 986 l 461 986 q 673 947 582 986 q 825 842 764 908 q 917 685 886 775 q 947 494 947 596 q 913 291 947 382 q 815 135 879 200 q 662 35 751 71 q 461 0 572 0 l 103 0 m 754 494 q 735 625 754 565 q 678 728 715 685 q 585 794 640 771 q 461 818 531 818 l 294 818 l 294 168 l 461 168 q 587 193 532 168 q 678 262 642 218 q 735 365 715 306 q 754 494 754 425 z "},"ǲ":{"ha":1676,"x_min":103,"x_max":1635,"o":"m 1026 114 l 1432 597 l 1043 597 l 1043 728 l 1628 728 l 1628 614 l 1225 131 l 1635 131 l 1635 0 l 1026 0 l 1026 114 m 103 0 l 103 986 l 461 986 q 673 947 582 986 q 825 842 764 908 q 917 685 886 775 q 947 494 947 596 q 913 291 947 382 q 815 135 879 200 q 662 35 751 71 q 461 0 572 0 l 103 0 m 754 494 q 735 625 754 565 q 678 728 715 685 q 585 794 640 771 q 461 818 531 818 l 294 818 l 294 168 l 461 168 q 587 193 532 168 q 678 262 642 218 q 735 365 715 306 q 754 494 754 425 z "},"ǳ":{"ha":1582,"x_min":40,"x_max":1540,"o":"m 932 114 l 1338 597 l 949 597 l 949 728 l 1533 728 l 1533 614 l 1131 131 l 1540 131 l 1540 0 l 932 0 l 932 114 m 386 -14 q 247 15 311 -14 q 138 96 183 44 q 66 216 92 147 q 40 364 40 285 q 65 511 40 443 q 132 631 89 579 q 235 711 175 682 q 365 740 294 740 q 510 701 446 740 q 611 600 575 663 l 611 1014 l 797 1014 l 797 214 q 807 172 797 185 q 840 158 817 160 l 840 0 q 761 -10 792 -10 q 679 15 711 -10 q 643 81 647 40 l 639 126 q 530 22 599 57 q 386 -14 461 -14 m 435 144 q 489 153 461 144 q 540 179 517 163 q 583 218 564 196 q 611 267 601 240 l 611 440 q 580 497 600 471 q 534 541 560 522 q 480 571 508 560 q 424 582 451 582 q 347 564 382 582 q 286 515 311 546 q 247 443 261 483 q 233 360 233 403 q 249 275 233 314 q 290 207 264 236 q 353 161 317 178 q 435 144 390 144 z "},"Ǵ":{"ha":1007,"x_min":44,"x_max":946,"o":"m 579 1069 l 460 1106 l 535 1271 l 708 1271 l 579 1069 m 788 111 q 513 -7 669 -7 q 330 32 415 -7 q 181 139 244 71 q 81 299 118 207 q 44 499 44 392 q 81 690 44 600 q 183 847 118 779 q 335 953 247 914 q 525 993 422 993 q 763 935 664 993 q 913 778 863 876 l 769 672 q 665 785 732 746 q 518 824 597 824 q 403 797 456 824 q 315 725 351 771 q 258 619 278 679 q 238 493 238 560 q 260 363 238 424 q 321 258 282 303 q 413 188 360 214 q 529 163 467 163 q 788 297 672 163 l 788 367 l 589 367 l 589 507 l 946 507 l 946 0 l 788 0 l 788 111 z "},"ǵ":{"ha":881,"x_min":40,"x_max":796,"o":"m 485 813 l 365 849 l 440 1014 l 614 1014 l 485 813 m 368 -4 q 235 25 294 -4 q 131 105 175 54 q 64 222 88 156 q 40 364 40 289 q 65 511 40 443 q 135 631 90 579 q 242 711 179 682 q 379 740 304 740 q 528 702 464 740 q 633 600 592 664 l 633 728 l 796 728 l 796 35 q 765 -110 796 -46 q 681 -218 735 -174 q 553 -286 628 -262 q 392 -310 479 -310 q 191 -270 272 -310 q 51 -158 110 -231 l 153 -60 q 258 -140 194 -111 q 392 -169 321 -169 q 474 -158 435 -169 q 544 -121 514 -146 q 592 -57 575 -96 q 610 35 610 -18 l 610 126 q 508 30 574 64 q 368 -4 443 -4 m 431 144 q 489 154 461 144 q 540 181 517 164 q 582 219 564 197 q 610 267 600 242 l 610 440 q 531 543 585 504 q 419 582 478 582 q 342 563 376 582 q 282 513 307 544 q 244 442 257 482 q 231 358 231 401 q 246 275 231 314 q 288 207 261 236 q 351 161 315 178 q 431 144 388 144 z "},"Ǻ":{"ha":933,"x_min":7,"x_max":928,"o":"m 553 1122 q 601 1036 601 1093 q 564 956 601 985 l 928 0 l 731 0 l 639 246 l 294 246 l 204 0 l 7 0 l 371 956 q 332 1036 332 983 q 359 1106 332 1079 q 432 1140 386 1133 l 486 1275 l 660 1275 l 553 1122 m 604 381 l 468 768 l 326 381 l 604 381 m 467 1086 q 427 1073 443 1086 q 411 1036 411 1060 q 427 1001 411 1015 q 467 986 443 986 q 506 1000 489 986 q 524 1036 524 1014 q 507 1073 524 1060 q 467 1086 490 1086 z "},"ǻ":{"ha":797,"x_min":35,"x_max":753,"o":"m 283 -14 q 185 3 231 -14 q 106 52 139 21 q 53 125 72 83 q 35 217 35 167 q 58 312 35 268 q 122 386 81 356 q 219 434 163 417 q 344 451 276 451 q 440 443 393 451 q 522 419 486 435 l 522 461 q 481 572 522 533 q 360 611 440 611 q 246 590 301 611 q 132 529 190 569 l 75 647 q 378 740 215 740 q 622 663 535 740 q 708 440 708 586 l 708 214 q 719 172 708 185 q 753 158 729 160 l 753 0 q 671 -10 706 -10 q 590 14 618 -10 q 554 76 561 38 l 550 117 q 432 19 501 53 q 283 -14 363 -14 m 336 122 q 426 139 383 122 q 492 183 468 156 q 522 236 522 207 l 522 319 q 450 340 489 332 q 375 347 411 347 q 257 315 303 347 q 211 232 211 282 q 247 153 211 185 q 336 122 283 122 m 426 1049 l 307 1085 l 382 1250 l 556 1250 l 426 1049 m 243 907 q 280 986 243 958 q 378 1014 317 1014 q 476 986 439 1014 q 513 907 513 958 q 476 828 513 856 q 378 800 439 800 q 280 828 317 800 q 243 907 243 856 m 378 957 q 338 944 354 957 q 322 907 322 931 q 338 872 322 886 q 378 857 354 857 q 417 871 400 857 q 435 907 435 885 q 418 944 435 931 q 378 957 401 957 z "},"Ǽ":{"ha":1342,"x_min":-35,"x_max":1294,"o":"m 846 1069 l 726 1106 l 801 1271 l 975 1271 l 846 1069 m 581 986 l 1282 986 l 1282 818 l 819 818 l 819 586 l 1207 586 l 1207 418 l 819 418 l 819 168 l 1294 168 l 1294 0 l 631 0 l 631 246 l 314 246 l 168 0 l -35 0 l 581 986 m 617 413 l 617 771 l 396 413 l 617 413 z "},"ǽ":{"ha":1301,"x_min":35,"x_max":1272,"o":"m 679 813 l 560 849 l 635 1014 l 808 1014 l 679 813 m 283 -14 q 185 3 231 -14 q 106 52 139 21 q 53 125 72 83 q 35 217 35 167 q 58 312 35 268 q 122 386 81 356 q 219 434 163 417 q 344 451 276 451 q 432 444 389 451 q 508 424 475 438 q 513 455 510 436 q 519 485 515 474 q 360 611 507 611 q 246 590 301 611 q 131 529 190 569 l 74 647 q 378 740 217 740 q 528 713 464 740 q 632 638 592 686 q 743 713 678 685 q 890 740 808 740 q 1050 710 979 740 q 1170 628 1121 679 q 1246 508 1219 576 q 1272 364 1272 440 q 1271 332 1272 349 q 1268 304 1269 315 l 699 304 q 763 170 706 218 q 899 122 821 122 q 1003 149 954 122 q 1071 221 1053 176 l 1231 176 q 1101 40 1190 93 q 892 -14 1013 -14 q 708 27 788 -14 q 579 136 628 68 q 519 68 554 96 q 445 22 485 40 q 363 -6 406 3 q 283 -14 321 -14 m 336 122 q 425 139 383 122 q 492 183 467 156 q 514 208 506 194 q 522 233 522 221 q 517 251 519 239 q 513 277 514 264 q 510 303 511 290 q 508 324 508 317 q 442 341 478 335 q 375 347 407 347 q 256 315 303 347 q 210 232 210 282 q 247 153 210 185 q 336 122 283 122 m 1081 419 q 1020 554 1074 503 q 888 606 967 606 q 756 554 808 606 q 696 419 703 503 l 1081 419 z "},"Ǿ":{"ha":1049,"x_min":43,"x_max":1006,"o":"m 972 986 l 869 839 q 970 677 935 768 q 1006 490 1006 586 q 969 302 1006 392 q 869 144 933 213 q 717 34 806 75 q 524 -7 628 -7 q 413 6 465 -7 q 313 42 360 18 l 283 0 l 78 0 l 179 144 q 78 306 114 215 q 43 493 43 397 q 80 682 43 592 q 181 842 117 772 q 335 952 246 911 q 528 993 424 993 q 638 980 586 993 q 735 943 689 967 l 765 986 l 972 986 m 813 493 q 761 683 813 597 l 413 185 q 525 163 465 163 q 648 191 594 163 q 738 267 701 219 q 794 373 775 314 q 813 493 813 432 m 238 493 q 250 391 238 440 q 288 300 263 342 l 635 799 q 525 822 585 822 q 401 794 456 822 q 311 719 347 765 q 256 613 275 672 q 238 493 238 554 m 572 1069 l 453 1106 l 528 1271 l 701 1271 l 572 1069 z "},"ǿ":{"ha":842,"x_min":39,"x_max":801,"o":"m 69 -6 l 150 89 q 67 213 96 142 q 39 363 39 283 q 65 507 39 439 q 141 627 92 575 q 261 710 190 679 q 421 740 332 740 q 529 726 479 740 q 621 689 579 713 l 658 733 l 764 733 l 686 640 q 772 516 742 588 q 801 363 801 444 q 775 219 801 288 q 700 99 749 151 q 581 17 651 47 q 421 -14 510 -14 q 308 0 360 -14 q 214 40 257 14 l 175 -6 l 69 -6 m 421 144 q 496 160 461 144 q 556 206 531 176 q 597 275 582 235 q 611 364 611 315 q 601 440 611 404 q 571 503 590 475 l 319 175 q 421 144 365 144 m 231 363 q 268 226 231 283 l 517 554 q 421 582 474 582 q 346 565 381 582 q 285 519 311 549 q 245 450 260 490 q 231 363 231 410 m 468 813 l 349 849 l 424 1014 l 597 1014 l 468 813 z "},"Ȁ":{"ha":933,"x_min":7,"x_max":928,"o":"m 383 986 l 553 986 l 928 0 l 731 0 l 639 246 l 294 246 l 204 0 l 7 0 l 383 986 m 604 381 l 468 768 l 326 381 l 604 381 m 436 1274 l 582 1274 l 647 1108 l 556 1072 l 436 1274 m 214 1274 l 358 1274 l 425 1108 l 333 1072 l 214 1274 z "},"̏":{"ha":508,"x_min":28,"x_max":461,"o":"m 250 1014 l 396 1014 l 461 849 l 369 813 l 250 1014 m 28 1014 l 172 1014 l 239 849 l 147 813 l 28 1014 z "},"ȁ":{"ha":797,"x_min":35,"x_max":753,"o":"m 283 -14 q 185 3 231 -14 q 106 52 139 21 q 53 125 72 83 q 35 217 35 167 q 58 312 35 268 q 122 386 81 356 q 219 434 163 417 q 344 451 276 451 q 440 443 393 451 q 522 419 486 435 l 522 461 q 481 572 522 533 q 360 611 440 611 q 246 590 301 611 q 132 529 190 569 l 75 647 q 378 740 215 740 q 622 663 535 740 q 708 440 708 586 l 708 214 q 719 172 708 185 q 753 158 729 160 l 753 0 q 671 -10 706 -10 q 590 14 618 -10 q 554 76 561 38 l 550 117 q 432 19 501 53 q 283 -14 363 -14 m 336 122 q 426 139 383 122 q 492 183 468 156 q 522 236 522 207 l 522 319 q 450 340 489 332 q 375 347 411 347 q 257 315 303 347 q 211 232 211 282 q 247 153 211 185 q 336 122 283 122 m 356 1014 l 501 1014 l 567 849 l 475 813 l 356 1014 m 133 1014 l 278 1014 l 344 849 l 253 813 l 133 1014 z "},"Ȃ":{"ha":933,"x_min":7,"x_max":928,"o":"m 383 986 l 553 986 l 928 0 l 731 0 l 639 246 l 294 246 l 204 0 l 7 0 l 383 986 m 604 381 l 468 768 l 326 381 l 604 381 m 468 1188 q 411 1157 436 1188 q 386 1085 386 1126 l 286 1085 q 300 1159 286 1125 q 338 1218 314 1193 q 394 1257 361 1243 q 468 1271 428 1271 q 541 1257 507 1271 q 599 1218 575 1243 q 636 1159 622 1193 q 650 1085 650 1125 l 551 1085 q 524 1158 547 1129 q 468 1188 500 1188 z "},"̑":{"ha":456,"x_min":46,"x_max":410,"o":"m 228 931 q 171 900 196 931 q 146 828 146 869 l 46 828 q 60 902 46 868 q 97 961 74 936 q 154 1000 121 986 q 228 1014 188 1014 q 301 1000 267 1014 q 358 961 335 986 q 396 902 382 936 q 410 828 410 868 l 311 828 q 283 901 307 872 q 228 931 260 931 z "},"ȃ":{"ha":797,"x_min":35,"x_max":753,"o":"m 283 -14 q 185 3 231 -14 q 106 52 139 21 q 53 125 72 83 q 35 217 35 167 q 58 312 35 268 q 122 386 81 356 q 219 434 163 417 q 344 451 276 451 q 440 443 393 451 q 522 419 486 435 l 522 461 q 481 572 522 533 q 360 611 440 611 q 246 590 301 611 q 132 529 190 569 l 75 647 q 378 740 215 740 q 622 663 535 740 q 708 440 708 586 l 708 214 q 719 172 708 185 q 753 158 729 160 l 753 0 q 671 -10 706 -10 q 590 14 618 -10 q 554 76 561 38 l 550 117 q 432 19 501 53 q 283 -14 363 -14 m 336 122 q 426 139 383 122 q 492 183 468 156 q 522 236 522 207 l 522 319 q 450 340 489 332 q 375 347 411 347 q 257 315 303 347 q 211 232 211 282 q 247 153 211 185 q 336 122 283 122 m 392 931 q 335 900 360 931 q 310 828 310 869 l 210 828 q 224 902 210 868 q 261 961 238 936 q 318 1000 285 986 q 392 1014 351 1014 q 465 1000 431 1014 q 522 961 499 986 q 560 902 546 936 q 574 828 574 868 l 475 828 q 447 901 471 872 q 392 931 424 931 z "},"Ȅ":{"ha":835,"x_min":103,"x_max":788,"o":"m 415 1274 l 561 1274 l 626 1108 l 535 1072 l 415 1274 m 193 1274 l 338 1274 l 404 1108 l 313 1072 l 193 1274 m 788 168 l 788 0 l 103 0 l 103 986 l 775 986 l 775 818 l 294 818 l 294 581 l 710 581 l 710 425 l 294 425 l 294 168 l 788 168 z "},"ȅ":{"ha":832,"x_min":39,"x_max":803,"o":"m 396 1014 l 542 1014 l 607 849 l 515 813 l 396 1014 m 174 1014 l 318 1014 l 385 849 l 293 813 l 174 1014 m 422 -14 q 264 16 335 -14 q 143 97 193 46 q 66 217 93 149 q 39 360 39 285 q 65 506 39 438 q 142 627 92 575 q 263 710 192 679 q 424 740 335 740 q 583 710 513 740 q 702 628 653 679 q 777 508 751 576 q 803 367 803 440 q 802 332 803 349 q 799 304 801 315 l 236 304 q 257 228 240 261 q 300 171 274 194 q 360 135 326 147 q 429 122 393 122 q 534 149 485 122 q 601 221 583 176 l 761 176 q 633 40 721 93 q 422 -14 544 -14 m 611 425 q 551 556 604 507 q 421 606 497 606 q 351 592 383 606 q 293 556 318 579 q 252 499 268 532 q 233 425 236 465 l 611 425 z "},"Ȇ":{"ha":835,"x_min":103,"x_max":788,"o":"m 450 1188 q 393 1157 418 1188 q 368 1085 368 1126 l 268 1085 q 282 1159 268 1125 q 319 1218 296 1193 q 376 1257 343 1243 q 450 1271 410 1271 q 523 1257 489 1271 q 581 1218 557 1243 q 618 1159 604 1193 q 632 1085 632 1125 l 533 1085 q 506 1158 529 1129 q 450 1188 482 1188 m 788 168 l 788 0 l 103 0 l 103 986 l 775 986 l 775 818 l 294 818 l 294 581 l 710 581 l 710 425 l 294 425 l 294 168 l 788 168 z "},"ȇ":{"ha":832,"x_min":39,"x_max":803,"o":"m 425 931 q 368 900 393 931 q 343 828 343 869 l 243 828 q 257 902 243 868 q 294 961 271 936 q 351 1000 318 986 q 425 1014 385 1014 q 498 1000 464 1014 q 556 961 532 986 q 593 902 579 936 q 607 828 607 868 l 508 828 q 481 901 504 872 q 425 931 457 931 m 422 -14 q 264 16 335 -14 q 143 97 193 46 q 66 217 93 149 q 39 360 39 285 q 65 506 39 438 q 142 627 92 575 q 263 710 192 679 q 424 740 335 740 q 583 710 513 740 q 702 628 653 679 q 777 508 751 576 q 803 367 803 440 q 802 332 803 349 q 799 304 801 315 l 236 304 q 257 228 240 261 q 300 171 274 194 q 360 135 326 147 q 429 122 393 122 q 534 149 485 122 q 601 221 583 176 l 761 176 q 633 40 721 93 q 422 -14 544 -14 m 611 425 q 551 556 604 507 q 421 606 497 606 q 351 592 383 606 q 293 556 318 579 q 252 499 268 532 q 233 425 236 465 l 611 425 z "},"Ȉ":{"ha":397,"x_min":-44,"x_max":389,"o":"m 103 0 l 103 986 l 294 986 l 294 0 l 103 0 m 178 1274 l 324 1274 l 389 1108 l 297 1072 l 178 1274 m -44 1274 l 100 1274 l 167 1108 l 75 1072 l -44 1274 z "},"ȉ":{"ha":354,"x_min":-61,"x_max":372,"o":"m 161 1014 l 307 1014 l 372 849 l 281 813 l 161 1014 m -61 1014 l 83 1014 l 150 849 l 58 813 l -61 1014 m 85 0 l 85 728 l 271 728 l 271 0 l 85 0 z "},"Ȋ":{"ha":397,"x_min":14,"x_max":378,"o":"m 103 0 l 103 986 l 294 986 l 294 0 l 103 0 m 196 1188 q 139 1157 164 1188 q 114 1085 114 1126 l 14 1085 q 28 1159 14 1125 q 65 1218 42 1193 q 122 1257 89 1243 q 196 1271 156 1271 q 269 1257 235 1271 q 326 1218 303 1243 q 364 1159 350 1193 q 378 1085 378 1125 l 279 1085 q 251 1158 275 1129 q 196 1188 228 1188 z "},"ȋ":{"ha":354,"x_min":-4,"x_max":360,"o":"m 178 931 q 121 900 146 931 q 96 828 96 869 l -4 828 q 10 902 -4 868 q 47 961 24 936 q 104 1000 71 986 q 178 1014 138 1014 q 251 1000 217 1014 q 308 961 285 986 q 346 902 332 936 q 360 828 360 868 l 261 828 q 233 901 257 872 q 178 931 210 931 m 85 0 l 85 728 l 271 728 l 271 0 l 85 0 z "},"Ȍ":{"ha":1050,"x_min":43,"x_max":1006,"o":"m 489 1274 l 635 1274 l 700 1108 l 608 1072 l 489 1274 m 267 1274 l 411 1274 l 478 1108 l 386 1072 l 267 1274 m 524 -7 q 327 35 415 -7 q 176 148 239 78 q 78 308 113 218 q 43 493 43 399 q 80 682 43 592 q 181 842 117 772 q 335 952 246 911 q 528 993 424 993 q 723 949 635 993 q 874 835 811 906 q 971 674 936 764 q 1006 490 1006 583 q 969 302 1006 392 q 869 144 933 213 q 717 34 806 75 q 524 -7 628 -7 m 238 493 q 257 369 238 429 q 313 264 276 310 q 403 190 350 218 q 525 163 457 163 q 648 191 594 163 q 738 267 701 219 q 794 373 775 314 q 813 493 813 432 q 792 617 813 557 q 735 722 772 676 q 645 795 699 768 q 525 822 592 822 q 401 794 456 822 q 311 719 347 765 q 256 613 275 672 q 238 493 238 554 z "},"ȍ":{"ha":842,"x_min":39,"x_max":801,"o":"m 392 1014 l 538 1014 l 603 849 l 511 813 l 392 1014 m 169 1014 l 314 1014 l 381 849 l 289 813 l 169 1014 m 421 -14 q 261 17 332 -14 q 141 99 190 47 q 65 219 92 151 q 39 363 39 288 q 65 507 39 439 q 141 627 92 575 q 261 710 190 679 q 421 740 332 740 q 580 710 510 740 q 699 627 650 679 q 775 507 749 575 q 801 363 801 439 q 775 219 801 288 q 700 99 749 151 q 581 17 651 47 q 421 -14 510 -14 m 231 363 q 245 274 231 314 q 285 206 260 235 q 346 160 311 176 q 421 144 381 144 q 496 160 461 144 q 556 206 531 176 q 597 275 582 235 q 611 364 611 315 q 597 451 611 411 q 556 521 582 492 q 496 566 531 550 q 421 582 461 582 q 346 565 381 582 q 285 519 311 549 q 245 450 260 490 q 231 363 231 410 z "},"Ȏ":{"ha":1050,"x_min":43,"x_max":1006,"o":"m 526 1188 q 469 1157 494 1188 q 444 1085 444 1126 l 344 1085 q 358 1159 344 1125 q 396 1218 372 1193 q 453 1257 419 1243 q 526 1271 486 1271 q 599 1257 565 1271 q 657 1218 633 1243 q 694 1159 681 1193 q 708 1085 708 1125 l 610 1085 q 582 1158 606 1129 q 526 1188 558 1188 m 524 -7 q 327 35 415 -7 q 176 148 239 78 q 78 308 113 218 q 43 493 43 399 q 80 682 43 592 q 181 842 117 772 q 335 952 246 911 q 528 993 424 993 q 723 949 635 993 q 874 835 811 906 q 971 674 936 764 q 1006 490 1006 583 q 969 302 1006 392 q 869 144 933 213 q 717 34 806 75 q 524 -7 628 -7 m 238 493 q 257 369 238 429 q 313 264 276 310 q 403 190 350 218 q 525 163 457 163 q 648 191 594 163 q 738 267 701 219 q 794 373 775 314 q 813 493 813 432 q 792 617 813 557 q 735 722 772 676 q 645 795 699 768 q 525 822 592 822 q 401 794 456 822 q 311 719 347 765 q 256 613 275 672 q 238 493 238 554 z "},"ȏ":{"ha":842,"x_min":39,"x_max":801,"o":"m 419 931 q 363 900 388 931 q 338 828 338 869 l 238 828 q 251 902 238 868 q 289 961 265 936 q 346 1000 313 986 q 419 1014 379 1014 q 492 1000 458 1014 q 550 961 526 986 q 588 902 574 936 q 601 828 601 868 l 503 828 q 475 901 499 872 q 419 931 451 931 m 421 -14 q 261 17 332 -14 q 141 99 190 47 q 65 219 92 151 q 39 363 39 288 q 65 507 39 439 q 141 627 92 575 q 261 710 190 679 q 421 740 332 740 q 580 710 510 740 q 699 627 650 679 q 775 507 749 575 q 801 363 801 439 q 775 219 801 288 q 700 99 749 151 q 581 17 651 47 q 421 -14 510 -14 m 231 363 q 245 274 231 314 q 285 206 260 235 q 346 160 311 176 q 421 144 381 144 q 496 160 461 144 q 556 206 531 176 q 597 275 582 235 q 611 364 611 315 q 597 451 611 411 q 556 521 582 492 q 496 566 531 550 q 421 582 461 582 q 346 565 381 582 q 285 519 311 549 q 245 450 260 490 q 231 363 231 410 z "},"Ȑ":{"ha":924,"x_min":103,"x_max":900,"o":"m 408 1274 l 554 1274 l 619 1108 l 528 1072 l 408 1274 m 186 1274 l 331 1274 l 397 1108 l 306 1072 l 186 1274 m 103 0 l 103 986 l 539 986 q 665 958 607 986 q 764 883 722 929 q 829 777 806 836 q 853 658 853 718 q 805 484 853 563 q 675 371 757 406 l 900 0 l 685 0 l 483 331 l 294 331 l 294 0 l 103 0 m 294 499 l 535 499 q 584 511 561 499 q 624 545 607 524 q 650 596 640 567 q 660 658 660 625 q 649 722 660 693 q 619 773 638 751 q 576 806 600 794 q 526 818 551 818 l 294 818 l 294 499 z "},"ȑ":{"ha":538,"x_min":58,"x_max":518,"o":"m 281 1014 l 426 1014 l 492 849 l 400 813 l 281 1014 m 58 1014 l 203 1014 l 269 849 l 178 813 l 58 1014 m 518 567 q 367 534 433 565 q 271 440 300 503 l 271 0 l 85 0 l 85 728 l 256 728 l 256 572 q 301 640 275 610 q 358 692 328 669 q 420 726 389 714 q 481 738 451 738 q 503 738 496 738 q 518 736 511 738 l 518 567 z "},"Ȓ":{"ha":924,"x_min":103,"x_max":900,"o":"m 447 1188 q 390 1157 415 1188 q 365 1085 365 1126 l 265 1085 q 279 1159 265 1125 q 317 1218 293 1193 q 374 1257 340 1243 q 447 1271 407 1271 q 520 1257 486 1271 q 578 1218 554 1243 q 615 1159 601 1193 q 629 1085 629 1125 l 531 1085 q 503 1158 526 1129 q 447 1188 479 1188 m 103 0 l 103 986 l 539 986 q 665 958 607 986 q 764 883 722 929 q 829 777 806 836 q 853 658 853 718 q 805 484 853 563 q 675 371 757 406 l 900 0 l 685 0 l 483 331 l 294 331 l 294 0 l 103 0 m 294 499 l 535 499 q 584 511 561 499 q 624 545 607 524 q 650 596 640 567 q 660 658 660 625 q 649 722 660 693 q 619 773 638 751 q 576 806 600 794 q 526 818 551 818 l 294 818 l 294 499 z "},"ȓ":{"ha":538,"x_min":85,"x_max":518,"o":"m 299 931 q 242 900 267 931 q 217 828 217 869 l 117 828 q 131 902 117 868 q 168 961 144 936 q 225 1000 192 986 q 299 1014 258 1014 q 372 1000 338 1014 q 429 961 406 986 q 467 902 453 936 q 481 828 481 868 l 382 828 q 354 901 378 872 q 299 931 331 931 m 518 567 q 367 534 433 565 q 271 440 300 503 l 271 0 l 85 0 l 85 728 l 256 728 l 256 572 q 301 640 275 610 q 358 692 328 669 q 420 726 389 714 q 481 738 451 738 q 503 738 496 738 q 518 736 511 738 l 518 567 z "},"Ȕ":{"ha":1042,"x_min":89,"x_max":951,"o":"m 489 1274 l 635 1274 l 700 1108 l 608 1072 l 489 1274 m 267 1274 l 411 1274 l 478 1108 l 386 1072 l 267 1274 m 519 163 q 634 190 588 163 q 709 263 681 218 q 749 365 738 307 q 761 483 761 422 l 761 986 l 951 986 l 951 483 q 927 293 951 382 q 851 138 903 204 q 717 32 799 71 q 521 -7 635 -7 q 320 34 403 -7 q 186 142 238 75 q 112 299 135 210 q 89 483 89 388 l 89 986 l 281 986 l 281 483 q 292 363 281 421 q 333 261 304 306 q 407 190 361 217 q 519 163 453 163 z "},"ȕ":{"ha":858,"x_min":78,"x_max":803,"o":"m 393 1014 l 539 1014 l 604 849 l 513 813 l 393 1014 m 171 1014 l 315 1014 l 382 849 l 290 813 l 171 1014 m 307 -14 q 136 58 194 -14 q 78 272 78 131 l 78 728 l 264 728 l 264 313 q 385 144 264 144 q 490 177 439 144 q 572 276 540 210 l 572 728 l 758 728 l 758 214 q 769 172 758 185 q 803 158 779 160 l 803 0 q 756 -7 775 -6 q 722 -8 738 -8 q 641 15 672 -8 q 604 78 610 38 l 600 136 q 475 24 551 61 q 307 -14 399 -14 z "},"Ȗ":{"ha":1042,"x_min":89,"x_max":951,"o":"m 519 1188 q 463 1157 488 1188 q 438 1085 438 1126 l 338 1085 q 351 1159 338 1125 q 389 1218 365 1193 q 446 1257 413 1243 q 519 1271 479 1271 q 592 1257 558 1271 q 650 1218 626 1243 q 688 1159 674 1193 q 701 1085 701 1125 l 603 1085 q 575 1158 599 1129 q 519 1188 551 1188 m 519 163 q 634 190 588 163 q 709 263 681 218 q 749 365 738 307 q 761 483 761 422 l 761 986 l 951 986 l 951 483 q 927 293 951 382 q 851 138 903 204 q 717 32 799 71 q 521 -7 635 -7 q 320 34 403 -7 q 186 142 238 75 q 112 299 135 210 q 89 483 89 388 l 89 986 l 281 986 l 281 483 q 292 363 281 421 q 333 261 304 306 q 407 190 361 217 q 519 163 453 163 z "},"ȗ":{"ha":858,"x_min":78,"x_max":803,"o":"m 414 931 q 357 900 382 931 q 332 828 332 869 l 232 828 q 246 902 232 868 q 283 961 260 936 q 340 1000 307 986 q 414 1014 374 1014 q 487 1000 453 1014 q 544 961 521 986 q 582 902 568 936 q 596 828 596 868 l 497 828 q 469 901 493 872 q 414 931 446 931 m 307 -14 q 136 58 194 -14 q 78 272 78 131 l 78 728 l 264 728 l 264 313 q 385 144 264 144 q 490 177 439 144 q 572 276 540 210 l 572 728 l 758 728 l 758 214 q 769 172 758 185 q 803 158 779 160 l 803 0 q 756 -7 775 -6 q 722 -8 738 -8 q 641 15 672 -8 q 604 78 610 38 l 600 136 q 475 24 551 61 q 307 -14 399 -14 z "},"Ș":{"ha":851,"x_min":31,"x_max":810,"o":"m 382 -296 l 419 -196 l 365 -196 l 365 -65 l 522 -65 l 522 -196 l 467 -296 l 382 -296 m 690 728 q 655 754 681 738 q 592 787 629 771 q 513 814 556 803 q 425 825 469 825 q 307 796 346 825 q 268 714 268 767 q 283 663 268 683 q 325 628 297 643 q 395 600 353 613 q 493 574 438 588 q 624 532 565 554 q 724 476 683 510 q 788 397 765 443 q 810 282 810 350 q 780 147 810 203 q 699 56 750 90 q 583 5 649 21 q 444 -11 517 -11 q 225 22 333 -11 q 31 117 117 56 l 115 282 q 160 249 128 269 q 238 209 193 229 q 336 175 282 189 q 447 161 390 161 q 606 263 606 161 q 588 317 606 294 q 536 356 569 339 q 456 386 503 372 q 350 417 408 400 q 227 459 279 436 q 140 513 175 482 q 88 585 106 544 q 71 683 71 626 q 99 817 71 758 q 176 914 126 875 q 290 973 225 953 q 431 993 356 993 q 622 960 535 993 q 775 883 710 928 l 690 728 z "},"ș":{"ha":690,"x_min":31,"x_max":654,"o":"m 293 -296 l 331 -196 l 276 -196 l 276 -65 l 433 -65 l 433 -196 l 378 -296 l 293 -296 m 360 -14 q 181 15 268 -14 q 31 99 93 44 l 100 215 q 230 144 167 168 q 356 119 293 119 q 443 140 411 119 q 475 200 475 161 q 438 257 475 239 q 315 299 400 275 q 194 336 244 318 q 114 377 144 354 q 69 430 83 400 q 56 501 56 460 q 77 601 56 557 q 138 677 99 646 q 228 725 176 708 q 342 742 281 742 q 495 718 424 742 q 626 642 567 694 l 551 529 q 444 590 496 571 q 340 610 392 610 q 261 590 293 610 q 229 528 229 571 q 237 496 229 508 q 261 474 244 483 q 305 455 278 464 q 372 436 332 446 q 501 397 447 417 q 588 353 554 378 q 638 295 622 328 q 654 217 654 263 q 575 48 654 110 q 360 -14 496 -14 z "},"Ț":{"ha":860,"x_min":19,"x_max":840,"o":"m 371 -296 l 408 -196 l 354 -196 l 354 -65 l 511 -65 l 511 -196 l 456 -296 l 371 -296 m 840 818 l 525 818 l 525 0 l 335 0 l 335 818 l 19 818 l 19 986 l 840 986 l 840 818 z "},"ț":{"ha":533,"x_min":31,"x_max":521,"o":"m 247 -296 l 285 -196 l 231 -196 l 231 -65 l 388 -65 l 388 -196 l 332 -296 l 247 -296 m 521 38 q 429 4 483 21 q 315 -12 375 -12 q 242 -3 276 -12 q 183 28 208 7 q 142 84 157 50 q 126 167 126 118 l 126 585 l 31 585 l 31 728 l 126 728 l 126 964 l 313 964 l 313 728 l 465 728 l 465 585 l 313 585 l 313 229 q 333 174 313 190 q 382 158 353 158 q 439 168 411 158 q 483 185 467 178 l 521 38 z "},"ə":{"ha":832,"x_min":29,"x_max":793,"o":"m 413 -14 q 253 17 324 -14 q 133 99 182 47 q 56 218 83 150 q 29 363 29 286 q 31 394 29 378 q 33 422 32 411 l 596 422 q 575 499 592 465 q 532 556 558 532 q 473 592 506 579 q 404 604 440 604 q 298 577 347 604 q 231 506 249 550 l 72 550 q 200 687 113 633 q 410 740 288 740 q 568 710 497 740 q 689 629 639 681 q 766 510 739 578 q 793 365 793 442 q 767 219 793 288 q 691 99 740 150 q 572 17 642 47 q 413 -14 501 -14 m 414 121 q 542 172 490 121 q 600 307 593 224 l 222 307 q 242 231 225 265 q 284 172 258 197 q 343 134 310 147 q 414 121 376 121 z "},"ˉ":{"ha":582,"x_min":83,"x_max":500,"o":"m 83 879 l 83 994 l 500 994 l 500 879 l 83 879 z "},"Δ":{"ha":906,"x_min":25,"x_max":879,"o":"m 879 144 l 879 0 l 25 0 l 25 144 l 376 986 l 532 986 l 879 144 m 690 168 l 454 774 l 221 168 l 690 168 z "},"Ω":{"ha":1075,"x_min":53,"x_max":1024,"o":"m 53 142 l 282 142 q 124 295 182 199 q 67 514 67 392 q 102 695 67 608 q 201 848 138 782 q 350 953 264 914 q 538 993 436 993 q 725 953 639 993 q 874 848 811 914 q 974 695 938 782 q 1010 514 1010 608 q 951 295 1010 392 q 793 142 893 199 l 1024 142 l 1024 0 l 597 0 l 597 142 q 690 199 649 160 q 760 288 731 238 q 805 397 789 338 q 821 514 821 456 q 801 626 821 571 q 745 726 782 682 q 656 796 708 769 q 538 822 603 822 q 419 796 472 822 q 331 726 367 769 q 275 626 294 682 q 256 514 256 571 q 271 397 256 456 q 315 288 286 338 q 386 199 344 238 q 479 142 428 160 l 479 0 l 53 0 l 53 142 z "},"μ":{"ha":872,"x_min":85,"x_max":817,"o":"m 85 728 l 271 728 l 271 313 q 396 144 271 144 q 498 177 447 144 q 581 276 549 210 l 581 728 l 767 728 l 767 214 q 778 172 767 185 q 817 158 789 160 l 817 0 q 767 -7 788 -6 q 729 -8 746 -8 q 646 17 678 -8 q 611 83 614 42 l 608 136 q 573 85 596 111 q 520 36 550 58 q 455 0 490 14 q 383 -14 419 -14 q 335 -6 356 -14 q 299 15 314 3 q 273 41 283 26 q 258 68 263 56 l 271 -294 l 85 -294 l 85 728 z "},"π":{"ha":892,"x_min":36,"x_max":865,"o":"m 324 564 l 324 0 l 140 0 l 140 564 l 36 564 l 36 725 l 824 725 l 824 564 l 690 564 l 690 233 q 765 149 690 149 q 802 154 782 149 q 839 168 822 160 l 865 26 q 777 -1 826 8 q 686 -11 728 -11 q 553 35 601 -11 q 506 168 506 82 l 506 564 l 324 564 z "},"Ḍ":{"ha":994,"x_min":103,"x_max":947,"o":"m 390 -272 l 390 -97 l 558 -97 l 558 -272 l 390 -272 m 103 0 l 103 986 l 461 986 q 673 947 582 986 q 825 842 764 908 q 917 685 886 775 q 947 494 947 596 q 913 291 947 382 q 815 135 879 200 q 662 35 751 71 q 461 0 572 0 l 103 0 m 754 494 q 735 625 754 565 q 678 728 715 685 q 585 794 640 771 q 461 818 531 818 l 294 818 l 294 168 l 461 168 q 587 193 532 168 q 678 262 642 218 q 735 365 715 306 q 754 494 754 425 z "},"ḍ":{"ha":896,"x_min":40,"x_max":840,"o":"m 368 -272 l 368 -97 l 536 -97 l 536 -272 l 368 -272 m 386 -14 q 247 15 311 -14 q 138 96 183 44 q 66 216 92 147 q 40 364 40 285 q 65 511 40 443 q 132 631 89 579 q 235 711 175 682 q 365 740 294 740 q 510 701 446 740 q 611 600 575 663 l 611 1014 l 797 1014 l 797 214 q 807 172 797 185 q 840 158 817 160 l 840 0 q 761 -10 792 -10 q 679 15 711 -10 q 643 81 647 40 l 639 126 q 530 22 599 57 q 386 -14 461 -14 m 435 144 q 489 153 461 144 q 540 179 517 163 q 583 218 564 196 q 611 267 601 240 l 611 440 q 580 497 600 471 q 534 541 560 522 q 480 571 508 560 q 424 582 451 582 q 347 564 382 582 q 286 515 311 546 q 247 443 261 483 q 233 360 233 403 q 249 275 233 314 q 290 207 264 236 q 353 161 317 178 q 435 144 390 144 z "},"Ḥ":{"ha":1035,"x_min":103,"x_max":932,"o":"m 932 986 l 932 0 l 742 0 l 742 421 l 294 421 l 294 0 l 103 0 l 103 986 l 294 986 l 294 588 l 742 588 l 742 986 l 932 986 m 432 -272 l 432 -97 l 600 -97 l 600 -272 l 432 -272 z "},"ḥ":{"ha":839,"x_min":85,"x_max":761,"o":"m 761 0 l 575 0 l 575 408 q 543 535 575 494 q 453 576 511 576 q 400 565 428 576 q 347 534 372 554 q 301 486 322 514 q 271 425 281 458 l 271 0 l 85 0 l 85 1014 l 271 1014 l 271 593 q 380 702 311 664 q 532 740 449 740 q 647 716 603 740 q 717 651 692 692 q 751 560 742 611 q 761 454 761 508 l 761 0 m 340 -272 l 340 -97 l 508 -97 l 508 -272 l 340 -272 z "},"Ṅ":{"ha":1060,"x_min":103,"x_max":957,"o":"m 446 1096 l 446 1271 l 614 1271 l 614 1096 l 446 1096 m 294 632 l 294 0 l 103 0 l 103 986 l 251 986 l 765 339 l 765 985 l 957 985 l 957 0 l 801 0 l 294 632 z "},"ṅ":{"ha":839,"x_min":85,"x_max":761,"o":"m 356 839 l 356 1014 l 524 1014 l 524 839 l 356 839 m 761 0 l 575 0 l 575 408 q 544 536 575 496 q 460 576 514 576 q 403 565 432 576 q 348 534 374 554 q 301 486 322 514 q 271 425 281 458 l 271 0 l 85 0 l 85 728 l 253 728 l 253 593 q 369 701 293 663 q 542 740 446 740 q 653 715 610 740 q 719 650 696 690 q 752 558 743 610 q 761 454 761 507 l 761 0 z "},"Ṛ":{"ha":924,"x_min":103,"x_max":900,"o":"m 103 0 l 103 986 l 539 986 q 665 958 607 986 q 764 883 722 929 q 829 777 806 836 q 853 658 853 718 q 805 484 853 563 q 675 371 757 406 l 900 0 l 685 0 l 483 331 l 294 331 l 294 0 l 103 0 m 294 499 l 535 499 q 584 511 561 499 q 624 545 607 524 q 650 596 640 567 q 660 658 660 625 q 649 722 660 693 q 619 773 638 751 q 576 806 600 794 q 526 818 551 818 l 294 818 l 294 499 m 382 -272 l 382 -97 l 550 -97 l 550 -272 l 382 -272 z "},"ṛ":{"ha":538,"x_min":85,"x_max":518,"o":"m 518 567 q 367 534 433 565 q 271 440 300 503 l 271 0 l 85 0 l 85 728 l 256 728 l 256 572 q 301 640 275 610 q 358 692 328 669 q 420 726 389 714 q 481 738 451 738 q 503 738 496 738 q 518 736 511 738 l 518 567 m 94 -272 l 94 -97 l 263 -97 l 263 -272 l 94 -272 z "},"Ṣ":{"ha":851,"x_min":31,"x_max":810,"o":"m 690 728 q 655 754 681 738 q 592 787 629 771 q 513 814 556 803 q 425 825 469 825 q 307 796 346 825 q 268 714 268 767 q 283 663 268 683 q 325 628 297 643 q 395 600 353 613 q 493 574 438 588 q 624 532 565 554 q 724 476 683 510 q 788 397 765 443 q 810 282 810 350 q 780 147 810 203 q 699 56 750 90 q 583 5 649 21 q 444 -11 517 -11 q 225 22 333 -11 q 31 117 117 56 l 115 282 q 160 249 128 269 q 238 209 193 229 q 336 175 282 189 q 447 161 390 161 q 606 263 606 161 q 588 317 606 294 q 536 356 569 339 q 456 386 503 372 q 350 417 408 400 q 227 459 279 436 q 140 513 175 482 q 88 585 106 544 q 71 683 71 626 q 99 817 71 758 q 176 914 126 875 q 290 973 225 953 q 431 993 356 993 q 622 960 535 993 q 775 883 710 928 l 690 728 m 338 -272 l 338 -97 l 506 -97 l 506 -272 l 338 -272 z "},"ṣ":{"ha":690,"x_min":31,"x_max":654,"o":"m 360 -14 q 181 15 268 -14 q 31 99 93 44 l 100 215 q 230 144 167 168 q 356 119 293 119 q 443 140 411 119 q 475 200 475 161 q 438 257 475 239 q 315 299 400 275 q 194 336 244 318 q 114 377 144 354 q 69 430 83 400 q 56 501 56 460 q 77 601 56 557 q 138 677 99 646 q 228 725 176 708 q 342 742 281 742 q 495 718 424 742 q 626 642 567 694 l 551 529 q 444 590 496 571 q 340 610 392 610 q 261 590 293 610 q 229 528 229 571 q 237 496 229 508 q 261 474 244 483 q 305 455 278 464 q 372 436 332 446 q 501 397 447 417 q 588 353 554 378 q 638 295 622 328 q 654 217 654 263 q 575 48 654 110 q 360 -14 496 -14 m 261 -272 l 261 -97 l 429 -97 l 429 -272 l 261 -272 z "},"Ṭ":{"ha":860,"x_min":19,"x_max":840,"o":"m 343 -272 l 343 -97 l 511 -97 l 511 -272 l 343 -272 m 840 818 l 525 818 l 525 0 l 335 0 l 335 818 l 19 818 l 19 986 l 840 986 l 840 818 z "},"ṭ":{"ha":533,"x_min":31,"x_max":521,"o":"m 224 -272 l 224 -97 l 392 -97 l 392 -272 l 224 -272 m 521 38 q 429 4 483 21 q 315 -12 375 -12 q 242 -3 276 -12 q 183 28 208 7 q 142 84 157 50 q 126 167 126 118 l 126 585 l 31 585 l 31 728 l 126 728 l 126 964 l 313 964 l 313 728 l 465 728 l 465 585 l 313 585 l 313 229 q 333 174 313 190 q 382 158 353 158 q 439 168 411 158 q 483 185 467 178 l 521 38 z "},"Ẁ":{"ha":1463,"x_min":0,"x_max":1464,"o":"m 443 983 l 619 983 l 731 657 l 842 983 l 1019 983 l 851 535 l 976 219 l 1256 986 l 1464 986 l 1063 0 l 901 0 l 731 414 l 560 0 l 399 0 l 0 986 l 206 986 l 486 219 l 608 535 l 443 983 m 553 1272 l 725 1272 l 801 1107 l 682 1071 l 553 1272 z "},"ẁ":{"ha":1165,"x_min":3,"x_max":1164,"o":"m 988 728 l 1164 728 l 860 0 l 707 0 l 582 319 l 458 0 l 306 0 l 3 728 l 178 728 l 394 175 l 483 411 l 356 726 l 506 726 l 582 503 l 660 726 l 810 726 l 683 411 l 771 175 l 988 728 m 406 1014 l 578 1014 l 654 849 l 535 813 l 406 1014 z "},"Ẃ":{"ha":1463,"x_min":0,"x_max":1464,"o":"m 779 1069 l 660 1106 l 735 1271 l 908 1271 l 779 1069 m 443 983 l 619 983 l 731 657 l 842 983 l 1019 983 l 851 535 l 976 219 l 1256 986 l 1464 986 l 1063 0 l 901 0 l 731 414 l 560 0 l 399 0 l 0 986 l 206 986 l 486 219 l 608 535 l 443 983 z "},"ẃ":{"ha":1165,"x_min":3,"x_max":1164,"o":"m 631 813 l 511 849 l 586 1014 l 760 1014 l 631 813 m 988 728 l 1164 728 l 860 0 l 707 0 l 582 319 l 458 0 l 306 0 l 3 728 l 178 728 l 394 175 l 483 411 l 356 726 l 506 726 l 582 503 l 660 726 l 810 726 l 683 411 l 771 175 l 988 728 z "},"Ẅ":{"ha":1463,"x_min":0,"x_max":1464,"o":"m 519 1097 l 519 1263 l 674 1263 l 674 1097 l 519 1097 m 786 1097 l 786 1263 l 940 1263 l 940 1097 l 786 1097 m 443 983 l 619 983 l 731 657 l 842 983 l 1019 983 l 851 535 l 976 219 l 1256 986 l 1464 986 l 1063 0 l 901 0 l 731 414 l 560 0 l 399 0 l 0 986 l 206 986 l 486 219 l 608 535 l 443 983 z "},"ẅ":{"ha":1165,"x_min":3,"x_max":1164,"o":"m 372 839 l 372 1004 l 526 1004 l 526 839 l 372 839 m 639 839 l 639 1004 l 793 1004 l 793 839 l 639 839 m 988 728 l 1164 728 l 860 0 l 707 0 l 582 319 l 458 0 l 306 0 l 3 728 l 178 728 l 394 175 l 483 411 l 356 726 l 506 726 l 582 503 l 660 726 l 810 726 l 683 411 l 771 175 l 988 728 z "},"Ẓ":{"ha":871,"x_min":42,"x_max":824,"o":"m 42 144 l 599 818 l 57 818 l 57 986 l 819 986 l 819 842 l 281 168 l 824 168 l 824 0 l 42 0 l 42 144 m 360 -272 l 360 -97 l 528 -97 l 528 -272 l 360 -272 z "},"ẓ":{"ha":685,"x_min":36,"x_max":644,"o":"m 36 114 l 442 597 l 53 597 l 53 728 l 638 728 l 638 614 l 235 131 l 644 131 l 644 0 l 36 0 l 36 114 m 256 -272 l 256 -97 l 424 -97 l 424 -272 l 256 -272 z "},"Ẹ":{"ha":835,"x_min":103,"x_max":788,"o":"m 788 168 l 788 0 l 103 0 l 103 986 l 775 986 l 775 818 l 294 818 l 294 581 l 710 581 l 710 425 l 294 425 l 294 168 l 788 168 m 360 -272 l 360 -97 l 528 -97 l 528 -272 l 360 -272 z "},"ẹ":{"ha":832,"x_min":39,"x_max":803,"o":"m 422 -14 q 264 16 335 -14 q 143 97 193 46 q 66 217 93 149 q 39 360 39 285 q 65 506 39 438 q 142 627 92 575 q 263 710 192 679 q 424 740 335 740 q 583 710 513 740 q 702 628 653 679 q 777 508 751 576 q 803 367 803 440 q 802 332 803 349 q 799 304 801 315 l 236 304 q 257 228 240 261 q 300 171 274 194 q 360 135 326 147 q 429 122 393 122 q 534 149 485 122 q 601 221 583 176 l 761 176 q 633 40 721 93 q 422 -14 544 -14 m 611 425 q 551 556 604 507 q 421 606 497 606 q 351 592 383 606 q 293 556 318 579 q 252 499 268 532 q 233 425 236 465 l 611 425 m 336 -272 l 336 -97 l 504 -97 l 504 -272 l 336 -272 z "},"Ẽ":{"ha":835,"x_min":103,"x_max":788,"o":"m 788 168 l 788 0 l 103 0 l 103 986 l 775 986 l 775 818 l 294 818 l 294 581 l 710 581 l 710 425 l 294 425 l 294 168 l 788 168 m 540 1093 q 485 1103 508 1093 q 441 1124 461 1113 q 401 1146 421 1136 q 358 1156 381 1156 q 322 1146 335 1156 q 301 1124 308 1136 q 293 1101 294 1111 q 292 1089 292 1090 l 189 1089 q 197 1131 189 1101 q 224 1191 206 1161 q 274 1244 243 1221 q 351 1267 306 1267 q 406 1256 383 1267 q 449 1234 429 1246 q 490 1212 469 1222 q 535 1201 510 1201 q 574 1211 560 1201 q 597 1233 589 1221 q 606 1257 604 1246 q 608 1271 608 1268 l 711 1271 q 703 1232 711 1261 q 674 1172 694 1203 q 622 1117 654 1142 q 540 1093 589 1093 z "},"ẽ":{"ha":832,"x_min":39,"x_max":803,"o":"m 422 -14 q 264 16 335 -14 q 143 97 193 46 q 66 217 93 149 q 39 360 39 285 q 65 506 39 438 q 142 627 92 575 q 263 710 192 679 q 424 740 335 740 q 583 710 513 740 q 702 628 653 679 q 777 508 751 576 q 803 367 803 440 q 802 332 803 349 q 799 304 801 315 l 236 304 q 257 228 240 261 q 300 171 274 194 q 360 135 326 147 q 429 122 393 122 q 534 149 485 122 q 601 221 583 176 l 761 176 q 633 40 721 93 q 422 -14 544 -14 m 611 425 q 551 556 604 507 q 421 606 497 606 q 351 592 383 606 q 293 556 318 579 q 252 499 268 532 q 233 425 236 465 l 611 425 m 508 836 q 453 846 476 836 q 409 867 429 856 q 369 889 389 879 q 326 899 349 899 q 290 889 303 899 q 269 867 276 879 q 261 844 263 854 q 260 832 260 833 l 157 832 q 165 874 157 844 q 192 934 174 904 q 242 987 211 964 q 319 1010 274 1010 q 374 999 351 1010 q 417 977 397 989 q 458 955 438 965 q 503 944 478 944 q 542 954 528 944 q 565 976 557 964 q 574 1000 572 989 q 576 1014 576 1011 l 679 1014 q 671 975 679 1004 q 642 915 663 946 q 590 860 622 885 q 508 836 557 836 z "},"Ị":{"ha":397,"x_min":103,"x_max":294,"o":"m 103 0 l 103 986 l 294 986 l 294 0 l 103 0 m 111 -272 l 111 -97 l 279 -97 l 279 -272 l 111 -272 z "},"ị":{"ha":354,"x_min":85,"x_max":271,"o":"m 85 0 l 85 728 l 271 728 l 271 0 l 85 0 m 85 829 l 85 1014 l 271 1014 l 271 829 l 85 829 m 92 -272 l 92 -97 l 260 -97 l 260 -272 l 92 -272 z "},"Ọ":{"ha":1050,"x_min":43,"x_max":1006,"o":"m 439 -272 l 439 -97 l 607 -97 l 607 -272 l 439 -272 m 524 -7 q 327 35 415 -7 q 176 148 239 78 q 78 308 113 218 q 43 493 43 399 q 80 682 43 592 q 181 842 117 772 q 335 952 246 911 q 528 993 424 993 q 723 949 635 993 q 874 835 811 906 q 971 674 936 764 q 1006 490 1006 583 q 969 302 1006 392 q 869 144 933 213 q 717 34 806 75 q 524 -7 628 -7 m 238 493 q 257 369 238 429 q 313 264 276 310 q 403 190 350 218 q 525 163 457 163 q 648 191 594 163 q 738 267 701 219 q 794 373 775 314 q 813 493 813 432 q 792 617 813 557 q 735 722 772 676 q 645 795 699 768 q 525 822 592 822 q 401 794 456 822 q 311 719 347 765 q 256 613 275 672 q 238 493 238 554 z "},"ọ":{"ha":842,"x_min":39,"x_max":801,"o":"m 338 -272 l 338 -97 l 506 -97 l 506 -272 l 338 -272 m 421 -14 q 261 17 332 -14 q 141 99 190 47 q 65 219 92 151 q 39 363 39 288 q 65 507 39 439 q 141 627 92 575 q 261 710 190 679 q 421 740 332 740 q 580 710 510 740 q 699 627 650 679 q 775 507 749 575 q 801 363 801 439 q 775 219 801 288 q 700 99 749 151 q 581 17 651 47 q 421 -14 510 -14 m 231 363 q 245 274 231 314 q 285 206 260 235 q 346 160 311 176 q 421 144 381 144 q 496 160 461 144 q 556 206 531 176 q 597 275 582 235 q 611 364 611 315 q 597 451 611 411 q 556 521 582 492 q 496 566 531 550 q 421 582 461 582 q 346 565 381 582 q 285 519 311 549 q 245 450 260 490 q 231 363 231 410 z "},"Ụ":{"ha":1042,"x_min":89,"x_max":951,"o":"m 519 163 q 634 190 588 163 q 709 263 681 218 q 749 365 738 307 q 761 483 761 422 l 761 986 l 951 986 l 951 483 q 927 293 951 382 q 851 138 903 204 q 717 32 799 71 q 521 -7 635 -7 q 320 34 403 -7 q 186 142 238 75 q 112 299 135 210 q 89 483 89 388 l 89 986 l 281 986 l 281 483 q 292 363 281 421 q 333 261 304 306 q 407 190 361 217 q 519 163 453 163 m 435 -272 l 435 -97 l 603 -97 l 603 -272 l 435 -272 z "},"ụ":{"ha":858,"x_min":78,"x_max":803,"o":"m 307 -14 q 136 58 194 -14 q 78 272 78 131 l 78 728 l 264 728 l 264 313 q 385 144 264 144 q 490 177 439 144 q 572 276 540 210 l 572 728 l 758 728 l 758 214 q 769 172 758 185 q 803 158 779 160 l 803 0 q 756 -7 775 -6 q 722 -8 738 -8 q 641 15 672 -8 q 604 78 610 38 l 600 136 q 475 24 551 61 q 307 -14 399 -14 m 328 -272 l 328 -97 l 496 -97 l 496 -272 l 328 -272 z "},"Ỳ":{"ha":917,"x_min":6,"x_max":911,"o":"m 214 986 l 457 511 l 704 986 l 911 986 l 553 344 l 553 0 l 363 0 l 363 347 l 6 986 l 214 986 m 281 1272 l 453 1272 l 529 1107 l 410 1071 l 281 1272 z "},"ỳ":{"ha":764,"x_min":8,"x_max":747,"o":"m 100 -142 q 146 -152 124 -149 q 183 -156 168 -156 q 217 -149 201 -156 q 244 -124 232 -142 q 269 -76 257 -107 q 296 0 282 -46 l 8 728 l 200 728 l 397 161 l 572 728 l 747 728 l 442 -144 q 351 -269 415 -221 q 193 -318 288 -318 q 148 -315 171 -318 q 100 -303 125 -311 l 100 -142 m 221 1014 l 393 1014 l 469 849 l 350 813 l 221 1014 z "},"Ỹ":{"ha":917,"x_min":6,"x_max":911,"o":"m 214 986 l 457 511 l 704 986 l 911 986 l 553 344 l 553 0 l 363 0 l 363 347 l 6 986 l 214 986 m 544 1093 q 489 1103 513 1093 q 445 1124 465 1113 q 405 1146 425 1136 q 363 1156 385 1156 q 326 1146 339 1156 q 306 1124 313 1136 q 297 1101 299 1111 q 296 1089 296 1090 l 193 1089 q 201 1131 193 1101 q 228 1191 210 1161 q 278 1244 247 1221 q 356 1267 310 1267 q 410 1256 388 1267 q 453 1234 433 1246 q 494 1212 474 1222 q 539 1201 514 1201 q 578 1211 564 1201 q 601 1233 593 1221 q 610 1257 608 1246 q 613 1271 613 1268 l 715 1271 q 707 1232 715 1261 q 678 1172 699 1203 q 626 1117 658 1142 q 544 1093 593 1093 z "},"ỹ":{"ha":764,"x_min":8,"x_max":747,"o":"m 100 -142 q 146 -152 124 -149 q 183 -156 168 -156 q 217 -149 201 -156 q 244 -124 232 -142 q 269 -76 257 -107 q 296 0 282 -46 l 8 728 l 200 728 l 397 161 l 572 728 l 747 728 l 442 -144 q 351 -269 415 -221 q 193 -318 288 -318 q 148 -315 171 -318 q 100 -303 125 -311 l 100 -142 m 485 836 q 429 846 453 836 q 385 867 406 856 q 345 889 365 879 q 303 899 325 899 q 266 889 279 899 q 246 867 253 879 q 238 844 239 854 q 236 832 236 833 l 133 832 q 142 874 133 844 q 169 934 150 904 q 219 987 188 964 q 296 1010 250 1010 q 351 999 328 1010 q 394 977 374 989 q 434 955 414 965 q 479 944 454 944 q 519 954 504 944 q 541 976 533 964 q 551 1000 549 989 q 553 1014 553 1011 l 656 1014 q 647 975 656 1004 q 619 915 639 946 q 566 860 599 885 q 485 836 533 836 z "}," ":{"ha":836,"x_min":0,"x_max":0,"o":""}," ":{"ha":1290,"x_min":0,"x_max":0,"o":""},"–":{"ha":838,"x_min":81,"x_max":758,"o":"m 81 297 l 81 465 l 758 465 l 758 297 l 81 297 z "},"—":{"ha":1289,"x_min":81,"x_max":1208,"o":"m 81 297 l 81 465 l 1208 465 l 1208 297 l 81 297 z "},"‘":{"ha":342,"x_min":78,"x_max":265,"o":"m 240 1014 l 210 844 l 265 844 l 265 657 l 78 657 l 78 847 l 128 1014 l 240 1014 z "},"’":{"ha":329,"x_min":72,"x_max":260,"o":"m 97 665 l 128 835 l 72 835 l 72 1022 l 260 1022 l 260 832 l 210 665 l 97 665 z "},"‚":{"ha":347,"x_min":81,"x_max":267,"o":"m 104 -182 l 136 0 l 81 0 l 81 203 l 267 203 l 267 -3 l 218 -182 l 104 -182 z "},"“":{"ha":603,"x_min":78,"x_max":526,"o":"m 240 1014 l 210 844 l 265 844 l 265 657 l 78 657 l 78 847 l 128 1014 l 240 1014 m 501 1014 l 471 844 l 526 844 l 526 657 l 339 657 l 339 847 l 389 1014 l 501 1014 z "},"”":{"ha":590,"x_min":72,"x_max":521,"o":"m 97 665 l 128 835 l 72 835 l 72 1022 l 260 1022 l 260 832 l 210 665 l 97 665 m 358 665 l 389 835 l 333 835 l 333 1022 l 521 1022 l 521 832 l 471 665 l 358 665 z "},"„":{"ha":600,"x_min":81,"x_max":521,"o":"m 104 -182 l 136 0 l 81 0 l 81 203 l 267 203 l 267 -3 l 218 -182 l 104 -182 m 358 -182 l 389 0 l 333 0 l 333 203 l 521 203 l 521 -3 l 471 -182 l 358 -182 z "},"†":{"ha":640,"x_min":49,"x_max":590,"o":"m 232 -181 l 232 293 l 49 293 l 49 460 l 232 460 l 232 1076 l 408 1076 l 408 460 l 590 460 l 590 293 l 408 293 l 408 -181 l 232 -181 z "},"‡":{"ha":658,"x_min":58,"x_max":600,"o":"m 242 -181 l 242 142 l 58 142 l 58 308 l 242 308 l 242 464 l 58 464 l 58 632 l 242 632 l 242 1076 l 418 1076 l 418 632 l 600 632 l 600 464 l 418 464 l 418 308 l 600 308 l 600 142 l 418 142 l 418 -181 l 242 -181 z "},"•":{"ha":504,"x_min":107,"x_max":397,"o":"m 397 486 q 385 429 397 456 q 354 383 374 403 q 308 351 335 363 q 251 340 282 340 q 196 351 222 340 q 149 383 169 363 q 118 429 129 403 q 107 486 107 456 q 118 542 107 515 q 149 588 129 568 q 196 619 169 608 q 251 631 222 631 q 308 619 282 631 q 354 588 335 608 q 385 542 374 568 q 397 486 397 515 z "},"…":{"ha":836,"x_min":81,"x_max":756,"o":"m 81 0 l 81 200 l 233 200 l 233 0 l 81 0 m 342 0 l 342 200 l 494 200 l 494 0 l 342 0 m 603 0 l 603 200 l 756 200 l 756 0 l 603 0 z "}}}
